<svg xmlns="http://www.w3.org/2000/svg" fill="#a5a4a4" width="62" height="62" viewBox="0 0 62 62"><path d="M32,5A27,27,0,1,1,5,32,27,27,0,0,1,32,5m0-4A31,31,0,1,0,63,32,31,31,0,0,0,32,1Z" transform="translate(-1 -1)"/><path d="M17.14,45.24H13.55V23.58L9.91,25.82V22.11l3.64-2.43h3.59Z" transform="translate(-1 -1)"/><path d="M26.35,44.63a6.44,6.44,0,0,1-2.72-2.49,7.15,7.15,0,0,1-1-3.74V38a7.14,7.14,0,0,1,1-3.6,6.34,6.34,0,0,1,2.56-2.55A5.57,5.57,0,0,1,24,29.69a5.68,5.68,0,0,1-.82-2.94v-.62a6.78,6.78,0,0,1,.9-3.52,6.08,6.08,0,0,1,2.53-2.36,8.3,8.3,0,0,1,3.79-.83,8.31,8.31,0,0,1,3.8.83,6.08,6.08,0,0,1,2.53,2.36,6.78,6.78,0,0,1,.9,3.52v.62a5.66,5.66,0,0,1-.84,3,5.5,5.5,0,0,1-2.2,2.11,6.57,6.57,0,0,1,2.59,2.56,7,7,0,0,1,1,3.59v.42a7.15,7.15,0,0,1-1,3.74,6.5,6.5,0,0,1-2.72,2.49,9.08,9.08,0,0,1-4.08.87A9.06,9.06,0,0,1,26.35,44.63Zm6.27-3.06a3.63,3.63,0,0,0,1.47-1.38,4,4,0,0,0,.52-2v-.25a4,4,0,0,0-.52-2.06,3.63,3.63,0,0,0-1.47-1.38,5.16,5.16,0,0,0-4.39,0,3.52,3.52,0,0,0-1.47,1.39,4,4,0,0,0-.52,2.07v.26a3.87,3.87,0,0,0,.52,2,3.54,3.54,0,0,0,1.47,1.37,5.21,5.21,0,0,0,4.39,0ZM32.32,30a3.28,3.28,0,0,0,1.29-1.32,4.26,4.26,0,0,0,.45-2v-.25a3.88,3.88,0,0,0-.45-1.89,3.24,3.24,0,0,0-1.29-1.28,4.22,4.22,0,0,0-3.79,0,3.24,3.24,0,0,0-1.29,1.28,3.93,3.93,0,0,0-.45,1.91v.27a4.16,4.16,0,0,0,.45,2A3.32,3.32,0,0,0,28.53,30a4.06,4.06,0,0,0,3.79,0Z" transform="translate(-1 -1)"/><path d="M57.28,31.76v3.41H43V31.76ZM51.94,40.6H48.35V26.33h3.59Z" transform="translate(-1 -1)"/></svg>