<svg width="31" height="31" viewBox="0 0 31 31" fill="none" xmlns="http://www.w3.org/2000/svg">
<circle cx="15.5" cy="15.5" r="15.5" fill="#C4C4C4"/>
<circle cx="15.5" cy="15.5" r="15.5" fill="url(#paint0_linear)"/>
<path d="M21.037 10.7559C20.5936 10.4439 19.9767 10.5443 19.6593 10.9801L14.7923 17.6612C14.6594 17.8126 14.4928 17.8453 14.4035 17.8512C14.3117 17.8573 14.1333 17.8456 13.9804 17.7026L10.8295 14.7293C10.4361 14.358 9.81095 14.3706 9.43341 14.7571C9.05567 15.1437 9.06838 15.758 9.4617 16.1292L12.6157 19.1054C13.0881 19.5473 13.7186 19.7931 14.3674 19.7931C14.4231 19.7931 14.479 19.7913 14.5349 19.7876C15.2416 19.7414 15.9014 19.4036 16.3452 18.8611C16.3567 18.847 16.3677 18.8327 16.3784 18.818L21.2652 12.1098C21.5826 11.674 21.4805 11.0679 21.037 10.7559Z" fill="white"/>
<rect x="6.06104" y="5.42871" width="19.5102" height="19.5102" rx="4" stroke="white" stroke-width="2"/>
<defs>
<linearGradient id="paint0_linear" x1="15.5" y1="0" x2="15.5" y2="31" gradientUnits="userSpaceOnUse">
<stop stop-color="#3B8EC2"/>
<stop offset="1" stop-color="#68AED8"/>
</linearGradient>
</defs>
</svg>
