<svg width="19" height="27" viewBox="0 0 19 27" fill="none" xmlns="http://www.w3.org/2000/svg">
<path fill-rule="evenodd" clip-rule="evenodd" d="M9.5 16.875C13.8492 16.875 17.375 13.3492 17.375 9C17.375 4.65076 13.8492 1.125 9.5 1.125C5.15076 1.125 1.625 4.65076 1.625 9C1.625 13.3492 5.15076 16.875 9.5 16.875Z" stroke="#171736" stroke-width="2" stroke-linecap="round" stroke-linejoin="round"/>
<path d="M5.23625 15.6262L3.875 25.875L9.5 22.5L15.125 25.875L13.7637 15.615" stroke="#171736" stroke-width="2" stroke-linecap="round" stroke-linejoin="round"/>
<path d="M8.54894 5.66845C8.84829 4.74714 10.1517 4.74713 10.4511 5.66844L10.7348 6.5418C10.8687 6.95382 11.2527 7.23278 11.6859 7.23278H12.6042C13.5729 7.23278 13.9757 8.4724 13.192 9.0418L12.449 9.58156C12.0986 9.83621 11.9519 10.2876 12.0858 10.6996L12.3695 11.573C12.6689 12.4943 11.6144 13.2604 10.8307 12.691L10.0878 12.1512C9.7373 11.8966 9.2627 11.8966 8.91221 12.1512L8.16929 12.691C7.38558 13.2604 6.3311 12.4943 6.63045 11.573L6.91422 10.6996C7.04809 10.2876 6.90144 9.83621 6.55095 9.58156L5.80803 9.0418C5.02432 8.4724 5.42709 7.23278 6.39581 7.23278H7.31411C7.74734 7.23278 8.1313 6.95382 8.26517 6.5418L8.54894 5.66845Z" fill="#171736"/>
</svg>
