<svg width="23" height="19" viewBox="0 0 23 19" fill="none" xmlns="http://www.w3.org/2000/svg">
<path d="M12.1562 18.6873C12.0082 18.6873 11.8614 18.6373 11.7422 18.5405L1.24224 10.0093C1.08907 9.88435 1 9.69721 1 9.49982C1 9.30242 1.08907 9.11529 1.24224 8.99031L11.7422 0.459077C11.9384 0.300127 12.2107 0.267469 12.4382 0.375744C12.667 0.484677 12.8125 0.715386 12.8125 0.968539V5.58408C17.9356 5.92311 22 10.199 22 15.406V16.7185C22 16.9749 21.8507 17.2075 21.6181 17.3145C21.3854 17.4222 21.1117 17.3837 20.9169 17.2171L19.8108 16.2693C17.8465 14.5857 15.383 13.5994 12.8125 13.4559V18.0311C12.8125 18.2842 12.667 18.5149 12.4382 18.6238C12.3485 18.6661 12.2524 18.6873 12.1562 18.6873ZM2.69702 9.49982L11.5 16.6525V12.781C11.5 12.4183 11.7935 12.1248 12.1563 12.1248C15.2747 12.1248 18.2964 13.2425 20.6644 15.2721L20.6869 15.2913C20.6253 10.6399 16.8224 6.87479 12.1563 6.87479C11.7936 6.87479 11.5 6.58126 11.5 6.21852V2.34705C11.5 2.34705 2.69702 9.49982 2.69702 9.49982Z" fill="#8A96A3" stroke="#8A96A3" stroke-width="0.5"/>
</svg>
