<svg width="33" height="33" viewBox="0 0 33 33" fill="none" xmlns="http://www.w3.org/2000/svg">
<path d="M26.7432 29.6905H6.23633L7.68667 31.8864H25.2898L26.7432 29.6905Z" fill="#E1E6E9"/>
<path d="M25.2905 32.386H7.68672C7.60331 32.386 7.52159 32.3626 7.45086 32.3185C7.38012 32.2744 7.32321 32.2113 7.28661 32.1365L5.83627 29.9406C5.78732 29.8665 5.76123 29.7798 5.76123 29.6911C5.76123 29.6024 5.78732 29.5156 5.83627 29.4416C5.88354 29.3649 5.94981 29.3016 6.02869 29.2579C6.10757 29.2142 6.1964 29.1915 6.28662 29.1921H26.7887C26.8789 29.1915 26.9677 29.2142 27.0466 29.2579C27.1255 29.3016 27.1918 29.3649 27.239 29.4416C27.288 29.5156 27.3141 29.6024 27.3141 29.6911C27.3141 29.7798 27.288 29.8665 27.239 29.9406L25.7887 32.1365C25.7274 32.2102 25.6515 32.2704 25.5658 32.3134C25.48 32.3563 25.3863 32.381 25.2905 32.386ZM7.93732 31.388H25.0423L25.8425 30.1901H7.18673L7.93732 31.388Z" fill="#193651"/>
<path d="M10.3374 29.6905H22.6398L19.9395 26.4464H13.0377L10.3374 29.6905Z" fill="#CFD0D1"/>
<path d="M22.6399 30.1895H10.3374C10.241 30.1908 10.1463 30.1631 10.066 30.1098C9.98561 30.0566 9.92325 29.9803 9.88708 29.891C9.84495 29.8035 9.82737 29.7062 9.83621 29.6095C9.84506 29.5128 9.88 29.4203 9.93732 29.3419L12.6376 26.0977C12.7413 25.9837 12.8841 25.9126 13.0377 25.8984H19.9389C20.0172 25.8944 20.0952 25.9106 20.1653 25.9456C20.2354 25.9805 20.2952 26.0329 20.3391 26.0977L23.0394 29.3419C23.0967 29.4203 23.1316 29.5128 23.1405 29.6095C23.1493 29.7062 23.1317 29.8035 23.0896 29.891C23.059 29.9839 22.998 30.0637 22.9164 30.1178C22.8349 30.172 22.7375 30.1972 22.6399 30.1895ZM11.39 29.1915H21.592L19.6919 26.9453H13.2925L11.39 29.1915Z" fill="#193651"/>
<path d="M31.9915 6.93091C31.9948 6.60227 31.9324 6.27628 31.8079 5.97202C31.6834 5.66777 31.4993 5.39135 31.2665 5.15896C31.0336 4.92657 30.7566 4.74286 30.4518 4.61861C30.1469 4.49435 29.8203 4.43203 29.491 4.4353H3.48603C3.15674 4.43203 2.83011 4.49435 2.52525 4.61861C2.22038 4.74286 1.94342 4.92657 1.71057 5.15896C1.47771 5.39135 1.29365 5.66777 1.16914 5.97202C1.04464 6.27628 0.982197 6.60227 0.985474 6.93091V22.3534H31.9915V6.93091Z" fill="white"/>
<path d="M31.9913 22.8525H0.985219C0.918513 22.8565 0.851715 22.8463 0.789235 22.8227C0.726755 22.799 0.670015 22.7624 0.622761 22.7152C0.575508 22.6681 0.538816 22.6115 0.515108 22.5491C0.4914 22.4867 0.481215 22.4201 0.485227 22.3535V6.93092C0.48712 6.13712 0.8038 5.37633 1.36605 4.81486C1.9283 4.25338 2.6904 3.93687 3.48578 3.93451H29.4919C30.287 3.93687 31.0488 4.25313 31.611 4.81422C32.1732 5.37531 32.4901 6.13564 32.4925 6.92913V22.3535C32.4922 22.4859 32.4392 22.6129 32.3453 22.7064C32.2513 22.8 32.124 22.8525 31.9913 22.8525ZM1.48521 21.8545H31.4907V6.93212C31.4896 6.40312 31.2787 5.89606 30.9042 5.52172C30.5297 5.14738 30.022 4.9362 29.4919 4.93431H3.48578C2.95563 4.93573 2.4476 5.14654 2.07273 5.52067C1.69786 5.8948 1.48663 6.40182 1.48521 6.93092V21.8533V21.8545Z" fill="#193651"/>
<path d="M2.98572 20.3568V6.93089C2.9817 6.86431 2.99189 6.79765 3.0156 6.73529C3.0393 6.67293 3.076 6.61631 3.12325 6.56915C3.1705 6.52199 3.22725 6.48537 3.28973 6.4617C3.3522 6.43804 3.419 6.42788 3.48571 6.43188H29.4907C29.5574 6.42788 29.6242 6.43804 29.6867 6.4617C29.7491 6.48537 29.8059 6.52199 29.8531 6.56915C29.9004 6.61631 29.9371 6.67293 29.9608 6.73529C29.9845 6.79765 29.9947 6.86431 29.9907 6.93089V20.3568H2.98572Z" fill="#2EA2DB"/>
<path d="M0.985474 22.3534V23.9507C0.982197 24.2793 1.04464 24.6053 1.16914 24.9096C1.29365 25.2138 1.47771 25.4903 1.71057 25.7227C1.94342 25.9551 2.22038 26.1388 2.52525 26.263C2.83011 26.3873 3.15674 26.4496 3.48603 26.4463H29.491C29.8203 26.4496 30.1469 26.3873 30.4518 26.263C30.7566 26.1388 31.0336 25.9551 31.2665 25.7227C31.4993 25.4903 31.6834 25.2138 31.8079 24.9096C31.9324 24.6053 31.9948 24.2793 31.9915 23.9507V22.3534H0.985474Z" fill="white"/>
<path d="M29.4919 26.9454H3.48577C2.69071 26.943 1.92888 26.6267 1.36668 26.0656C0.804482 25.5045 0.487594 24.7442 0.485227 23.9507V22.3534C0.481215 22.2868 0.4914 22.2201 0.515108 22.1578C0.538816 22.0954 0.575508 22.0388 0.622761 21.9916C0.670015 21.9445 0.726755 21.9079 0.789235 21.8842C0.851714 21.8605 0.918513 21.8504 0.985219 21.8544H31.9913C32.058 21.8504 32.1248 21.8605 32.1873 21.8842C32.2497 21.9079 32.3065 21.9445 32.3537 21.9916C32.401 22.0388 32.4377 22.0954 32.4614 22.1578C32.4851 22.2201 32.4953 22.2868 32.4913 22.3534V23.9507C32.4889 24.744 32.1722 25.5041 31.6102 26.0652C31.0483 26.6263 30.2868 26.9427 29.4919 26.9454ZM1.48521 22.8524V23.9507C1.48663 24.4798 1.69786 24.9868 2.07273 25.361C2.4476 25.7351 2.95563 25.9459 3.48577 25.9473H29.4919C30.0221 25.9459 30.5301 25.7351 30.905 25.361C31.2798 24.9868 31.4911 24.4798 31.4925 23.9507V22.8524H1.48521Z" fill="#193651"/>
<path d="M20.3389 23.9507H19.3389V24.9487H20.3389V23.9507Z" fill="#193651"/>
<path d="M16.9878 23.9507H15.9878V24.9487H16.9878V23.9507Z" fill="#193651"/>
<path d="M13.6377 23.9507H12.6377V24.9487H13.6377V23.9507Z" fill="#193651"/>
<path d="M6.28684 2.43924V13.9199C6.28343 14.1176 6.31998 14.3139 6.39432 14.4972C6.46865 14.6804 6.57925 14.8469 6.7195 14.9865C6.85974 15.1261 7.02675 15.2361 7.21054 15.3099C7.39434 15.3836 7.59115 15.4196 7.78921 15.4157H25.1932C25.3907 15.4186 25.5867 15.3819 25.7697 15.3077C25.9526 15.2335 26.1188 15.1234 26.2583 14.9839C26.3977 14.8443 26.5077 14.6783 26.5816 14.4955C26.6555 14.3127 26.6918 14.117 26.6884 13.9199V2.43924C26.692 2.24203 26.6559 2.0461 26.5821 1.86312C26.5083 1.68013 26.3984 1.51383 26.2589 1.37411C26.1194 1.23439 25.9532 1.12409 25.7701 1.0498C25.587 0.975499 25.3908 0.938713 25.1932 0.941628H7.78921C7.39126 0.942258 7.00977 1.10019 6.72821 1.38086C6.44665 1.66152 6.28795 2.04208 6.28684 2.43924Z" fill="white"/>
<path d="M25.1893 15.9147H7.78523C7.25509 15.9133 6.74706 15.7025 6.37219 15.3284C5.99732 14.9542 5.78609 14.4472 5.78467 13.9181V2.43924C5.78609 1.90993 5.99749 1.40273 6.37261 1.02857C6.74774 0.654403 7.25608 0.44373 7.78643 0.442627L25.1905 0.442627C25.7206 0.444045 26.2286 0.654857 26.6035 1.02899C26.9784 1.40312 27.1896 1.91014 27.191 2.43924V13.9187C27.1893 14.4479 26.9778 14.9548 26.6027 15.3288C26.2276 15.7028 25.7195 15.9135 25.1893 15.9147ZM7.78643 1.44063C7.52094 1.44079 7.26635 1.54599 7.07845 1.73318C6.89056 1.92037 6.78469 2.17428 6.78406 2.43924V13.9187C6.78485 14.1832 6.89045 14.4365 7.07782 14.6235C7.26518 14.8105 7.51907 14.9159 7.78404 14.9167H25.1881C25.453 14.9159 25.7069 14.8105 25.8943 14.6235C26.0817 14.4365 26.1873 14.1832 26.188 13.9187V2.43924C26.1873 2.17479 26.0817 1.9214 25.8943 1.73441C25.7069 1.54742 25.453 1.44202 25.1881 1.44123L7.78643 1.44063Z" fill="#193651"/>
<path d="M26.2198 10.295H6.81641V12.7906H26.2198V10.295Z" fill="#E1E6E9"/>
<path d="M24.39 5.18376C24.3861 5.61932 24.211 6.03594 23.9024 6.34394C23.5938 6.65194 23.1764 6.8267 22.7399 6.83059C22.3035 6.8267 21.8861 6.65194 21.5775 6.34394C21.2688 6.03594 21.0937 5.61932 21.0898 5.18376C21.0937 4.7482 21.2688 4.33158 21.5775 4.02358C21.8861 3.71558 22.3035 3.54082 22.7399 3.53693C23.1764 3.54082 23.5938 3.71558 23.9024 4.02358C24.211 4.33158 24.3861 4.7482 24.39 5.18376Z" fill="#F16051"/>
<path d="M21.889 5.18376C21.8851 5.61932 21.7101 6.03594 21.4014 6.34394C21.0928 6.65194 20.6754 6.8267 20.239 6.83059C19.8025 6.8267 19.3851 6.65194 19.0765 6.34394C18.7679 6.03594 18.5928 5.61932 18.5889 5.18376C18.5928 4.7482 18.7679 4.33158 19.0765 4.02358C19.3851 3.71558 19.8025 3.54082 20.239 3.53693C20.6754 3.54082 21.0928 3.71558 21.4014 4.02358C21.7101 4.33158 21.8851 4.7482 21.889 5.18376Z" fill="#FDBF5E"/>
<path d="M12.7289 4.01147H8.62793V4.71039H12.7289V4.01147Z" fill="#193651"/>
<path d="M12.7128 5.72217H8.61182V6.42112H12.7128V5.72217Z" fill="#193651"/>
<path d="M14.1372 8.17902H13.1372V9.17702H14.1372V8.17902Z" fill="#193651"/>
<path d="M11.7871 8.17902H10.7871V9.17702H11.7871V8.17902Z" fill="#193651"/>
<path d="M9.43651 8.17902H8.43652V9.17702H9.43651V8.17902Z" fill="#193651"/>
</svg>
