<svg width="24" height="18" viewBox="0 0 24 18" fill="none" xmlns="http://www.w3.org/2000/svg">
<path d="M21.1875 0.1875H2.8125C1.26169 0.1875 0 1.44919 0 3V15C0 16.5508 1.26169 17.8125 2.8125 17.8125H21.1875C22.7383 17.8125 24 16.5508 24 15V3C24 1.44919 22.7383 0.1875 21.1875 0.1875ZM22.125 15C22.125 15.5169 21.7044 15.9375 21.1875 15.9375H2.8125C2.29556 15.9375 1.875 15.5169 1.875 15V7.03125H22.125V15ZM22.125 4.21875H1.875V3C1.875 2.48306 2.29556 2.0625 2.8125 2.0625H21.1875C21.7044 2.0625 22.125 2.48306 22.125 3V4.21875Z" fill="#8A96A3"/>
</svg>
