<svg width="23" height="29" viewBox="0 0 23 29" fill="none" xmlns="http://www.w3.org/2000/svg">
<path d="M21.7411 22.4868C21.6618 22.4353 21.0644 22.0168 20.4663 20.7509C19.3679 18.4263 19.1374 15.1516 19.1374 12.8138C19.1374 12.8036 19.1372 12.7936 19.1368 12.7834C19.1248 9.69379 17.2747 7.03039 14.6273 5.83537V4.00776C14.6273 2.34926 13.2802 1 11.6245 1H11.3756C9.71985 1 8.3728 2.34926 8.3728 4.00776V5.83527C5.71646 7.03413 3.86269 9.71114 3.86269 12.8138C3.86269 15.1516 3.63214 18.4262 2.53373 20.7509C1.93567 22.0168 1.33835 22.4352 1.25893 22.4868C0.924492 22.6416 0.759592 22.9991 0.836531 23.3614C0.914209 23.7274 1.25624 23.9796 1.62976 23.9796H7.42775C7.46013 26.2019 9.27387 28 11.5001 28C13.7262 28 15.54 26.2019 15.5724 23.9796H21.3703C21.7438 23.9796 22.0859 23.7274 22.1636 23.3614C22.2404 22.9991 22.0756 22.6415 21.7411 22.4868ZM9.95488 4.00776C9.95488 3.22302 10.5922 2.58462 11.3757 2.58462H11.6245C12.4079 2.58462 13.0453 3.22302 13.0453 4.00776V5.32174C12.546 5.21854 12.0291 5.16422 11.4998 5.16422C10.9707 5.16422 10.454 5.21849 9.95494 5.32158V4.00776H9.95488ZM11.5001 26.4154C10.1462 26.4154 9.04189 25.3282 9.00978 23.9797H13.9903C13.9582 25.3281 12.8539 26.4154 11.5001 26.4154ZM14.6852 22.395C14.6851 22.395 3.43249 22.395 3.43249 22.395C3.56933 22.1817 3.7086 21.9402 3.84703 21.6673C4.9072 19.5768 5.44478 16.598 5.44478 12.8138C5.44478 9.46956 8.16107 6.74884 11.4998 6.74884C14.8385 6.74884 17.5548 9.46956 17.5548 12.8165C17.5548 12.8262 17.555 12.8359 17.5553 12.8456C17.5583 16.6146 18.0959 19.5827 19.1531 21.6673C19.2915 21.9403 19.4308 22.1817 19.5676 22.395H14.6852Z" fill="#8A96A3" stroke="#8A96A3" stroke-width="0.8"/>
</svg>
