<svg width="18" height="16" viewBox="0 0 18 16" fill="none" xmlns="http://www.w3.org/2000/svg">
<path d="M0.122877 7.62195C1.21545 6.19053 2.52766 4.941 4.01083 3.91977L1.47415 1.38308C1.21876 1.13644 1.21168 0.729483 1.45833 0.4741C1.70497 0.218717 2.11192 0.211636 2.36731 0.45828C2.37266 0.46344 2.37793 0.468714 2.38313 0.4741L5.15444 3.24286C6.33406 2.59363 7.65377 2.24065 8.99999 2.21428C13.8857 2.21428 17.7164 7.40081 17.8771 7.62192C18.041 7.84728 18.041 8.15253 17.8771 8.37789C16.7846 9.80932 15.4724 11.0588 13.9892 12.0801L16.5259 14.6168C16.7813 14.8634 16.7883 15.2704 16.5417 15.5257C16.295 15.7811 15.8881 15.7882 15.6327 15.5416C15.6274 15.5364 15.6221 15.5311 15.6169 15.5257L12.8456 12.757C11.666 13.4062 10.3462 13.7592 9.00003 13.7856C4.11434 13.7856 0.283602 8.59904 0.122877 8.37789C-0.0409756 8.15257 -0.0409756 7.84732 0.122877 7.62195ZM13.0545 11.1473C14.364 10.2751 15.5379 9.21459 16.5381 7.99994C15.5918 6.85373 12.5228 3.49997 8.99999 3.49997C7.99771 3.52024 7.0123 3.76172 6.11424 4.2071L7.23024 5.32309C8.70679 4.34281 10.6985 4.74509 11.6788 6.22164C12.3929 7.29723 12.3929 8.69603 11.6788 9.77161L13.0545 11.1473ZM7.26429 7.17387C7.13848 7.43113 7.07253 7.71356 7.07144 7.99994C7.07144 9.06505 7.93488 9.9285 8.99999 9.9285C9.28637 9.9274 9.5688 9.86145 9.82607 9.73564L7.26429 7.17387ZM10.7357 8.82598C10.8615 8.56872 10.9275 8.28629 10.9285 7.99991C10.9285 6.93479 10.0651 6.07135 8.99999 6.07135C8.71361 6.07244 8.43118 6.1384 8.17391 6.26421L10.7357 8.82598ZM8.99999 12.4999C10.0023 12.4796 10.9876 12.2381 11.8857 11.7928L10.7697 10.6768C9.29319 11.657 7.30151 11.2548 6.32122 9.7782C5.60713 8.70262 5.60713 7.30382 6.32122 6.22823L4.94551 4.85252C3.63593 5.72474 2.46208 6.78529 1.4619 7.99991C2.40821 9.14615 5.47718 12.4999 8.99999 12.4999Z" fill="#171736"/>
</svg>
