<svg width="20" height="18" viewBox="0 0 20 18" fill="none" xmlns="http://www.w3.org/2000/svg">
<path d="M15.5487 0.807739H4.55546L0.192383 6.71964L10.0521 17.8078L19.9118 6.71964L15.5487 0.807739ZM15.5169 2.71313L18.0218 6.10718H14.6557L15.5169 2.71313ZM14.513 1.96483L13.6544 5.34921L11.1893 1.96483H14.513ZM12.775 6.10722H7.32927L10.0521 2.369L12.775 6.10722ZM8.91495 1.96483L6.44983 5.34921L5.59111 1.96483H8.91495ZM4.58731 2.71313L5.44849 6.10718H2.0824L4.58731 2.71313ZM2.22506 7.26427H5.79177L8.4113 14.2213L2.22506 7.26427ZM10.0521 15.2953L7.02809 7.26431H13.076L10.0521 15.2953ZM11.6929 14.2213L14.3125 7.26427H17.8792L11.6929 14.2213Z" fill="#2982BA"/>
</svg>
