<svg width="13" height="6" viewBox="0 0 13 6" fill="none" xmlns="http://www.w3.org/2000/svg">
<path d="M0.0294504 0.537295C0.597794 -0.134042 1.11037 -0.180429 1.82158 0.421583L6.0901 3.89398C6.23235 4.00969 6.34639 4.10247 6.51683 4.21818C6.65907 4.10247 6.80132 4.00969 6.94356 3.89398L11.1833 0.444522C11.3215 0.32442 11.4741 0.215817 11.6388 0.120323C11.806 0.030531 12.0074 -0.00715269 12.206 0.0142001C12.4045 0.0355528 12.587 0.114507 12.7197 0.236545C12.8693 0.33978 12.9666 0.484401 12.9928 0.642529C13.0191 0.800657 12.9725 0.961097 12.862 1.09292C12.7445 1.22673 12.611 1.3507 12.4634 1.463L7.39848 5.58328C6.71547 6.13891 6.28874 6.13891 5.60573 5.58328L0.540771 1.463C0.345306 1.2962 0.164598 1.11837 -4.06875e-08 0.93082C0.0248365 0.800675 0.0346956 0.66893 0.0294504 0.537295Z" fill="#2982BA"/>
</svg>
