<svg width="55" height="62" viewBox="0 0 55 62" fill="none" xmlns="http://www.w3.org/2000/svg">
<path d="M54.9953 30.239C54.8909 27.3058 53.3316 24.6515 50.8243 23.1417L12.9305 1.17352C10.2363 -0.390327 7.01333 -0.392018 4.31071 1.17352C1.61147 2.73905 0 5.54044 0 8.66982V52.4456C0 55.575 1.61147 58.3764 4.31071 59.9419C5.63424 60.7095 7.12446 61.1152 8.62143 61.1152C10.1184 61.1152 11.6086 60.7095 12.9321 59.9419L50.6896 38.0549C53.3889 36.491 55.0003 33.6879 55.0003 30.5586C55.002 30.4521 54.9986 30.3455 54.9953 30.239ZM49.0344 35.174L11.2752 57.0611C9.61323 58.0247 7.62794 58.0247 5.96764 57.0627C4.30566 56.0991 3.31218 54.3729 3.31218 52.4456V8.66982C3.31218 6.74249 4.30398 5.01804 5.96764 4.05268C6.79948 3.57085 7.71045 3.33078 8.62311 3.33078C9.53409 3.33078 10.4451 3.57254 11.2769 4.05268L47.0962 24.8171C45.0924 27.4664 39.7108 34.0159 37.9612 35.5206C36.4407 36.8275 35.2317 37.4124 34.5211 37.1825C34.4739 37.0337 34.4083 36.6854 34.4335 35.9433C34.4605 35.0895 34.6659 33.8536 35.0448 32.2661C35.4253 30.6634 35.9204 29.0116 36.5299 27.3193C36.6124 27.0268 36.6326 26.7512 36.5872 26.4943C36.5383 26.2339 36.4238 25.9888 36.247 25.7656C36.0568 25.5272 35.816 25.3581 35.528 25.2618C35.1222 25.1265 34.7012 25.1502 34.3156 25.3328C33.9182 25.5188 33.6354 25.84 33.5023 26.2424C33.0965 27.3497 32.7277 28.474 32.4078 29.5848C32.0912 30.6854 31.7814 31.9719 31.4867 33.4124C31.3739 33.9635 31.2948 34.4944 31.2476 35.0016C31.219 35.0388 31.1921 35.076 31.1685 35.1148C30.7223 35.7032 30.3922 35.9263 30.1834 36.0075C30.1177 35.7471 30.0066 35.2332 29.8433 34.2222C29.7254 33.458 29.6311 32.8866 29.557 32.5062C29.4812 32.1089 29.3566 31.6135 29.1765 30.9947C28.9879 30.3472 28.801 29.8637 28.6006 29.5137C28.3867 29.1384 28.092 28.8071 27.725 28.5264C26.7315 27.7673 25.3827 27.9127 24.2461 29.1148C23.6719 29.7217 22.8906 30.7242 21.8516 32.185C21.0097 33.4039 20.4186 34.2053 20.0044 34.7311C20.0145 34.0058 20.0566 32.9491 20.156 31.4157C20.3311 29.321 20.39 27.6862 20.3311 26.5534C20.2637 25.2922 19.9977 24.4266 19.5026 23.8907C18.6927 23.0775 17.5308 22.976 16.2393 24.1274C15.692 24.616 15.0757 25.3091 14.4055 26.1916C13.7488 27.0555 12.7351 28.4402 11.3847 30.3168C10.573 31.4833 9.8456 32.5079 9.20405 33.387C9.90285 31.6101 10.765 29.6541 11.777 27.5391C12.0094 27.1181 12.0447 26.6667 11.8764 26.2339C11.7231 25.8383 11.4453 25.5238 11.0715 25.326C10.669 25.113 10.2295 25.086 9.80519 25.2533C9.42127 25.4038 9.11649 25.654 8.86559 26.0648C8.40252 27.0539 7.89568 28.1646 7.34674 29.3988C6.79611 30.638 6.11919 32.3861 5.33788 34.5907C4.5212 36.9002 4.17095 38.5198 4.26693 39.5409C4.3124 40.0769 4.55656 40.5046 4.97079 40.7819C5.24526 40.9661 5.55004 41.0591 5.87503 41.0591C6.07204 41.0591 6.26737 41.0152 6.45428 40.929C7.06553 40.7126 7.76265 40.1885 8.58775 39.3296C9.36738 38.5181 10.147 37.5916 10.9064 36.5806C11.6558 35.5831 12.7082 34.1241 14.0334 32.2441C15.3165 30.4199 16.3352 29.0184 17.0829 28.0547C17.0627 28.8696 17.0155 29.9144 16.9414 31.1773C16.7343 33.3836 16.6838 34.9982 16.7899 36.114C16.9128 37.4124 17.3186 38.2391 18.0814 38.6601C18.3963 38.8021 18.7028 38.89 18.9907 38.9255C19.314 38.9678 19.6491 38.9272 19.9876 38.8089C20.2637 38.7091 20.5264 38.5959 20.7638 38.4674C21.0417 38.3186 21.333 38.0802 21.6563 37.7404C21.9324 37.4479 22.1581 37.2062 22.3332 37.0168C22.5218 36.8122 22.7761 36.4961 23.0859 36.0785C23.3957 35.6643 23.6315 35.338 23.7931 35.1013L24.5003 34.0683C25.2446 33.0269 25.7363 32.3625 26.0613 31.9381C26.2078 32.4639 26.4014 33.3228 26.6389 34.7209C26.819 35.83 26.9723 36.6043 27.1087 37.0912C27.2754 37.6812 27.5145 38.1039 27.8277 38.3795C28.5955 39.0811 29.4526 39.3837 30.367 39.2772C30.8216 39.2417 31.2762 39.1098 31.7174 38.8884C31.7309 38.8816 31.7427 38.8731 31.7561 38.8664C32.0138 39.3516 32.364 39.7303 32.8119 39.9957C33.4131 40.2984 34.0732 40.4522 34.7737 40.4522C35.8294 40.4522 36.998 40.0803 38.2424 39.3465C39.438 38.6415 40.5881 37.715 41.6607 36.5925C42.7047 35.5003 43.5382 34.5738 44.1377 33.8418C44.6327 33.2348 48.6925 28.0682 49.8679 26.5348C51.0247 27.534 51.6932 28.9795 51.6932 30.5586C51.6881 32.4859 50.6964 34.2104 49.0344 35.174Z" fill="#3A8CC1"/>
<circle cx="36.6677" cy="22.0011" r="2.44453" fill="#3A8CC1"/>
</svg>
