<svg width="41" height="41" viewBox="0 0 41 41" fill="none" xmlns="http://www.w3.org/2000/svg">
<path d="M30.9102 18.418C31.7947 18.418 32.5117 17.7009 32.5117 16.8164C32.5117 15.9319 31.7947 15.2148 30.9102 15.2148C30.0256 15.2148 29.3086 15.9319 29.3086 16.8164C29.3086 17.7009 30.0256 18.418 30.9102 18.418Z" fill="#2982BA"/>
<path d="M34.5938 3.20312H32.5117V1.60156C32.5117 0.71702 31.7947 0 30.9102 0C30.0256 0 29.3086 0.71702 29.3086 1.60156V3.20312H22.0215V1.60156C22.0215 0.71702 21.3045 0 20.4199 0C19.5354 0 18.8184 0.71702 18.8184 1.60156V3.20312H11.6113V1.60156C11.6113 0.71702 10.8943 0 10.0098 0C9.12522 0 8.4082 0.71702 8.4082 1.60156V3.20312H6.40625C2.87384 3.20312 0 6.07697 0 9.60938V34.5938C0 38.1262 2.87384 41 6.40625 41H18.6582C19.5427 41 20.2598 40.283 20.2598 39.3984C20.2598 38.5139 19.5427 37.7969 18.6582 37.7969H6.40625C4.64005 37.7969 3.20312 36.36 3.20312 34.5938V9.60938C3.20312 7.84317 4.64005 6.40625 6.40625 6.40625H8.4082V8.00781C8.4082 8.89235 9.12522 9.60938 10.0098 9.60938C10.8943 9.60938 11.6113 8.89235 11.6113 8.00781V6.40625H18.8184V8.00781C18.8184 8.89235 19.5354 9.60938 20.4199 9.60938C21.3045 9.60938 22.0215 8.89235 22.0215 8.00781V6.40625H29.3086V8.00781C29.3086 8.89235 30.0256 9.60938 30.9102 9.60938C31.7947 9.60938 32.5117 8.89235 32.5117 8.00781V6.40625H34.5938C36.36 6.40625 37.7969 7.84317 37.7969 9.60938V18.7383C37.7969 19.6228 38.5139 20.3398 39.3984 20.3398C40.283 20.3398 41 19.6228 41 18.7383V9.60938C41 6.07697 38.1262 3.20312 34.5938 3.20312Z" fill="#2982BA"/>
<path d="M31.3105 21.6211C25.9677 21.6211 21.6211 25.9677 21.6211 31.3105C21.6211 36.6534 25.9677 41 31.3105 41C36.6534 41 41 36.6534 41 31.3105C41 25.9677 36.6534 21.6211 31.3105 21.6211ZM31.3105 37.7969C27.734 37.7969 24.8242 34.8872 24.8242 31.3105C24.8242 27.7339 27.734 24.8242 31.3105 24.8242C34.8871 24.8242 37.7969 27.7339 37.7969 31.3105C37.7969 34.8872 34.8871 37.7969 31.3105 37.7969Z" fill="#2982BA"/>
<path d="M33.6328 29.709H32.9121V28.0273C32.9121 27.1428 32.1951 26.4258 31.3105 26.4258C30.426 26.4258 29.709 27.1428 29.709 28.0273V31.3105C29.709 32.1951 30.426 32.9121 31.3105 32.9121H33.6328C34.5174 32.9121 35.2344 32.1951 35.2344 31.3105C35.2344 30.426 34.5174 29.709 33.6328 29.709Z" fill="#2982BA"/>
<path d="M23.9434 18.418C24.8279 18.418 25.5449 17.7009 25.5449 16.8164C25.5449 15.9319 24.8279 15.2148 23.9434 15.2148C23.0588 15.2148 22.3418 15.9319 22.3418 16.8164C22.3418 17.7009 23.0588 18.418 23.9434 18.418Z" fill="#2982BA"/>
<path d="M16.9766 25.3848C17.8611 25.3848 18.5781 24.6677 18.5781 23.7832C18.5781 22.8987 17.8611 22.1816 16.9766 22.1816C16.092 22.1816 15.375 22.8987 15.375 23.7832C15.375 24.6677 16.092 25.3848 16.9766 25.3848Z" fill="#2982BA"/>
<path d="M10.0098 18.418C10.8943 18.418 11.6113 17.7009 11.6113 16.8164C11.6113 15.9319 10.8943 15.2148 10.0098 15.2148C9.12525 15.2148 8.4082 15.9319 8.4082 16.8164C8.4082 17.7009 9.12525 18.418 10.0098 18.418Z" fill="#2982BA"/>
<path d="M10.0098 25.3848C10.8943 25.3848 11.6113 24.6677 11.6113 23.7832C11.6113 22.8987 10.8943 22.1816 10.0098 22.1816C9.12525 22.1816 8.4082 22.8987 8.4082 23.7832C8.4082 24.6677 9.12525 25.3848 10.0098 25.3848Z" fill="#2982BA"/>
<path d="M10.0098 32.3516C10.8943 32.3516 11.6113 31.6345 11.6113 30.75C11.6113 29.8655 10.8943 29.1484 10.0098 29.1484C9.12525 29.1484 8.4082 29.8655 8.4082 30.75C8.4082 31.6345 9.12525 32.3516 10.0098 32.3516Z" fill="#2982BA"/>
<path d="M16.9766 32.3516C17.8611 32.3516 18.5781 31.6345 18.5781 30.75C18.5781 29.8655 17.8611 29.1484 16.9766 29.1484C16.092 29.1484 15.375 29.8655 15.375 30.75C15.375 31.6345 16.092 32.3516 16.9766 32.3516Z" fill="#2982BA"/>
<path d="M16.9766 18.418C17.8611 18.418 18.5781 17.7009 18.5781 16.8164C18.5781 15.9319 17.8611 15.2148 16.9766 15.2148C16.092 15.2148 15.375 15.9319 15.375 16.8164C15.375 17.7009 16.092 18.418 16.9766 18.418Z" fill="#2982BA"/>
</svg>
