<svg width="22" height="21" viewBox="0 0 22 21" fill="none" xmlns="http://www.w3.org/2000/svg">
<path d="M1.01025 8.42347C1.01025 8.41595 1.01025 8.41219 1.01026 8.40901C1.01376 6.75713 2.35201 5.41888 4.00389 5.41538C4.00707 5.41537 4.01083 5.41537 4.01835 5.41537V5.41537C4.02284 5.41537 4.02508 5.41537 4.02718 5.41537C5.08629 5.41389 6.06614 4.85406 6.60525 3.94243C6.60632 3.94062 6.60745 3.93869 6.60973 3.93482L6.99745 3.27709C7.24992 2.84878 7.37616 2.63463 7.53804 2.4661C7.80444 2.18875 8.14516 1.99409 8.51937 1.90543C8.74675 1.85156 8.99534 1.85156 9.49252 1.85156H12.4853C12.9825 1.85156 13.2311 1.85156 13.4585 1.90543C13.8327 1.99409 14.1734 2.18875 14.4398 2.4661C14.6017 2.63463 14.7279 2.84878 14.9804 3.27709L15.3681 3.93483C15.3704 3.93869 15.3715 3.94062 15.3726 3.94243C15.9117 4.85406 16.8915 5.41389 17.9506 5.41537C17.9528 5.41537 17.955 5.41537 17.9595 5.41537V5.41537C17.967 5.41537 17.9708 5.41537 17.9739 5.41538C19.6258 5.41888 20.9641 6.75713 20.9676 8.40901C20.9676 8.41219 20.9676 8.41595 20.9676 8.42347V14.8706C20.9676 16.5508 20.9676 17.3908 20.6406 18.0326C20.353 18.5971 19.894 19.056 19.3295 19.3436C18.6878 19.6706 17.8477 19.6706 16.1676 19.6706H5.81025C4.1301 19.6706 3.29002 19.6706 2.64828 19.3436C2.0838 19.056 1.62485 18.5971 1.33723 18.0326C1.01025 17.3908 1.01025 16.5508 1.01025 14.8706V8.42347Z" stroke="#3A8CC1" stroke-width="2" stroke-linecap="round" stroke-linejoin="round"/>
<ellipse cx="10.989" cy="12.8997" rx="4.27657" ry="3.92019" stroke="#3A8CC1" stroke-width="2"/>
<circle cx="17.4037" cy="8.97936" r="0.712762" stroke="#3A8CC1" stroke-width="2"/>
</svg>
