<svg width="21" height="16" viewBox="0 0 21 16" fill="none" xmlns="http://www.w3.org/2000/svg">
<path d="M20.2948 0.314903C19.5372 -0.226553 18.4833 -0.052423 17.9411 0.703996L9.62575 12.2997C9.39868 12.5626 9.11407 12.6194 8.96162 12.6295C8.80469 12.6402 8.49997 12.6199 8.23868 12.3716L2.85543 7.21117C2.18328 6.56679 1.11522 6.58864 0.470189 7.25951C-0.175178 7.93038 -0.153461 8.99659 0.518525 9.6408L5.90717 14.8063C6.7142 15.5733 7.79147 16 8.89985 16C8.99508 16 9.09057 15.9969 9.18606 15.9905C10.3935 15.9102 11.5208 15.324 12.2789 14.3823C12.2986 14.3579 12.3173 14.333 12.3357 14.3076L20.6847 2.66473C21.2269 1.90839 21.0525 0.856359 20.2948 0.314903Z" fill="white"/>
</svg>
