<svg width="21" height="21" viewBox="0 0 21 21" fill="none" xmlns="http://www.w3.org/2000/svg">
<path d="M10.5 0.00201416C4.70005 0.00201416 0 4.70346 0 10.4999C0 16.2999 4.70005 20.9992 10.5 20.9992C16.2999 20.9992 21 16.3006 21 10.4999C21 4.70346 16.2993 0.00201416 10.5 0.00201416ZM8.92337 16.7579C8.68743 16.991 8.30785 16.991 8.07468 16.7579L7.88662 16.5698L7.68191 16.3665L6.80338 15.488L6.78951 15.4678L2.7598 11.4076C2.52525 11.1744 2.52525 10.7921 2.7598 10.561L4.02971 9.29109C4.26565 9.05584 4.64246 9.05584 4.87701 9.29109L8.50284 12.9426L16.1223 5.32176C16.3555 5.0879 16.735 5.0879 16.9682 5.32176L18.2381 6.59305C18.4727 6.82622 18.4727 7.20719 18.2381 7.44035L8.92337 16.7579Z" fill="#2E84BC"/>
</svg>
