<svg width="13" height="14" viewBox="0 0 13 14" fill="none" xmlns="http://www.w3.org/2000/svg">
<path d="M12.6714 1.90403L8.02933 6.66131L12.6714 11.4186C12.7742 11.521 12.8562 11.6432 12.9125 11.7783C12.9688 11.9135 12.9984 12.0587 12.9994 12.2056C13.0005 12.3525 12.973 12.4982 12.9186 12.6341C12.8642 12.77 12.784 12.8935 12.6827 12.9974C12.5813 13.1013 12.4608 13.1835 12.3281 13.2392C12.1955 13.295 12.0534 13.3231 11.91 13.322C11.7667 13.3209 11.6249 13.2907 11.4931 13.233C11.3613 13.1753 11.242 13.0913 11.1421 12.9859L6.49944 8.2286L1.85736 12.9865C1.75748 13.0919 1.63816 13.1758 1.50632 13.2336C1.37449 13.2913 1.23277 13.3215 1.08942 13.3226C0.946068 13.3237 0.803937 13.2955 0.671293 13.2398C0.538648 13.1841 0.418138 13.1019 0.316769 12.998C0.2154 12.8941 0.135196 12.7706 0.0808199 12.6347C0.0264439 12.4987 -0.00101879 12.3531 2.8884e-05 12.2062C0.00107655 12.0593 0.0306137 11.914 0.0869226 11.7789C0.143232 11.6438 0.225189 11.5215 0.328028 11.4192L4.96841 6.66131L0.328028 1.90403C0.225189 1.80168 0.143232 1.67939 0.0869226 1.54428C0.0306137 1.40918 0.00107655 1.26395 2.8884e-05 1.11704C-0.00101879 0.970125 0.0264439 0.824465 0.0808199 0.688529C0.135196 0.552593 0.2154 0.429092 0.316769 0.325207C0.418138 0.221323 0.538648 0.139128 0.671293 0.0834026C0.803937 0.027677 0.946068 -0.000467118 1.08942 0.000606554C1.23277 0.00168023 1.37449 0.0319501 1.50632 0.0896566C1.63816 0.147363 1.75748 0.231355 1.85736 0.336747L6.5 5.09403L11.1426 0.336168C11.2425 0.230777 11.3618 0.146786 11.4937 0.0890796C11.6255 0.0313732 11.7672 0.00110327 11.9106 2.96009e-05C12.0539 -0.00104407 12.1961 0.0271001 12.3287 0.0828256C12.4614 0.138551 12.5819 0.220746 12.6832 0.32463C12.7846 0.428515 12.8648 0.552016 12.9192 0.687952C12.9736 0.823888 13.001 0.969546 13 1.11646C12.9989 1.26337 12.9694 1.4086 12.9131 1.54371C12.8568 1.67881 12.7742 1.80168 12.6714 1.90403Z" fill="#4393C6"/>
</svg>
