<svg width="15" height="15" viewBox="0 0 15 15" fill="none" xmlns="http://www.w3.org/2000/svg">
<path d="M14.6209 2.14376L9.26461 7.5L14.6209 12.8562C14.7395 12.9715 14.8341 13.1092 14.8991 13.2613C14.964 13.4134 14.9981 13.5769 14.9993 13.7423C15.0005 13.9077 14.9688 14.0717 14.9061 14.2248C14.8434 14.3778 14.7508 14.5169 14.6338 14.6338C14.5169 14.7508 14.3778 14.8434 14.2248 14.9061C14.0717 14.9688 13.9077 15.0005 13.7423 14.9993C13.5769 14.9981 13.4134 14.964 13.2613 14.8991C13.1092 14.8341 12.9715 14.7395 12.8562 14.6209L7.49935 9.26461L2.14311 14.6215C2.02787 14.7402 1.89018 14.8347 1.73807 14.8997C1.58595 14.9647 1.42243 14.9988 1.25702 15C1.09162 15.0012 0.927619 14.9695 0.774568 14.9067C0.621517 14.844 0.482467 14.7515 0.365503 14.6345C0.248539 14.5175 0.155995 14.3785 0.0932538 14.2254C0.0305122 14.0724 -0.00117552 13.9084 3.33277e-05 13.743C0.00124218 13.5776 0.0353234 13.4141 0.100295 13.2619C0.165267 13.1098 0.259833 12.9721 0.378494 12.8569L5.73278 7.5L0.378494 2.14376C0.259833 2.02852 0.165267 1.89083 0.100295 1.73872C0.0353234 1.5866 0.00124218 1.42308 3.33277e-05 1.25767C-0.00117552 1.09227 0.0305122 0.928269 0.0932538 0.775218C0.155995 0.622166 0.248539 0.483116 0.365503 0.366152C0.482467 0.249188 0.621517 0.156645 0.774568 0.0939033C0.927619 0.0311617 1.09162 -0.00052593 1.25702 0.000682921C1.42243 0.00189177 1.58595 0.0359728 1.73807 0.100945C1.89018 0.165917 2.02787 0.260483 2.14311 0.379144L7.5 5.73538L12.8569 0.378493C12.9721 0.259832 13.1098 0.165267 13.2619 0.100295C13.4141 0.0353232 13.5776 0.00124218 13.743 3.33278e-05C13.9084 -0.00117552 14.0724 0.0305121 14.2254 0.0932537C14.3785 0.155995 14.5175 0.248539 14.6345 0.365503C14.7515 0.482467 14.844 0.621517 14.9067 0.774568C14.9695 0.927619 15.0012 1.09162 15 1.25702C14.9988 1.42243 14.9647 1.58595 14.8997 1.73807C14.8347 1.89018 14.7395 2.02852 14.6209 2.14376Z" fill="#ff0000"/>
</svg>
