<svg width="34" height="24" viewBox="0 0 34 24" fill="none" xmlns="http://www.w3.org/2000/svg">
<path d="M1 23.41V9.05297C1 4.61296 4.92672 1 9.75232 1H24.1356C28.9622 1 32.89 4.61296 32.89 9.05297V11.5293C32.89 15.9693 28.9633 19.5823 24.1377 19.5823H9.95523L1 23.41ZM9.75232 2.79535C6.00223 2.79535 2.95127 5.60253 2.95127 9.05297V20.5961L9.52524 17.786H24.1377C27.8878 17.786 30.9387 14.9788 30.9387 11.5284V9.05201C30.9387 5.60156 27.8867 2.79439 24.1356 2.79439H9.75232V2.79535ZM10.3957 8.91658C11.4208 8.91658 12.2513 9.68077 12.2513 10.6239C12.2513 11.567 11.4208 12.3312 10.3957 12.3312C9.37069 12.3312 8.54014 11.567 8.54014 10.6239C8.54014 9.68077 9.37069 8.91658 10.3957 8.91658ZM23.4932 8.91658C24.5183 8.91658 25.3488 9.68077 25.3488 10.6239C25.3488 11.567 24.5183 12.3312 23.4932 12.3312C22.4682 12.3312 21.6376 11.567 21.6376 10.6239C21.6376 9.68077 22.4682 8.91658 23.4932 8.91658ZM16.9434 8.91658C17.9685 8.91658 18.799 9.68077 18.799 10.6239C18.799 11.567 17.9685 12.3312 16.9434 12.3312C15.9184 12.3312 15.0878 11.567 15.0878 10.6239C15.0878 9.68077 15.9184 8.91658 16.9434 8.91658Z" fill="white" stroke="white" stroke-width="0.5"/>
</svg>
