<svg width="38" height="29" viewBox="0 0 38 29" fill="none" xmlns="http://www.w3.org/2000/svg">
<path d="M1 28.4075V10.8488C1 5.41866 5.41866 1 10.8488 1H27.034C32.4654 1 36.8852 5.41866 36.8852 10.8488V13.8774C36.8852 19.3076 32.4666 23.7262 27.0364 23.7262H11.0772L1 28.4075ZM10.8488 3.19573C6.62892 3.19573 3.19573 6.62892 3.19573 10.8488V24.9661L10.5933 21.5293H27.0364C31.2563 21.5293 34.6895 18.0961 34.6895 13.8762V10.8476C34.6895 6.62773 31.2551 3.19454 27.034 3.19454H10.8488V3.19573ZM11.5729 10.682C12.7263 10.682 13.6609 11.6166 13.6609 12.7701C13.6609 13.9236 12.7263 14.8582 11.5729 14.8582C10.4194 14.8582 9.48478 13.9236 9.48478 12.7701C9.48478 11.6166 10.4194 10.682 11.5729 10.682ZM26.3112 10.682C27.4647 10.682 28.3993 11.6166 28.3993 12.7701C28.3993 13.9236 27.4647 14.8582 26.3112 14.8582C25.1577 14.8582 24.2231 13.9236 24.2231 12.7701C24.2231 11.6166 25.1577 10.682 26.3112 10.682ZM18.9408 10.682C20.0943 10.682 21.0289 11.6166 21.0289 12.7701C21.0289 13.9236 20.0943 14.8582 18.9408 14.8582C17.7874 14.8582 16.8528 13.9236 16.8528 12.7701C16.8528 11.6166 17.7874 10.682 18.9408 10.682Z" fill="#2982BA" stroke="#2982BA" stroke-width="0.5"/>
</svg>
