<svg width="22" height="17" viewBox="0 0 22 17" fill="none" xmlns="http://www.w3.org/2000/svg">
<path d="M0.353027 16.9741V6.52536C0.353027 3.29399 2.98247 0.664551 6.21383 0.664551H15.8453C19.0773 0.664551 21.7075 3.29399 21.7075 6.52536V8.3276C21.7075 11.559 19.078 14.1884 15.8467 14.1884H6.34971L0.353027 16.9741ZM6.21383 1.97118C3.70266 1.97118 1.65965 4.01419 1.65965 6.52536V14.9262L6.06177 12.8811H15.8467C18.3578 12.8811 20.4009 10.8381 20.4009 8.32689V6.52465C20.4009 4.01348 18.3571 1.97047 15.8453 1.97047H6.21383V1.97118ZM6.64468 6.42609C7.33108 6.42609 7.88724 6.98225 7.88724 7.66865C7.88724 8.35505 7.33108 8.91121 6.64468 8.91121C5.95828 8.91121 5.40212 8.35505 5.40212 7.66865C5.40212 6.98225 5.95828 6.42609 6.64468 6.42609ZM15.4151 6.42609C16.1015 6.42609 16.6577 6.98225 16.6577 7.66865C16.6577 8.35505 16.1015 8.91121 15.4151 8.91121C14.7287 8.91121 14.1726 8.35505 14.1726 7.66865C14.1726 6.98225 14.7287 6.42609 15.4151 6.42609ZM11.0292 6.42609C11.7156 6.42609 12.2718 6.98225 12.2718 7.66865C12.2718 8.35505 11.7156 8.91121 11.0292 8.91121C10.3428 8.91121 9.78664 8.35505 9.78664 7.66865C9.78664 6.98225 10.3428 6.42609 11.0292 6.42609Z" fill="#8A96A3"/>
<path d="M6.37897 13.6828L0.987305 15.9029V6.38816C0.987305 6.13444 1.62162 4.16807 1.93877 3.2166L5.11034 1.63082H9.55053C11.9821 1.5251 16.8451 1.37709 16.8451 1.63082C16.8451 1.88454 18.7481 2.79372 19.6995 3.2166L20.651 5.75385V8.2911L19.6995 11.4627L16.8451 13.3656L14.3079 13.6828H6.37897Z" fill="#8A96A3"/>
<path d="M7.88747 7.66871C7.88747 6.98231 7.33131 6.42615 6.6449 6.42615C5.9585 6.42615 5.40234 6.98231 5.40234 7.66871C5.40234 8.35511 5.9585 8.91127 6.6449 8.91127C7.33131 8.91127 7.88747 8.35511 7.88747 7.66871Z" fill="white"/>
<path d="M16.6579 7.66871C16.6579 6.98231 16.1017 6.42615 15.4153 6.42615C14.7289 6.42615 14.1728 6.98231 14.1728 7.66871C14.1728 8.35511 14.7289 8.91127 15.4153 8.91127C16.1017 8.91127 16.6579 8.35511 16.6579 7.66871Z" fill="white"/>
<path d="M12.272 7.66871C12.272 6.98231 11.7158 6.42615 11.0294 6.42615C10.343 6.42615 9.78686 6.98231 9.78686 7.66871C9.78686 8.35511 10.343 8.91127 11.0294 8.91127C11.7158 8.91127 12.272 8.35511 12.272 7.66871Z" fill="white"/>
</svg>
