<svg width="20" height="25" viewBox="0 0 20 25" fill="none" xmlns="http://www.w3.org/2000/svg">
<path d="M7 18.5L1 23.5V2.5L2.5 1.5H15L14 5V24L7 18.5Z" fill="#E5E5E5"/>
<path d="M16.7184 0.00132802C16.701 0.000468711 16.6833 0 16.6653 0H3.33473C1.49296 0 0 1.49296 0 3.33473V24.1651C0 24.881 0.843212 25.2636 1.38196 24.7922L7.49938 19.4394L13.6168 24.7922C14.1556 25.2636 14.9988 24.881 14.9988 24.1651V9.99918H19.1651C19.6253 9.99918 19.9984 9.62612 19.9984 9.16593V3.33305C19.9984 1.50995 18.5347 0.0298413 16.7184 0.00132802ZM13.3322 22.3288L8.04809 17.7051C7.73393 17.4302 7.26483 17.4302 6.95068 17.7051L1.6665 22.3288V3.33473C1.6665 2.41336 2.41336 1.66654 3.33469 1.66654H13.778C13.7661 1.68728 13.7546 1.70834 13.7431 1.72935C13.7392 1.7363 13.7352 1.74314 13.7315 1.75013C13.7091 1.79153 13.6877 1.83352 13.6671 1.87594C13.6622 1.88598 13.6575 1.89606 13.6527 1.90613C13.6347 1.94422 13.6172 1.98261 13.6006 2.02147C13.5978 2.02788 13.5949 2.03417 13.5922 2.04061C13.5738 2.0844 13.5564 2.12873 13.5398 2.17341C13.5358 2.18412 13.532 2.1949 13.5281 2.20564C13.5135 2.2465 13.4994 2.28766 13.4863 2.32922C13.4846 2.33477 13.4826 2.34024 13.4809 2.34578C13.4667 2.39168 13.4537 2.43812 13.4414 2.48487C13.4385 2.49624 13.4356 2.50765 13.4328 2.51905C13.4218 2.5628 13.4115 2.60686 13.4023 2.65127C13.4014 2.65556 13.4003 2.65978 13.3994 2.66408C13.3897 2.71189 13.3813 2.7602 13.3736 2.80875C13.3718 2.82067 13.37 2.83262 13.3682 2.84457C13.3613 2.8916 13.3551 2.93882 13.3502 2.98643C13.3499 2.98886 13.3496 2.99124 13.3493 2.99366C13.3443 3.04323 13.3407 3.09322 13.3379 3.14341C13.3372 3.15576 13.3366 3.1681 13.336 3.18048C13.3337 3.2311 13.3321 3.28188 13.3321 3.33309V9.16593L13.3322 22.3288ZM18.3318 8.33263H14.9988V3.33305C14.9988 2.41254 15.7448 1.6665 16.6653 1.6665C17.5859 1.6665 18.3319 2.4125 18.3319 3.33305L18.3318 8.33263Z" fill="#8A96A3"/>
</svg>
