<svg width="44" height="41" viewBox="0 0 44 41" fill="none" xmlns="http://www.w3.org/2000/svg">
<circle cx="20.5" cy="20.5" r="19" fill="#C4C4C4"/>
<circle cx="20.5" cy="20.5" r="19" fill="white"/>
<circle cx="20.5" cy="20.5" r="19" stroke="#DEDEDE" stroke-width="3"/>
<path d="M36.9038 24.4912V21.5249H33.9375V20.4849H36.9038V17.5332H37.9438V20.4849H40.8955V21.5249H37.9438V24.4912H36.9038Z" fill="#DEDEDE"/>
<path d="M36.9038 24.4912H33.9038V27.4912H36.9038V24.4912ZM36.9038 21.5249H39.9038V18.5249H36.9038V21.5249ZM33.9375 21.5249H30.9375V24.5249H33.9375V21.5249ZM33.9375 20.4849V17.4849H30.9375V20.4849H33.9375ZM36.9038 20.4849V23.4849H39.9038V20.4849H36.9038ZM36.9038 17.5332V14.5332H33.9038V17.5332H36.9038ZM37.9438 17.5332H40.9438V14.5332H37.9438V17.5332ZM37.9438 20.4849H34.9438V23.4849H37.9438V20.4849ZM40.8955 20.4849H43.8955V17.4849H40.8955V20.4849ZM40.8955 21.5249V24.5249H43.8955V21.5249H40.8955ZM37.9438 21.5249V18.5249H34.9438V21.5249H37.9438ZM37.9438 24.4912V27.4912H40.9438V24.4912H37.9438ZM39.9038 24.4912V21.5249H33.9038V24.4912H39.9038ZM36.9038 18.5249H33.9375V24.5249H36.9038V18.5249ZM36.9375 21.5249V20.4849H30.9375V21.5249H36.9375ZM33.9375 23.4849H36.9038V17.4849H33.9375V23.4849ZM39.9038 20.4849V17.5332H33.9038V20.4849H39.9038ZM36.9038 20.5332H37.9438V14.5332H36.9038V20.5332ZM34.9438 17.5332V20.4849H40.9438V17.5332H34.9438ZM37.9438 23.4849H40.8955V17.4849H37.9438V23.4849ZM37.8955 20.4849V21.5249H43.8955V20.4849H37.8955ZM40.8955 18.5249H37.9438V24.5249H40.8955V18.5249ZM34.9438 21.5249V24.4912H40.9438V21.5249H34.9438ZM37.9438 21.4912H36.9038V27.4912H37.9438V21.4912Z" fill="white"/>
<path d="M14.2993 14.6875H15.4858V25H14.2334V16.0718L11.7578 18.2178V16.8628L14.2993 14.6875ZM25.1831 24.2896C24.519 24.856 23.6865 25.1392 22.6855 25.1392C21.6846 25.1392 20.8496 24.856 20.1807 24.2896C19.5166 23.7183 19.1846 22.9688 19.1846 22.041C19.1846 21.3916 19.3579 20.8301 19.7046 20.3564C20.0513 19.8828 20.5225 19.5361 21.1182 19.3164C20.6934 19.1064 20.354 18.8135 20.1001 18.4375C19.8511 18.0566 19.7266 17.6318 19.7266 17.1631C19.7266 16.4014 20.0073 15.7764 20.5688 15.2881C21.1304 14.7949 21.8359 14.5483 22.6855 14.5483C23.5205 14.5483 24.2163 14.7949 24.7729 15.2881C25.3345 15.7812 25.6152 16.4062 25.6152 17.1631C25.6152 17.6318 25.4932 18.0566 25.249 18.4375C25.0049 18.8135 24.6729 19.1064 24.2529 19.3164C24.8438 19.541 25.3125 19.8901 25.6592 20.3638C26.0059 20.8325 26.1792 21.3916 26.1792 22.041C26.1792 22.9736 25.8472 23.7231 25.1831 24.2896ZM22.6855 18.8989C23.1787 18.8989 23.5938 18.7378 23.9307 18.4155C24.2725 18.0933 24.4434 17.6978 24.4434 17.229C24.4434 16.77 24.2725 16.3843 23.9307 16.0718C23.5938 15.7544 23.1787 15.5957 22.6855 15.5957C22.1826 15.5957 21.7627 15.752 21.4258 16.0645C21.0889 16.377 20.9204 16.7651 20.9204 17.229C20.9204 17.6978 21.0889 18.0933 21.4258 18.4155C21.7676 18.7378 22.1875 18.8989 22.6855 18.8989ZM22.6855 23.9673C23.3203 23.9673 23.8477 23.7793 24.2676 23.4033C24.6924 23.0273 24.9048 22.5293 24.9048 21.9092C24.9048 21.2988 24.6924 20.8081 24.2676 20.437C23.8477 20.0659 23.3203 19.8804 22.6855 19.8804C22.0459 19.8804 21.5137 20.0659 21.0889 20.437C20.6641 20.8081 20.4517 21.2988 20.4517 21.9092C20.4517 22.5293 20.6641 23.0273 21.0889 23.4033C21.5137 23.7793 22.0459 23.9673 22.6855 23.9673Z" fill="#DEDEDE"/>
</svg>
