<svg width="30" height="30" viewBox="0 0 30 30" fill="none" xmlns="http://www.w3.org/2000/svg">
<path d="M16.0314 14.0571V14.1571H16.1314H22.4831C22.7039 14.1571 22.9155 14.2441 23.0714 14.3988C23.2273 14.5535 23.3147 14.763 23.3147 14.9814C23.3147 15.1998 23.2273 15.4094 23.0714 15.564C22.9155 15.7187 22.7039 15.8058 22.4831 15.8058H16.1314H16.0314V15.9058V22.2077C16.0314 22.4261 15.944 22.6357 15.7881 22.7904C15.6322 22.945 15.4206 23.0321 15.1998 23.0321C14.979 23.0321 14.7673 22.945 14.6114 22.7904C14.4556 22.6357 14.3682 22.4261 14.3682 22.2077V15.9058V15.8058H14.2682H7.91406C7.69324 15.8058 7.48163 15.7187 7.32573 15.564C7.16985 15.4094 7.08242 15.1998 7.08242 14.9814C7.08242 14.763 7.16985 14.5535 7.32573 14.3988C7.48163 14.2441 7.69324 14.1571 7.91406 14.1571H14.2682H14.3682V14.0571V7.75272C14.3682 7.53434 14.4556 7.32475 14.6114 7.17009C14.7673 7.01541 14.979 6.92837 15.1998 6.92837C15.4206 6.92837 15.6322 7.01541 15.7881 7.17009C15.944 7.32475 16.0314 7.53434 16.0314 7.75272V14.0571Z" fill="white" stroke="white" stroke-width="0.2"/>
<path d="M20.9911 0.734961H20.9908L9.53135 0.73496L9.53105 0.734961C7.24431 0.741728 5.05301 1.64605 3.4358 3.25062C1.81856 4.85521 0.906822 7.02971 0.9 9.29928V9.29958L0.9 20.6695L0.9 20.6698C0.906822 22.9393 1.81856 25.1138 3.4358 26.7184C5.05301 28.323 7.24431 29.2273 9.53105 29.2341H9.53135H20.9908H20.9911C23.2779 29.2273 25.4692 28.323 27.0864 26.7184C28.7036 25.1138 29.6153 22.9393 29.6222 20.6698V20.6695V9.29958V9.29928C29.6153 7.02971 28.7036 4.85521 27.0864 3.25062C25.4692 1.64605 23.2779 0.741728 20.9911 0.734961ZM20.9907 2.74622C22.7422 2.74874 24.421 3.44019 25.6593 4.66875C26.8975 5.89729 27.5941 7.56266 27.5966 9.29973V20.6693C27.5941 22.4064 26.8975 24.0717 25.6593 25.3003C24.421 26.5288 22.7422 27.2203 20.9907 27.2228H9.53149C7.78001 27.2203 6.10114 26.5288 4.8629 25.3003C3.62468 24.0717 2.92807 22.4064 2.92554 20.6693V9.29973C2.92807 7.56266 3.62468 5.89729 4.8629 4.66875C6.10114 3.44019 7.78001 2.74874 9.53149 2.74622H20.9907Z" fill="white" stroke="white" stroke-width="0.2"/>
</svg>
