<svg width="42" height="30" viewBox="0 0 42 30" fill="none" xmlns="http://www.w3.org/2000/svg">
<path d="M3.82275 11.6557H11.1677V14.9876H3.82275V11.6557Z" fill="#57A4FF"/>
<path d="M1.15186 4.992H35.8738V8.99119H1.15186V4.992Z" fill="#57A4FF"/>
<path d="M35.0228 28.7531C38.3258 28.7531 41.0035 26.0807 41.0035 22.7842C41.0035 19.4876 38.3258 16.8152 35.0228 16.8152C31.7197 16.8152 29.042 19.4876 29.042 22.7842C29.042 26.0807 31.7197 28.7531 35.0228 28.7531Z" fill="#57A4FF"/>
<path d="M36.5418 16.4529V4.32527C36.5407 3.44184 36.1885 2.59492 35.5625 1.97029C34.9366 1.34567 34.0879 0.994356 33.2027 0.993408H3.82284C2.93776 0.994514 2.08925 1.3459 1.46341 1.97051C0.837569 2.59511 0.485483 3.44194 0.484375 4.32527V20.319C0.485483 21.2023 0.837569 22.0492 1.46341 22.6738C2.08925 23.2984 2.93776 23.6498 3.82284 23.6509H28.5623C28.6861 24.8772 29.1483 26.0452 29.8974 27.0251C30.6465 28.005 31.6533 28.7583 32.8057 29.2014C33.9581 29.6445 35.2111 29.7599 36.4253 29.5348C37.6395 29.3098 38.7674 28.7531 39.6836 27.9267C40.5998 27.1002 41.2685 26.0364 41.6151 24.8534C41.9618 23.6704 41.973 22.4147 41.6474 21.2257C41.3219 20.0368 40.6723 18.9612 39.771 18.1187C38.8696 17.2761 37.7518 16.6995 36.5418 16.4529ZM1.81988 5.65813H35.2063V8.32385H1.81988V5.65813ZM3.82284 2.32627H33.2027C33.7338 2.3269 34.2429 2.53771 34.6183 2.91246C34.9938 3.28721 35.2051 3.79529 35.2057 4.32527H1.81988C1.82051 3.79529 2.03174 3.28721 2.40723 2.91246C2.78272 2.53771 3.29181 2.3269 3.82284 2.32627ZM1.81988 20.319V9.65671H35.2063V16.321C33.5515 16.323 31.9563 16.9373 30.7291 18.0452C29.5018 19.153 28.7298 20.6756 28.5623 22.3186H3.82284C3.29171 22.318 2.78253 22.1071 2.40702 21.7322C2.03151 21.3573 1.82035 20.8491 1.81988 20.319ZM35.2063 28.3174C34.1497 28.3174 33.1169 28.0047 32.2384 27.4189C31.3599 26.833 30.6752 26.0004 30.2709 25.0262C29.8666 24.052 29.7608 22.98 29.9669 21.9458C30.173 20.9116 30.6818 19.9616 31.4289 19.216C32.176 18.4704 33.1279 17.9626 34.1641 17.7569C35.2004 17.5512 36.2745 17.6568 37.2506 18.0603C38.2267 18.4638 39.061 19.1472 39.648 20.0239C40.235 20.9007 40.5483 21.9315 40.5483 22.9859C40.548 24.3997 39.985 25.7555 38.9832 26.7551C37.9815 27.7546 36.6229 28.3162 35.2063 28.3162V28.3174Z" fill="#004FAC"/>
<path d="M11.17 10.9896H3.82322C3.6462 10.9896 3.47643 11.0597 3.35125 11.1847C3.22608 11.3096 3.15576 11.479 3.15576 11.6557V14.9887C3.15576 15.1654 3.22608 15.3349 3.35125 15.4598C3.47643 15.5847 3.6462 15.6549 3.82322 15.6549H11.17C11.347 15.6549 11.5168 15.5847 11.6419 15.4598C11.7671 15.3349 11.8374 15.1654 11.8374 14.9887V11.6569C11.8376 11.5693 11.8204 11.4826 11.787 11.4016C11.7535 11.3206 11.7044 11.2471 11.6424 11.1851C11.5804 11.1231 11.5067 11.0739 11.4257 11.0404C11.3446 11.0068 11.2577 10.9896 11.17 10.9896ZM10.5025 14.3214H4.49127V12.3224H10.5007L10.5025 14.3214Z" fill="#004FAC"/>
<path d="M11.1698 16.3204H3.82303C3.64593 16.3204 3.47608 16.3907 3.35085 16.5156C3.22563 16.6406 3.15527 16.8101 3.15527 16.9869C3.15527 17.1636 3.22563 17.3331 3.35085 17.4581C3.47608 17.5831 3.64593 17.6533 3.82303 17.6533H11.1698C11.3469 17.6533 11.5167 17.5831 11.642 17.4581C11.7672 17.3331 11.8375 17.1636 11.8375 16.9869C11.8375 16.8101 11.7672 16.6406 11.642 16.5156C11.5167 16.3907 11.3469 16.3204 11.1698 16.3204Z" fill="#004FAC"/>
<path d="M7.16268 18.32H3.82303C3.64593 18.32 3.47608 18.3903 3.35085 18.5152C3.22563 18.6402 3.15527 18.8097 3.15527 18.9864C3.15527 19.1632 3.22563 19.3327 3.35085 19.4577C3.47608 19.5827 3.64593 19.6529 3.82303 19.6529H7.16268C7.33978 19.6529 7.50963 19.5827 7.63485 19.4577C7.76008 19.3327 7.83044 19.1632 7.83044 18.9864C7.83044 18.8097 7.76008 18.6402 7.63485 18.5152C7.50963 18.3903 7.33978 18.32 7.16268 18.32Z" fill="#004FAC"/>
<path d="M9.83227 18.32H9.16482C8.98772 18.32 8.81788 18.3903 8.69265 18.5152C8.56742 18.6402 8.49707 18.8097 8.49707 18.9864C8.49707 19.1632 8.56742 19.3327 8.69265 19.4577C8.81788 19.5827 8.98772 19.6529 9.16482 19.6529H9.83227C10.0094 19.6529 10.1792 19.5827 10.3044 19.4577C10.4297 19.3327 10.5 19.1632 10.5 18.9864C10.5 18.8097 10.4297 18.6402 10.3044 18.5152C10.1792 18.3903 10.0094 18.32 9.83227 18.32Z" fill="#004FAC"/>
<path d="M37.2094 22.318H35.8739V20.9851C35.8739 20.8084 35.8036 20.6389 35.6783 20.5139C35.5531 20.3889 35.3833 20.3187 35.2062 20.3187C35.0291 20.3187 34.8592 20.3889 34.734 20.5139C34.6088 20.6389 34.5384 20.8084 34.5384 20.9851V22.318H33.2029C33.0258 22.318 32.856 22.3882 32.7307 22.5132C32.6055 22.6382 32.5352 22.8077 32.5352 22.9845C32.5352 23.1612 32.6055 23.3307 32.7307 23.4557C32.856 23.5807 33.0258 23.6509 33.2029 23.6509H34.5384V24.9837C34.5384 25.1605 34.6088 25.33 34.734 25.455C34.8592 25.58 35.0291 25.6502 35.2062 25.6502C35.3833 25.6502 35.5531 25.58 35.6783 25.455C35.8036 25.33 35.8739 25.1605 35.8739 24.9837V23.6509H37.2094C37.3865 23.6509 37.5564 23.5807 37.6816 23.4557C37.8068 23.3307 37.8772 23.1612 37.8772 22.9845C37.8772 22.8077 37.8068 22.6382 37.6816 22.5132C37.5564 22.3882 37.3865 22.318 37.2094 22.318Z" fill="#004FAC"/>
</svg>
