<svg width="20" height="17" viewBox="0 0 20 17" fill="none" xmlns="http://www.w3.org/2000/svg">
<path d="M15.0832 0.078125H4.42913L0.200684 5.8076L9.75616 16.5536L19.3117 5.8076L15.0832 0.078125ZM15.0524 1.92472L17.48 5.21404H14.2177L15.0524 1.92472ZM14.0794 1.19951L13.2473 4.47946L10.8582 1.19951H14.0794ZM12.395 5.21408H7.11735L9.75616 1.59121L12.395 5.21408ZM8.6541 1.19951L6.26505 4.47946L5.43283 1.19951H8.6541ZM4.46 1.92472L5.29461 5.21404H2.03239L4.46 1.92472ZM2.17064 6.33543H5.6273L8.16599 13.0777L2.17064 6.33543ZM9.75612 14.1187L6.82546 6.33546H12.6868L9.75612 14.1187ZM11.3464 13.0777L13.8851 6.33543H17.3417L11.3464 13.0777Z" fill="#8A96A3"/>
</svg>
