<svg width="37" height="41" viewBox="0 0 37 41" fill="none" xmlns="http://www.w3.org/2000/svg">
<path d="M26.2241 17.6172C26.2241 16.7326 25.5071 16.0156 24.6226 16.0156H8.12647C7.24192 16.0156 6.5249 16.7326 6.5249 17.6172C6.5249 18.5017 7.24192 19.2188 8.12647 19.2188H24.6226C25.5071 19.2188 26.2241 18.5017 26.2241 17.6172Z" fill="#8A96A3"/>
<path d="M8.12646 22.4219C7.24192 22.4219 6.5249 23.1389 6.5249 24.0234C6.5249 24.908 7.24192 25.625 8.12646 25.625H18.1451C19.0297 25.625 19.7467 24.908 19.7467 24.0234C19.7467 23.1389 19.0297 22.4219 18.1451 22.4219H8.12646Z" fill="#8A96A3"/>
<path d="M11.8903 37.7969H6.53394C4.76773 37.7969 3.33081 36.36 3.33081 34.5938V6.40625C3.33081 4.64005 4.76773 3.20312 6.53394 3.20312H26.2243C27.9905 3.20312 29.4274 4.64005 29.4274 6.40625V16.2559C29.4274 17.1404 30.1444 17.8574 31.029 17.8574C31.9135 17.8574 32.6305 17.1404 32.6305 16.2559V6.40625C32.6305 2.87384 29.7567 0 26.2243 0H6.53394C3.00153 0 0.127686 2.87384 0.127686 6.40625V34.5938C0.127686 38.1262 3.00153 41 6.53394 41H11.8903C12.7748 41 13.4918 40.283 13.4918 39.3984C13.4918 38.5139 12.7748 37.7969 11.8903 37.7969Z" fill="#8A96A3"/>
<path d="M35.4673 23.1884C33.594 21.3151 30.5459 21.315 28.6737 23.1871L19.8809 31.9605C19.6941 32.1468 19.5564 32.3763 19.4797 32.6287L17.5648 38.9329C17.395 39.4918 17.5429 40.0987 17.9508 40.5168C18.2564 40.83 18.6716 41 19.0973 41C19.2398 41 19.3836 40.981 19.5248 40.9418L25.9891 39.1512C26.2551 39.0775 26.4976 38.9363 26.693 38.7413L35.4674 29.9834C37.3407 28.11 37.3407 25.0619 35.4673 23.1884ZM24.7282 36.1768L21.476 37.0776L22.4278 33.9443L28.3607 28.0245L30.6261 30.2899L24.7282 36.1768ZM33.2036 27.7175L32.8933 28.0271L30.6283 25.7621L30.9375 25.4535C31.562 24.829 32.578 24.829 33.2024 25.4535C33.8269 26.0779 33.8269 27.094 33.2036 27.7175Z" fill="#8A96A3"/>
<path d="M24.6226 9.60938H8.12647C7.24192 9.60938 6.5249 10.3264 6.5249 11.2109C6.5249 12.0955 7.24192 12.8125 8.12647 12.8125H24.6226C25.5071 12.8125 26.2241 12.0955 26.2241 11.2109C26.2241 10.3264 25.5071 9.60938 24.6226 9.60938Z" fill="#8A96A3"/>
</svg>
