<svg width="22" height="22" viewBox="0 0 22 22" fill="none" xmlns="http://www.w3.org/2000/svg">
<path d="M14.9453 13.085C14.9453 13.5781 14.8525 14.0176 14.667 14.4033C14.4863 14.7842 14.2324 15.0967 13.9053 15.3408C13.5781 15.5801 13.207 15.7656 12.792 15.8975C12.3818 16.0293 11.9302 16.1099 11.437 16.1392V17.1279H10.6899V16.1318C9.69873 16.0781 8.86377 15.7974 8.18506 15.2896C7.51123 14.7817 7.09619 14.1006 6.93994 13.2461L8.7417 12.8286C8.82471 13.3413 9.03955 13.7563 9.38623 14.0737C9.73779 14.3911 10.1724 14.5864 10.6899 14.6597V11.3564C10.6655 11.3467 10.6313 11.3369 10.5874 11.3271C10.5435 11.3125 10.5093 11.3027 10.4849 11.2979C10.2065 11.2148 9.97949 11.1465 9.80371 11.0928C9.62793 11.0342 9.41309 10.9561 9.15918 10.8584C8.91016 10.7559 8.70752 10.6582 8.55127 10.5654C8.39502 10.4678 8.22656 10.3457 8.0459 10.1992C7.87012 10.0479 7.73096 9.88916 7.62842 9.72314C7.53076 9.55713 7.44775 9.36182 7.37939 9.13721C7.31104 8.90771 7.27686 8.65869 7.27686 8.39014C7.27686 7.77979 7.43066 7.25 7.73828 6.80078C8.0459 6.35156 8.45361 6.01465 8.96143 5.79004C9.46924 5.56055 10.0454 5.43604 10.6899 5.4165V4.45703H11.437V5.4458C12.2964 5.52393 13.0337 5.78027 13.6489 6.21484C14.2642 6.64941 14.6572 7.26465 14.8281 8.06055L13.1362 8.48535C13.0386 8.03125 12.8408 7.6748 12.543 7.41602C12.25 7.15234 11.8813 6.98633 11.437 6.91797V9.98682C11.73 10.0649 11.9668 10.1333 12.1475 10.1919C12.333 10.2456 12.5625 10.3262 12.8359 10.4336C13.1143 10.5361 13.3389 10.6387 13.5098 10.7412C13.6855 10.8389 13.8735 10.9683 14.0737 11.1294C14.2739 11.2905 14.4302 11.4614 14.5425 11.6421C14.6548 11.8179 14.75 12.0303 14.8281 12.2793C14.9062 12.5283 14.9453 12.7969 14.9453 13.085ZM9.04932 8.36084C9.04932 8.71729 9.18848 9.00049 9.4668 9.21045C9.74512 9.41553 10.1528 9.60107 10.6899 9.76709V6.88867C10.2114 6.92773 9.81836 7.06934 9.51074 7.31348C9.20312 7.55762 9.04932 7.90674 9.04932 8.36084ZM11.437 14.6743C11.9546 14.6353 12.3672 14.4912 12.6748 14.2422C12.9873 13.9932 13.1411 13.6318 13.1362 13.1582C13.1313 12.7578 12.9824 12.4404 12.6895 12.2061C12.4014 11.9668 11.9839 11.7568 11.437 11.5762V14.6743Z" fill="#171736"/>
<circle cx="11" cy="11" r="10" stroke="#171736" stroke-width="2"/>
</svg>
