<svg width="19" height="9" viewBox="0 0 19 9" fill="none" xmlns="http://www.w3.org/2000/svg">
<path d="M0.0430431 0.805943C0.873697 -0.201063 1.62284 -0.270643 2.66231 0.632374L8.90092 5.84097C9.10881 6.01454 9.27549 6.1537 9.5246 6.32727C9.73249 6.1537 9.94038 6.01454 10.1483 5.84097L16.3448 0.666782C16.5468 0.486629 16.7698 0.323726 17.0106 0.180484C17.2549 0.0457965 17.5492 -0.010729 17.8395 0.0213001C18.1297 0.0533292 18.3964 0.17176 18.5904 0.354817C18.809 0.50967 18.9512 0.726602 18.9895 0.963793C19.0279 1.20099 18.9598 1.44164 18.7983 1.63938C18.6266 1.84009 18.4315 2.02605 18.2158 2.19449L10.8132 8.37492C9.81492 9.20836 9.19124 9.20836 8.19299 8.37492L0.790357 2.19449C0.504677 1.94431 0.240566 1.67755 -6.10312e-08 1.39623C0.0362987 1.20101 0.0507087 1.00339 0.0430431 0.805943Z" fill="#171736"/>
</svg>
