<svg width="13" height="7" viewBox="0 0 13 7" fill="none" xmlns="http://www.w3.org/2000/svg">
<path d="M0.0294504 0.626844C0.597794 -0.156382 1.11037 -0.2105 1.82158 0.491846L6.0901 4.54298C6.23235 4.67797 6.34639 4.78621 6.51683 4.92121C6.65907 4.78621 6.80131 4.67797 6.94356 4.54298L11.1833 0.518609C11.3215 0.37849 11.4741 0.251787 11.6388 0.140376C11.806 0.0356195 12.0074 -0.00834481 12.206 0.0165667C12.4045 0.0414783 12.587 0.133591 12.7197 0.275969C12.8693 0.39641 12.9666 0.565135 12.9928 0.749617C13.0191 0.9341 12.9725 1.12128 12.862 1.27507C12.7445 1.43118 12.611 1.57581 12.4634 1.70683L7.39848 6.51383C6.71547 7.16206 6.28874 7.16206 5.60573 6.51383L0.54077 1.70683C0.345305 1.51224 0.164597 1.30476 -4.74687e-08 1.08596C0.0248355 0.934121 0.0346956 0.780418 0.0294504 0.626844Z" fill="white"/>
</svg>
