<svg width="15" height="7" viewBox="0 0 15 7" fill="none" xmlns="http://www.w3.org/2000/svg">
<path d="M0.263181 1.28269C0.879735 0.60643 1.43579 0.559702 2.20733 1.16613L6.83794 4.66401C6.99225 4.78058 7.11597 4.87403 7.30087 4.99059C7.45517 4.87403 7.60948 4.78058 7.76379 4.66401L12.3631 1.18924C12.5131 1.06826 12.6787 0.958856 12.8573 0.862661C13.0387 0.77221 13.2571 0.73425 13.4726 0.755759C13.688 0.777269 13.8859 0.856802 14.0299 0.979736C14.1922 1.08373 14.2977 1.22941 14.3262 1.3887C14.3547 1.54799 14.3041 1.70961 14.1842 1.8424C14.0569 1.97719 13.912 2.10207 13.7519 2.21519L8.25731 6.36572C7.51635 6.92542 7.05343 6.92542 6.31248 6.36572L0.817875 2.21519C0.605829 2.04717 0.409792 1.86803 0.231233 1.67911C0.258175 1.54801 0.26887 1.41529 0.263181 1.28269Z" fill="#2982BA"/>
</svg>
