<svg width="30" height="30" viewBox="0 0 30 30" fill="none" xmlns="http://www.w3.org/2000/svg">
<circle cx="15" cy="15" r="15" fill="#3A8CC1"/>
<path fill-rule="evenodd" clip-rule="evenodd" d="M20.0543 13.2065C19.9539 13.3069 19.9037 13.3572 19.8564 13.3943C19.494 13.6786 18.9842 13.6786 18.6218 13.3943C18.5745 13.3572 18.5243 13.3069 18.4239 13.2065L17.4457 12.2283C17.3452 12.1279 17.295 12.0777 17.2579 12.0304C16.9736 11.668 16.9736 11.1582 17.2579 10.7958C17.295 10.7485 17.3452 10.6983 17.4457 10.5978C17.5461 10.4974 17.5963 10.4472 17.6436 10.4101C18.006 10.1257 18.5158 10.1257 18.8782 10.4101C18.9255 10.4472 18.9757 10.4974 19.0761 10.5978L20.0543 11.5761C20.1548 11.6765 20.205 11.7267 20.2421 11.774C20.5264 12.1364 20.5264 12.6462 20.2421 13.0086C20.205 13.0559 20.1548 13.1061 20.0543 13.2065ZM12.2794 20.2174C11.4867 20.2174 11.0904 20.2174 10.819 20.0053C10.7548 19.9552 10.697 19.8974 10.6469 19.8332C10.4348 19.5618 10.4348 19.1655 10.4348 18.3728C10.4348 18.028 10.4348 17.8555 10.4893 17.6973C10.5025 17.6588 10.5181 17.6212 10.536 17.5846C10.6093 17.4342 10.7312 17.3123 10.9751 17.0684L14.6739 13.3696C15.2344 12.8091 15.5147 12.5288 15.8565 12.4869C15.9374 12.477 16.0191 12.477 16.1 12.4869C16.4418 12.5288 16.7221 12.8091 17.2826 13.3696C17.8431 13.9301 18.1234 14.2104 18.1653 14.5522C18.1752 14.6331 18.1752 14.7148 18.1653 14.7957C18.1234 15.1375 17.8431 15.4178 17.2826 15.9783L13.5838 19.6771C13.3399 19.921 13.218 20.0429 13.0676 20.1162C13.031 20.1341 12.9934 20.1497 12.9549 20.1629C12.7966 20.2174 12.6242 20.2174 12.2794 20.2174Z" fill="white"/>
</svg>
