<svg width="29" height="29" viewBox="0 0 29 29" fill="none" xmlns="http://www.w3.org/2000/svg">
<g clip-path="url(#clip0)">
<path d="M14.4282 28.9663C22.3967 28.9663 28.8564 22.5066 28.8564 14.5381C28.8564 6.5696 22.3967 0.109863 14.4282 0.109863C6.45973 0.109863 0 6.5696 0 14.5381C0 22.5066 6.45973 28.9663 14.4282 28.9663Z" fill="#FFD93B"/>
<path d="M28.856 14.5381C28.856 22.5097 22.3948 28.9663 14.4278 28.9663C9.89188 28.9663 5.84297 26.8742 3.19629 23.5963C5.67163 25.5982 8.82329 26.7931 12.2545 26.7931C20.2216 26.7931 26.6827 20.3365 26.6827 12.3649C26.6827 8.93365 25.4879 5.78198 23.486 3.30664C26.7594 5.95332 28.856 10.0022 28.856 14.5381Z" fill="#F4C534"/>
<path d="M21.8882 17.5401C23.1561 17.8872 21.1244 24.6288 14.4279 24.6784C7.73137 24.6288 5.69969 17.8872 6.96758 17.5401C7.98116 17.0405 10.7 19.8089 14.4279 19.8089C18.2072 19.808 20.8746 17.0405 21.8882 17.5401Z" fill="#3E4347"/>
<path d="M9.76975 14.5823C9.6913 14.6787 9.55964 14.7022 9.45143 14.6427C8.63984 14.2161 5.37546 12.3883 5.06255 10.6866C4.86416 9.61083 5.57385 8.5765 6.64965 8.37811C7.42517 8.23383 8.17633 8.56478 8.61549 9.17167C8.80216 8.45025 9.39101 7.87312 10.1665 7.73515C11.2423 7.53677 12.2703 8.24645 12.4687 9.32226C12.7816 11.023 10.3766 13.8906 9.76975 14.5823Z" fill="#E24B4B"/>
<path d="M10.1122 14.1791C9.97427 14.3478 9.85343 14.4857 9.76957 14.5822C9.69111 14.6787 9.55945 14.7022 9.45124 14.6426C8.63966 14.2161 5.37527 12.3882 5.06236 10.6866C4.88201 9.71901 5.43479 8.78658 6.33114 8.46826C5.87395 8.91283 5.63949 9.57473 5.76573 10.2474C6.07233 11.9247 9.24023 13.7219 10.1122 14.1791Z" fill="#D03F3F"/>
<g opacity="0.2">
<path opacity="0.2" d="M11.5717 9.09352C11.4139 8.69164 11.0665 8.45201 10.7958 8.55828C10.5251 8.66456 10.4335 9.0765 10.5913 9.47838C10.7491 9.88027 11.0964 10.1199 11.3671 10.0136C11.6379 9.90735 11.7294 9.49541 11.5717 9.09352Z" fill="white"/>
</g>
<path d="M18.7543 14.5823C18.8327 14.6787 18.9644 14.7022 19.0726 14.6427C19.8842 14.2161 23.1486 12.3883 23.4615 10.6866C23.6599 9.61083 22.9502 8.5765 21.8744 8.37811C21.0989 8.23383 20.3477 8.56478 19.9085 9.17167C19.7219 8.45025 19.133 7.87312 18.3575 7.73515C17.2817 7.53677 16.2537 8.24645 16.0553 9.32226C15.7424 11.023 18.1465 13.8906 18.7543 14.5823Z" fill="#E24B4B"/>
<path d="M18.4111 14.1791C18.5491 14.3478 18.6699 14.4857 18.7538 14.5822C18.8323 14.6787 18.9639 14.7022 19.0721 14.6426C19.8837 14.2161 23.1481 12.3882 23.461 10.6866C23.6414 9.71901 23.0886 8.78658 22.1922 8.46826C22.6494 8.91283 22.8839 9.57473 22.7576 10.2474C22.451 11.9247 19.2822 13.7219 18.4111 14.1791Z" fill="#D03F3F"/>
<g opacity="0.2">
<path opacity="0.2" d="M17.7257 8.5595C17.4549 8.45322 17.1076 8.69286 16.9498 9.09474C16.7921 9.49662 16.8836 9.90857 17.1543 10.0148C17.4251 10.1211 17.7724 9.88148 17.9302 9.4796C18.088 9.07772 17.9964 8.66577 17.7257 8.5595Z" fill="white"/>
</g>
<path d="M14.428 24.6783C15.7212 24.6684 16.8384 24.4078 17.7934 23.9939C17.577 23.3581 17.1883 22.8035 16.677 22.3878C16.2667 22.0497 15.7031 21.9883 15.1963 22.1525C14.9042 22.2444 14.5759 22.3012 14.2125 22.3012C13.9303 22.3012 13.6696 22.2652 13.4289 22.2093C12.8806 22.0713 12.3071 22.2345 11.9076 22.6349C11.5298 23.0127 11.2403 23.4781 11.0645 23.9957C12.0194 24.4087 13.1358 24.6693 14.428 24.6783Z" fill="#E24B4B"/>
</g>
<defs>
<clipPath id="clip0">
<rect y="0.109863" width="28.8564" height="28.8564" fill="white"/>
</clipPath>
</defs>
</svg>
