<svg width="19" height="20" viewBox="0 0 19 20" fill="none" xmlns="http://www.w3.org/2000/svg">
<g clip-path="url(#clip0)">
<path d="M9.33805 19.1505C14.3926 19.1505 18.4901 15.053 18.4901 9.99845C18.4901 4.94393 14.3926 0.846436 9.33805 0.846436C4.28353 0.846436 0.186035 4.94393 0.186035 9.99845C0.186035 15.053 4.28353 19.1505 9.33805 19.1505Z" fill="#FFD93B"/>
<path d="M18.4901 9.99841C18.4901 15.0549 14.3918 19.1504 9.33813 19.1504C6.46097 19.1504 3.89269 17.8234 2.21387 15.7442C3.78401 17.014 5.78315 17.7719 7.95961 17.7719C13.0132 17.7719 17.1116 13.6764 17.1116 8.61989C17.1116 6.44343 16.3537 4.44429 15.0839 2.87415C17.1602 4.55297 18.4901 7.12125 18.4901 9.99841Z" fill="#F4C534"/>
<path d="M14.0702 11.9026C14.8744 12.1229 13.5857 16.3991 9.33802 16.4306C5.09034 16.3991 3.80162 12.1229 4.60586 11.9026C5.24878 11.5858 6.97337 13.3418 9.33802 13.3418C11.7353 13.3412 13.4273 11.5858 14.0702 11.9026Z" fill="#3E4347"/>
<path d="M6.38291 10.0265C6.33314 10.0877 6.24963 10.1026 6.18099 10.0649C5.66619 9.7943 3.59555 8.63485 3.39707 7.55548C3.27123 6.87309 3.72139 6.217 4.40379 6.09116C4.89571 5.99964 5.37218 6.20956 5.65075 6.59452C5.76915 6.13692 6.14267 5.77084 6.63459 5.68332C7.31698 5.55748 7.96906 6.00765 8.0949 6.69004C8.29339 7.76884 6.76786 9.58781 6.38291 10.0265Z" fill="#E24B4B"/>
<path d="M6.60028 9.77079C6.51277 9.87776 6.43612 9.96527 6.38292 10.0265C6.33316 10.0877 6.24965 10.1026 6.18101 10.0648C5.66621 9.79425 3.59556 8.6348 3.39708 7.55544C3.28268 6.94168 3.63332 6.35023 4.20188 6.14832C3.91188 6.43031 3.76316 6.85016 3.84324 7.27687C4.03772 8.34079 6.04716 9.48079 6.60028 9.77079Z" fill="#D03F3F"/>
<g opacity="0.2">
<path opacity="0.2" d="M7.52612 6.54492C7.42604 6.29 7.20571 6.13799 7.03399 6.20541C6.86226 6.27282 6.80418 6.53412 6.90425 6.78904C7.00432 7.04396 7.22466 7.19596 7.39638 7.12855C7.5681 7.06114 7.62619 6.79984 7.52612 6.54492Z" fill="white"/>
</g>
<path d="M12.0818 10.0265C12.1315 10.0877 12.2151 10.1026 12.2837 10.0649C12.7985 9.7943 14.8691 8.63485 15.0676 7.55548C15.1935 6.87309 14.7433 6.217 14.0609 6.09116C13.569 5.99964 13.0925 6.20956 12.8139 6.59452C12.6955 6.13692 12.322 5.77084 11.8301 5.68332C11.1477 5.55748 10.4956 6.00765 10.3698 6.69004C10.1713 7.76884 11.6963 9.58781 12.0818 10.0265Z" fill="#E24B4B"/>
<path d="M11.8647 9.77079C11.9523 9.87776 12.0289 9.96527 12.0821 10.0265C12.1319 10.0877 12.2154 10.1026 12.284 10.0648C12.7988 9.79425 14.8695 8.6348 15.0679 7.55544C15.1823 6.94168 14.8317 6.35023 14.2631 6.14832C14.5531 6.43031 14.7019 6.85016 14.6218 7.27687C14.4273 8.34079 12.4173 9.48079 11.8647 9.77079Z" fill="#D03F3F"/>
<g opacity="0.2">
<path opacity="0.2" d="M11.4294 6.20614C11.2577 6.13872 11.0373 6.29073 10.9373 6.54565C10.8372 6.80057 10.8953 7.06187 11.067 7.12928C11.2387 7.19669 11.4591 7.04469 11.5591 6.78977C11.6592 6.53485 11.6011 6.27355 11.4294 6.20614Z" fill="white"/>
</g>
<path d="M9.33815 16.4306C10.1584 16.4243 10.8671 16.259 11.4729 15.9965C11.3356 15.5932 11.089 15.2414 10.7647 14.9777C10.5045 14.7632 10.147 14.7243 9.8255 14.8284C9.64017 14.8868 9.43196 14.9228 9.20144 14.9228C9.02241 14.9228 8.8571 14.8999 8.70437 14.8645C8.3566 14.7769 7.99281 14.8805 7.73941 15.1345C7.49974 15.3741 7.31613 15.6693 7.20459 15.9976C7.81034 16.2596 8.51847 16.4249 9.33815 16.4306Z" fill="#E24B4B"/>
</g>
<defs>
<clipPath id="clip0">
<rect x="0.186035" y="0.846436" width="18.304" height="18.304" fill="white"/>
</clipPath>
</defs>
</svg>
