<svg width="49" height="49" viewBox="0 0 49 49" fill="none" xmlns="http://www.w3.org/2000/svg">
<circle cx="24.5" cy="24.5" r="24.5" fill="#C4C4C4"/>
<circle cx="24.5" cy="24.5" r="24.5" fill="url(#paint0_linear)"/>
<path d="M38.8842 32.944L38.8841 32.9444C38.8745 33.0271 38.8041 33.0904 38.7198 33.0904H10.9839C10.8997 33.0904 10.8296 33.0274 10.8201 32.9448L10.82 32.9435L8.99094 17.2215L38.8842 32.944ZM38.8842 32.944L40.7132 17.2216C40.7132 17.2216 40.7132 17.2215 40.7132 17.2215C40.7211 17.153 40.6859 17.0867 40.625 17.055C40.5624 17.0231 40.4882 17.0341 40.439 17.0786L40.4381 17.0795M38.8842 32.944L40.4381 17.0795M40.4381 17.0795L33.3707 23.4605L32.7006 24.0655M40.4381 17.0795L32.7006 24.0655M32.7006 24.0655L32.0304 23.4605M32.7006 24.0655L32.0304 23.4605M32.0304 23.4605L24.9631 17.0795L24.963 17.0793M32.0304 23.4605L24.963 17.0793M24.963 17.0793C24.9008 17.0232 24.805 17.0221 24.7408 17.0797C24.7406 17.0798 24.7405 17.0799 24.7404 17.08L17.6742 23.4604L17.0041 24.0656M24.963 17.0793L17.0041 24.0656M17.0041 24.0656L16.3339 23.4605M17.0041 24.0656L16.3339 23.4605M16.3339 23.4605L9.26707 17.0799M16.3339 23.4605L9.26707 17.0799M9.26707 17.0799C9.26697 17.0798 9.26686 17.0797 9.26675 17.0796M9.26707 17.0799L9.26675 17.0796M9.26675 17.0796C9.21452 17.0328 9.14044 17.0237 9.07939 17.0551C9.01836 17.0868 8.98309 17.1533 8.99092 17.2213L9.26675 17.0796ZM38.6752 31.8747L38.5723 32.7592H37.6819H12.0213H11.1309L11.028 31.8747L9.67682 20.2568L9.3702 17.6204L11.3403 19.3991L16.8917 24.4111C16.9552 24.4684 17.0509 24.469 17.1155 24.411C17.1156 24.411 17.1158 24.4109 17.1159 24.4108L24.1817 18.0307L24.8518 17.4256L25.522 18.0307L32.5893 24.4117L32.5895 24.4118C32.652 24.4682 32.7482 24.4687 32.8116 24.4115L38.3634 19.3991L40.3336 17.6203L40.0269 20.2569L38.6752 31.8747Z" fill="white" stroke="white" stroke-width="2"/>
<defs>
<linearGradient id="paint0_linear" x1="24.5" y1="0" x2="24.5" y2="49" gradientUnits="userSpaceOnUse">
<stop stop-color="#3B8EC2"/>
<stop offset="1" stop-color="#68AED8"/>
</linearGradient>
</defs>
</svg>
