<svg width="24" height="24" viewBox="0 0 24 24" fill="none" xmlns="http://www.w3.org/2000/svg">
<path d="M23 5.00002H20.337C19.904 6.441 18.58 7.5 17 7.5C15.42 7.5 14.097 6.441 13.663 5.00002H0.999984C0.447984 5.00002 0 4.55198 0 3.99998C0 3.44798 0.447984 3 0.999984 3H13.663C14.096 1.55902 15.42 0.500015 17 0.500015C18.5799 0.500015 19.903 1.55902 20.337 3H23C23.553 3 24 3.44798 24 3.99998C24 4.55198 23.553 5.00002 23 5.00002ZM17 2.49998C16.173 2.49998 15.5 3.17297 15.5 3.99998C15.5 4.827 16.173 5.49998 17 5.49998C17.827 5.49998 18.5 4.827 18.5 3.99998C18.5 3.17297 17.827 2.49998 17 2.49998Z" fill="black"/>
<path d="M23 21H20.337C19.903 22.441 18.58 23.5 17 23.5C15.42 23.5 14.097 22.441 13.663 21H0.999984C0.447984 21 0 20.552 0 20C0 19.448 0.447984 19 0.999984 19H13.663C14.097 17.559 15.42 16.5 17 16.5C18.58 16.5 19.903 17.559 20.337 19H23C23.553 19 24 19.448 24 20C24 20.552 23.553 21 23 21ZM17 18.5C16.173 18.5 15.5 19.173 15.5 20C15.5 20.827 16.173 21.5 17 21.5C17.827 21.5 18.5 20.827 18.5 20C18.5 19.173 17.827 18.5 17 18.5Z" fill="black"/>
<path d="M23 13H10.337C9.903 14.441 8.58 15.5 7.00003 15.5C5.42006 15.5 4.09702 14.441 3.66305 13H0.999984C0.447984 13 0 12.552 0 12C0 11.448 0.447984 11 0.999984 11H3.663C4.09702 9.55905 5.42002 8.50005 6.99998 8.50005C8.57995 8.50005 9.903 9.55905 10.337 11H23C23.553 11 24 11.448 24 12C24 12.552 23.553 13 23 13ZM6.99998 10.5C6.17297 10.5 5.49998 11.173 5.49998 12C5.49998 12.827 6.17297 13.5 6.99998 13.5C7.827 13.5 8.49998 12.827 8.49998 12C8.49998 11.173 7.827 10.5 6.99998 10.5Z" fill="black"/>
</svg>
