<svg width="35" height="43" viewBox="0 0 35 43" fill="none" xmlns="http://www.w3.org/2000/svg">
<path d="M34.1876 20.6389L34.2102 21.042L34.3913 24.2726C34.4096 24.5977 34.4188 24.9198 34.4188 25.2298C34.4188 34.4897 26.942 42.0344 17.7084 42.1473M34.1876 20.6389L17.7056 41.9973M34.1876 20.6389L33.9415 20.9589L31.9693 23.5241C31.8677 23.6562 31.6846 23.8615 31.4467 24.0804C31.5624 23.6366 31.6636 23.1522 31.7373 22.6322L31.5888 22.6112L31.7373 22.6322C32.0863 20.1663 31.8668 16.3884 28.8616 12.3759L27.6124 10.7081L27.4565 10.5L27.3544 10.7391L26.5358 12.6554C26.0708 13.7441 25.4672 14.5486 24.8181 15.0198C24.172 15.4888 23.4858 15.6257 22.8313 15.3978L22.8313 15.3978C21.8094 15.0422 20.9412 13.8529 20.49 12.0703C20.0721 10.4188 19.8229 7.48922 21.0551 2.96731L21.5804 1.03943L21.646 0.79887L21.4027 0.853667L19.4534 1.29281C12.8143 2.7884 8.34565 7.5075 6.52663 14.9073C5.80304 17.851 5.63615 20.6464 5.63879 22.6233M34.1876 20.6389L5.63879 22.6233M17.7084 42.1473C17.7081 42.1473 17.7077 42.1473 17.7074 42.1473L17.7056 41.9973M17.7084 42.1473C17.7087 42.1473 17.7091 42.1473 17.7094 42.1473L17.7056 41.9973M17.7084 42.1473C17.6387 42.1491 17.5688 42.1499 17.4987 42.1499C17.4285 42.1499 17.3587 42.1491 17.2889 42.1473M17.7056 41.9973C17.6368 41.9991 17.5678 41.9999 17.4987 41.9999C17.4295 41.9999 17.3605 41.9991 17.2917 41.9973M17.2889 42.1473C17.2892 42.1473 17.2896 42.1473 17.2899 42.1473L17.2917 41.9973M17.2889 42.1473C8.05536 42.0344 0.578516 34.4897 0.578516 25.2298C0.578516 23.7613 0.767958 22.3008 1.14182 20.8889L1.81591 18.3431L1.90002 18.0254L2.08492 18.2971L3.56384 20.4699C3.56396 20.4701 3.56411 20.4703 3.56431 20.4706C3.58874 20.5054 4.27441 21.4745 5.63879 22.6233M17.2889 42.1473C17.2886 42.1473 17.2882 42.1473 17.2879 42.1473L17.2917 41.9973M17.2917 41.9973L5.63879 22.6233M19.8198 31.3912L19.8198 31.3912C20.3167 31.4465 21.1276 31.407 21.985 30.8326C22.6225 31.7452 22.9741 32.8401 22.9741 33.9702C22.9741 36.9893 20.5176 39.4455 17.4987 39.4455C14.4797 39.4455 12.0234 36.9892 12.0234 33.9702C12.0234 31.2883 12.6572 29.3571 13.5297 27.9676C14.324 26.7027 15.3205 25.8794 16.2315 25.3464C16.056 26.6373 16.2832 27.8486 16.6858 28.7703L16.8233 28.7103L16.6858 28.7703C17.3323 30.2503 18.4972 31.2434 19.8198 31.3912ZM20.9694 28.0869L21.0902 28.1758L20.9694 28.0869C20.8728 28.2182 20.7328 28.3873 20.5742 28.5167C20.4113 28.6496 20.2554 28.7191 20.1206 28.7037L20.1203 28.7037C20.0088 28.6912 19.8467 28.6162 19.6692 28.4469C19.4942 28.28 19.3135 28.0297 19.1642 27.6878L19.1642 27.6878C18.7507 26.7415 18.6641 25.2369 19.6766 23.8648L19.5559 23.7757L19.6766 23.8648L21.3408 21.6096L21.5485 21.3282L21.2015 21.3717L18.4205 21.7202L18.4205 21.7202C18.3149 21.7334 16.057 22.0335 13.8177 23.7165C10.0932 26.5157 9.31925 30.8508 9.31925 33.9702C9.31925 35.1658 9.57756 36.3024 10.0408 37.3273C5.98819 34.8196 3.28317 30.3346 3.28317 25.2297C3.28317 24.8817 3.29583 24.5343 3.32101 24.1883C4.11281 24.9128 5.14611 25.7285 6.43 26.4902L6.43003 26.4902L8.51902 27.7288L8.77964 27.8833L8.74451 27.5824L8.46289 25.1698C8.45815 25.129 7.93393 20.4581 9.16807 15.4922C10.5513 9.92567 13.4885 6.27456 17.9043 4.57631C17.309 7.66164 17.2904 10.4497 17.8686 12.7339C18.5339 15.3624 20.0088 17.2791 21.9429 17.9519C23.2882 18.42 24.7359 18.2443 26.0162 17.465C26.6923 17.0534 27.3062 16.4838 27.8413 15.7808C28.9463 17.841 29.3589 19.9751 29.0738 22.1504C28.7979 24.2553 27.9378 25.637 27.919 25.6671C27.9187 25.6674 27.9186 25.6676 27.9186 25.6676L26.8911 27.2439L26.7628 27.4408L26.9954 27.4743L28.8595 27.7429L28.8809 27.5944L28.8595 27.7429C29.7497 27.8711 30.6705 27.7028 31.5699 27.2614C30.959 31.5099 28.4619 35.1577 24.9571 37.3266C25.4201 36.3019 25.6784 35.1656 25.6784 33.9702C25.6784 31.6512 24.6882 29.4323 22.9618 27.8822L22.8616 27.9938L22.9618 27.8822L21.9758 26.9971L21.8528 26.8867L21.7548 27.0198L20.9694 28.0869Z" fill="#DEDEDE" stroke="#DEDEDE" stroke-width="0.3"/>
</svg>
