<svg width="69" height="64" viewBox="0 0 69 64" fill="none" xmlns="http://www.w3.org/2000/svg">
<path d="M68.3932 31.6664C68.2633 28.5947 66.3242 25.8151 63.2061 24.2341L16.0806 1.22891C12.73 -0.408751 8.72191 -0.410522 5.36088 1.22891C2.00405 2.86834 0 5.80197 0 9.07906V54.9212C0 58.1983 2.00405 61.1319 5.36088 62.7713C7.00684 63.5751 8.86012 64 10.7218 64C12.5834 64 14.4367 63.5751 16.0827 62.7713L63.0386 39.8511C66.3954 38.2135 68.3994 35.2781 68.3994 32.001C68.4015 31.8895 68.3973 31.7779 68.3932 31.6664ZM60.9801 36.8343L14.0221 59.7545C11.9552 60.7636 9.48625 60.7636 7.42147 59.7562C5.3546 58.7471 4.11909 56.9395 4.11909 54.9212V9.07906C4.11909 7.06075 5.35251 5.2549 7.42147 4.24398C8.45596 3.7394 9.58886 3.488 10.7239 3.488C11.8568 3.488 12.9897 3.74117 14.0242 4.24398L58.5698 25.9886C56.0778 28.7629 49.3851 35.6216 47.2093 37.1973C45.3183 38.5658 43.8148 39.1784 42.931 38.9376C42.8724 38.7818 42.7907 38.4171 42.8222 37.6399C42.8557 36.7458 43.1111 35.4516 43.5823 33.7891C44.0556 32.1108 44.6712 30.381 45.4293 28.6088C45.5319 28.3025 45.557 28.014 45.5005 27.7449C45.4398 27.4722 45.2974 27.2155 45.0775 26.9818C44.8409 26.7322 44.5414 26.5551 44.1833 26.4542C43.6786 26.3126 43.1551 26.3373 42.6756 26.5286C42.1814 26.7233 41.8296 27.0597 41.6641 27.4811C41.1595 28.6407 40.7008 29.818 40.303 30.9812C39.9093 32.1338 39.524 33.4811 39.1575 34.9895C39.0172 35.5667 38.9188 36.1226 38.8601 36.6537C38.8245 36.6927 38.791 36.7316 38.7617 36.7723C38.2068 37.3885 37.7963 37.6222 37.5367 37.7071C37.455 37.4345 37.3168 36.8963 37.1137 35.8375C36.9671 35.0373 36.8498 34.4389 36.7577 34.0405C36.6634 33.6245 36.5085 33.1058 36.2844 32.4578C36.0499 31.7797 35.8174 31.2733 35.5682 30.9069C35.3023 30.5138 34.9358 30.1668 34.4793 29.8729C33.2438 29.078 31.5664 29.2303 30.1529 30.489C29.4388 31.1246 28.4671 32.1745 27.1751 33.7042C26.128 34.9807 25.393 35.8198 24.8779 36.3705C24.8904 35.6109 24.9428 34.5044 25.0663 32.8986C25.2841 30.705 25.3574 28.993 25.2841 27.8068C25.2003 26.4861 24.8695 25.5796 24.2538 25.0184C23.2466 24.1668 21.8016 24.0606 20.1955 25.2662C19.5149 25.7779 18.7484 26.5038 17.915 27.4279C17.0983 28.3326 15.8376 29.7826 14.1582 31.7478C13.1488 32.9694 12.2442 34.0423 11.4463 34.9629C12.3154 33.1022 13.3876 31.0538 14.6461 28.839C14.9351 28.3981 14.9791 27.9254 14.7697 27.4722C14.5791 27.0579 14.2336 26.7286 13.7687 26.5215C13.2682 26.2984 12.7216 26.2701 12.1939 26.4453C11.7165 26.6029 11.3374 26.8649 11.0254 27.2952C10.4495 28.3309 9.81921 29.494 9.13654 30.7865C8.45177 32.0842 7.60994 33.9148 6.63828 36.2235C5.62265 38.6419 5.18707 40.338 5.30644 41.4074C5.36298 41.9686 5.66662 42.4165 6.18177 42.7069C6.52311 42.8998 6.90214 42.9972 7.3063 42.9972C7.55131 42.9972 7.79422 42.9512 8.02667 42.8609C8.78683 42.6343 9.65378 42.0854 10.6799 41.1861C11.6495 40.3362 12.619 39.366 13.5635 38.3073C14.4953 37.2628 15.8041 35.7349 17.4522 33.7661C19.0479 31.8558 20.3148 30.3881 21.2446 29.379C21.2195 30.2323 21.1608 31.3265 21.0687 32.649C20.8111 34.9594 20.7483 36.6502 20.8802 37.8187C21.0331 39.1784 21.5378 40.0441 22.4864 40.485C22.878 40.6337 23.2591 40.7257 23.6172 40.7629C24.0193 40.8072 24.436 40.7647 24.8569 40.6408C25.2003 40.5363 25.527 40.4177 25.8223 40.2831C26.1678 40.1273 26.5301 39.8777 26.9322 39.5218C27.2756 39.2156 27.5562 38.9624 27.774 38.7641C28.0085 38.5499 28.3247 38.2188 28.71 37.7815C29.0954 37.3477 29.3885 37.006 29.5896 36.7582L30.4691 35.6764C31.3947 34.5858 32.0062 33.8901 32.4103 33.4457C32.5925 33.9963 32.8333 34.8957 33.1286 36.3598C33.3527 37.5212 33.5432 38.3321 33.7128 38.842C33.9202 39.4599 34.2175 39.9025 34.607 40.1911C35.5619 40.9258 36.6278 41.2427 37.7649 41.1312C38.3303 41.094 38.8957 40.9559 39.4444 40.724C39.4611 40.7169 39.4758 40.708 39.4925 40.701C39.8129 41.2091 40.2485 41.6057 40.8055 41.8836C41.5531 42.2005 42.374 42.3616 43.2452 42.3616C44.5582 42.3616 46.0115 41.9721 47.559 41.2038C49.0458 40.4655 50.4761 39.4953 51.81 38.3197C53.1084 37.176 54.1449 36.2058 54.8904 35.4392C55.5061 34.8036 60.555 29.3931 62.0166 27.7873C63.4553 28.8337 64.2866 30.3474 64.2866 32.001C64.2804 34.0193 63.0469 35.8252 60.9801 36.8343Z" fill="#3689C0"/>
<ellipse cx="45.6011" cy="23.0397" rx="3.04007" ry="2.55992" fill="#3689C0"/>
</svg>
