<svg width="33" height="33" viewBox="0 0 33 33" fill="none" xmlns="http://www.w3.org/2000/svg">
<g clip-path="url(#clip0)">
<path d="M9.62376 12.9211H6.8357C6.45095 12.9211 6.13867 13.2334 6.13867 13.6182V19.1942C6.13867 19.579 6.45095 19.8913 6.8357 19.8913C7.22045 19.8913 7.53273 19.579 7.53273 19.1942V14.3151H9.62376C10.0085 14.3151 10.3208 14.0029 10.3208 13.6181C10.3208 13.2334 10.0085 12.9211 9.62376 12.9211Z" fill="white"/>
<path d="M8.2297 15.7092H6.8357C6.45095 15.7092 6.13867 16.0215 6.13867 16.4063C6.13867 16.791 6.45095 17.1032 6.8357 17.1032H8.2297C8.61445 17.1032 8.92673 16.791 8.92673 16.4062C8.92673 16.0214 8.61445 15.7092 8.2297 15.7092Z" fill="white"/>
<path d="M16.5937 0.375C7.75427 0.375 0.5625 7.56677 0.5625 16.4062C0.5625 25.2457 7.75427 32.4374 16.5937 32.4374C25.4332 32.4374 32.6249 25.2457 32.6249 16.4062C32.6249 7.56677 25.4332 0.375 16.5937 0.375ZM16.5937 31.0434C8.52234 31.0434 1.9565 24.4776 1.9565 16.4062C1.9565 8.33484 8.52234 1.769 16.5937 1.769C24.6651 1.769 31.2309 8.33484 31.2309 16.4062C31.2309 24.4776 24.6651 31.0434 16.5937 31.0434Z" fill="white"/>
<path d="M25.8345 8.99985C23.5692 6.17696 20.2013 4.55713 16.5935 4.55713C12.9858 4.55713 9.61785 6.17696 7.35254 8.99985C7.11135 9.29959 7.15879 9.7387 7.4599 9.97982C7.75964 10.221 8.19875 10.1736 8.4385 9.87246C10.4389 7.37995 13.411 5.95106 16.5935 5.95106C19.7761 5.95106 22.7481 7.37995 24.7472 9.87246C24.8852 10.0439 25.0873 10.1331 25.2908 10.1331C25.4456 10.1331 25.5989 10.0829 25.7272 9.97976C26.0283 9.7387 26.0757 9.29959 25.8345 8.99985Z" fill="white"/>
<path d="M25.1587 23.5673C24.8827 23.3039 24.4394 23.315 24.1745 23.5938C22.1741 25.7002 19.4823 26.8614 16.5938 26.8614C13.7054 26.8614 11.0136 25.7001 9.01456 23.5938C8.75109 23.3122 8.30779 23.3039 8.0304 23.5673C7.74883 23.8322 7.73903 24.2741 8.00393 24.5529C10.2692 26.9409 13.3193 28.2554 16.5939 28.2554C19.8684 28.2554 22.9185 26.9409 25.1852 24.5529C25.4501 24.2741 25.4389 23.8322 25.1587 23.5673Z" fill="white"/>
<path d="M14.0763 17.0851C15.1023 16.9527 15.8969 16.073 15.8969 15.0122C15.8969 13.8593 14.9588 12.9211 13.8059 12.9211H12.4119C12.0271 12.9211 11.7148 13.2334 11.7148 13.6182V16.4006C11.7148 16.4034 11.7148 16.4076 11.7148 16.4104V19.1942C11.7148 19.579 12.0271 19.8913 12.4119 19.8913C12.7966 19.8913 13.1089 19.579 13.1089 19.1942V18.0888L14.7065 19.6877C14.8431 19.8229 15.0215 19.8913 15.1999 19.8913C15.3784 19.8913 15.5568 19.823 15.6921 19.6864C15.9639 19.4145 15.9639 18.9726 15.6921 18.7008L14.0763 17.0851ZM13.1089 15.7092V14.3152H13.8059C14.1893 14.3152 14.503 14.6275 14.503 15.0122C14.503 15.397 14.1893 15.7093 13.8059 15.7093H13.1089V15.7092Z" fill="white"/>
<path d="M20.7756 18.4972H18.6846V14.3151H20.7756C21.1604 14.3151 21.4727 14.0029 21.4727 13.6181C21.4727 13.2334 21.1604 12.9211 20.7756 12.9211H17.9876C17.6028 12.9211 17.2905 13.2334 17.2905 13.6182V19.1942C17.2905 19.579 17.6028 19.8913 17.9876 19.8913H20.7756C21.1604 19.8913 21.4727 19.579 21.4727 19.1942C21.4727 18.8095 21.1604 18.4972 20.7756 18.4972Z" fill="white"/>
<path d="M19.3816 15.7092H17.9876C17.6028 15.7092 17.2905 16.0215 17.2905 16.4063C17.2905 16.791 17.6028 17.1032 17.9876 17.1032H19.3816C19.7663 17.1032 20.0786 16.791 20.0786 16.4062C20.0786 16.0214 19.7663 15.7092 19.3816 15.7092Z" fill="white"/>
<path d="M26.3518 18.4972H24.2608V14.3151H26.3518C26.7365 14.3151 27.0488 14.0029 27.0488 13.6181C27.0488 13.2334 26.7365 12.9211 26.3518 12.9211H23.5637C23.179 12.9211 22.8667 13.2334 22.8667 13.6182V19.1942C22.8667 19.579 23.179 19.8913 23.5637 19.8913H26.3518C26.7365 19.8913 27.0488 19.579 27.0488 19.1942C27.0488 18.8095 26.7365 18.4972 26.3518 18.4972Z" fill="white"/>
<path d="M24.9577 15.7092H23.5637C23.179 15.7092 22.8667 16.0215 22.8667 16.4063C22.8667 16.791 23.179 17.1032 23.5637 17.1032H24.9577C25.3425 17.1032 25.6548 16.791 25.6548 16.4062C25.6548 16.0214 25.3425 15.7092 24.9577 15.7092Z" fill="white"/>
</g>
<defs>
<clipPath id="clip0">
<rect x="0.5625" y="0.375" width="32.0625" height="32.0625" fill="white"/>
</clipPath>
</defs>
</svg>
