<svg width="20" height="20" viewBox="0 0 20 20" fill="none" xmlns="http://www.w3.org/2000/svg">
<path d="M16.9048 19.5058H3.48142C2.07703 19.5058 0.935547 18.3643 0.935547 16.9599V3.39744C0.935547 1.99304 2.07703 0.851562 3.48142 0.851562H16.9048C18.3092 0.851562 19.4506 1.99304 19.4506 3.39744V16.9599C19.4506 18.3643 18.3092 19.5058 16.9048 19.5058ZM3.48142 2.24019C2.84355 2.24019 2.32417 2.75957 2.32417 3.39744V16.9599C2.32417 17.5978 2.84355 18.1172 3.48142 18.1172H16.9048C17.5426 18.1172 18.062 17.5978 18.062 16.9599V3.39744C18.062 2.75957 17.5426 2.24019 16.9048 2.24019H3.48142Z" fill="#3A8CC1"/>
<path d="M6.72153 12.952H5.3329C4.43958 12.952 3.71289 12.2253 3.71289 11.3318V9.01747C3.71289 8.12415 4.43958 7.39746 5.3329 7.39746H6.72153C7.10479 7.39746 7.41584 7.70851 7.41584 8.09177C7.41584 8.47504 7.10479 8.78609 6.72153 8.78609H5.3329C5.20526 8.78609 5.10152 8.88966 5.10152 9.01747V11.3318C5.10152 11.4596 5.20526 11.5633 5.3329 11.5633H6.02721V11.293C5.75701 11.1967 5.56445 10.9402 5.56445 10.6375C5.56445 10.2542 5.8755 9.94317 6.25876 9.94317H6.72153C7.10479 9.94317 7.41584 10.2542 7.41584 10.6375V12.2577C7.41584 12.6409 7.10479 12.952 6.72153 12.952Z" fill="#3A8CC1"/>
<path d="M9.73045 12.952C9.34718 12.952 9.03613 12.6409 9.03613 12.2577V8.09177C9.03613 7.70851 9.34718 7.39746 9.73045 7.39746C10.1137 7.39746 10.4248 7.70851 10.4248 8.09177V12.2577C10.4248 12.6409 10.1137 12.952 9.73045 12.952Z" fill="#3A8CC1"/>
<path d="M12.5073 12.952C12.124 12.952 11.813 12.6409 11.813 12.2577V9.01747C11.813 8.12415 12.5397 7.39746 13.433 7.39746H15.053C15.4363 7.39746 15.7473 7.70851 15.7473 8.09177C15.7473 8.47504 15.4363 8.78609 15.053 8.78609H13.433C13.3052 8.78609 13.2016 8.88966 13.2016 9.01747V12.2577C13.2016 12.6409 12.8906 12.952 12.5073 12.952Z" fill="#3A8CC1"/>
<path d="M15.053 11.1005H12.5073C12.124 11.1005 11.813 10.7895 11.813 10.4062C11.813 10.023 12.124 9.71191 12.5073 9.71191H15.053C15.4363 9.71191 15.7473 10.023 15.7473 10.4062C15.7473 10.7895 15.4363 11.1005 15.053 11.1005Z" fill="#3A8CC1"/>
</svg>
