<svg width="546" height="457" viewBox="0 0 546 457" fill="none" xmlns="http://www.w3.org/2000/svg">
<path d="M49.1828 431.01C49.1828 433.337 48.7853 435.067 47.9904 436.198C47.1955 437.33 45.953 437.896 44.2629 437.896C42.5943 437.896 41.3589 437.344 40.5568 436.241C39.7547 435.131 39.3394 433.477 39.3107 431.278V428.625C39.3107 426.326 39.7082 424.618 40.5031 423.501C41.298 422.384 42.5441 421.825 44.2414 421.825C45.9243 421.825 47.1633 422.366 47.9582 423.447C48.7531 424.521 49.1613 426.183 49.1828 428.432V431.01ZM47.1955 428.292C47.1955 426.609 46.9592 425.384 46.4865 424.618C46.0139 423.845 45.2655 423.458 44.2414 423.458C43.2245 423.458 42.4833 423.841 42.0178 424.607C41.5523 425.374 41.3124 426.552 41.298 428.142V431.321C41.298 433.011 41.5415 434.261 42.0285 435.07C42.5226 435.872 43.2674 436.273 44.2629 436.273C45.244 436.273 45.9709 435.894 46.4435 435.135C46.9234 434.376 47.174 433.18 47.1955 431.547V428.292Z" fill="black"/>
<path d="M21.1994 396.848H19.2014V383.603L15.1945 385.074V383.27L20.8879 381.132H21.1994V396.848ZM36.8293 390.177C36.8293 392.504 36.4318 394.234 35.6369 395.365C34.842 396.497 33.5995 397.062 31.9094 397.062C30.2407 397.062 29.0054 396.511 28.2033 395.408C27.4012 394.298 26.9859 392.644 26.9572 390.445V387.792C26.9572 385.493 27.3547 383.785 28.1496 382.668C28.9445 381.551 30.1906 380.992 31.8879 380.992C33.5708 380.992 34.8098 381.533 35.6047 382.614C36.3996 383.688 36.8078 385.35 36.8293 387.599V390.177ZM34.842 387.459C34.842 385.776 34.6057 384.551 34.133 383.785C33.6603 383.012 32.912 382.625 31.8879 382.625C30.871 382.625 30.1297 383.008 29.6642 383.774C29.1988 384.541 28.9588 385.719 28.9445 387.309V390.488C28.9445 392.178 29.188 393.428 29.675 394.237C30.1691 395.039 30.9139 395.44 31.9094 395.44C32.8905 395.44 33.6174 395.061 34.09 394.302C34.5698 393.543 34.8205 392.347 34.842 390.714V387.459ZM49.1828 390.177C49.1828 392.504 48.7853 394.234 47.9904 395.365C47.1955 396.497 45.953 397.062 44.2629 397.062C42.5943 397.062 41.3589 396.511 40.5568 395.408C39.7547 394.298 39.3394 392.644 39.3107 390.445V387.792C39.3107 385.493 39.7082 383.785 40.5031 382.668C41.298 381.551 42.5441 380.992 44.2414 380.992C45.9243 380.992 47.1633 381.533 47.9582 382.614C48.7531 383.688 49.1613 385.35 49.1828 387.599V390.177ZM47.1955 387.459C47.1955 385.776 46.9592 384.551 46.4865 383.785C46.0139 383.012 45.2655 382.625 44.2414 382.625C43.2245 382.625 42.4833 383.008 42.0178 383.774C41.5523 384.541 41.3124 385.719 41.298 387.309V390.488C41.298 392.178 41.5415 393.428 42.0285 394.237C42.5226 395.039 43.2674 395.44 44.2629 395.44C45.244 395.44 45.9709 395.061 46.4435 394.302C46.9234 393.543 47.174 392.347 47.1955 390.714V387.459Z" fill="black"/>
<path d="M24.9162 355.484H14.6682V354.056L20.0822 348.04C20.8843 347.131 21.4357 346.393 21.7365 345.827C22.0445 345.254 22.1984 344.663 22.1984 344.055C22.1984 343.238 21.9514 342.569 21.4572 342.046C20.9631 341.523 20.3042 341.262 19.4807 341.262C18.4924 341.262 17.7225 341.545 17.1711 342.11C16.6268 342.669 16.3547 343.45 16.3547 344.452H14.3674C14.3674 343.013 14.8293 341.849 15.7531 340.961C16.6841 340.073 17.9266 339.629 19.4807 339.629C20.9344 339.629 22.0838 340.012 22.9289 340.778C23.7739 341.537 24.1965 342.551 24.1965 343.818C24.1965 345.358 23.2154 347.191 21.2531 349.318L17.0637 353.862H24.9162V355.484ZM36.8293 348.813C36.8293 351.141 36.4318 352.87 35.6369 354.002C34.842 355.133 33.5995 355.699 31.9094 355.699C30.2407 355.699 29.0054 355.148 28.2033 354.045C27.4012 352.935 26.9859 351.281 26.9572 349.082V346.429C26.9572 344.13 27.3547 342.422 28.1496 341.305C28.9445 340.188 30.1906 339.629 31.8879 339.629C33.5708 339.629 34.8098 340.17 35.6047 341.251C36.3996 342.325 36.8078 343.987 36.8293 346.235V348.813ZM34.842 346.096C34.842 344.413 34.6057 343.188 34.133 342.422C33.6603 341.648 32.912 341.262 31.8879 341.262C30.871 341.262 30.1297 341.645 29.6642 342.411C29.1988 343.177 28.9588 344.355 28.9445 345.945V349.125C28.9445 350.815 29.188 352.065 29.675 352.874C30.1691 353.676 30.9139 354.077 31.9094 354.077C32.8905 354.077 33.6174 353.698 34.09 352.938C34.5698 352.179 34.8205 350.983 34.842 349.351V346.096ZM49.1828 348.813C49.1828 351.141 48.7853 352.87 47.9904 354.002C47.1955 355.133 45.953 355.699 44.2629 355.699C42.5943 355.699 41.3589 355.148 40.5568 354.045C39.7547 352.935 39.3394 351.281 39.3107 349.082V346.429C39.3107 344.13 39.7082 342.422 40.5031 341.305C41.298 340.188 42.5441 339.629 44.2414 339.629C45.9243 339.629 47.1633 340.17 47.9582 341.251C48.7531 342.325 49.1613 343.987 49.1828 346.235V348.813ZM47.1955 346.096C47.1955 344.413 46.9592 343.188 46.4865 342.422C46.0139 341.648 45.2655 341.262 44.2414 341.262C43.2245 341.262 42.4833 341.645 42.0178 342.411C41.5523 343.177 41.3124 344.355 41.298 345.945V349.125C41.298 350.815 41.5415 352.065 42.0285 352.874C42.5226 353.676 43.2674 354.077 44.2629 354.077C45.244 354.077 45.9709 353.698 46.4435 352.938C46.9234 352.179 47.174 350.983 47.1955 349.351V346.096Z" fill="black"/>
<path d="M17.5578 305.334H19.051C19.9891 305.32 20.7267 305.073 21.2639 304.593C21.801 304.113 22.0695 303.465 22.0695 302.648C22.0695 300.815 21.1564 299.898 19.3303 299.898C18.4709 299.898 17.7834 300.146 17.2678 300.64C16.7593 301.127 16.5051 301.775 16.5051 302.584H14.5178C14.5178 301.345 14.9689 300.317 15.8713 299.501C16.7808 298.677 17.9338 298.266 19.3303 298.266C20.8055 298.266 21.9621 298.656 22.8 299.437C23.6379 300.217 24.0568 301.302 24.0568 302.691C24.0568 303.372 23.8348 304.031 23.3908 304.668C22.954 305.305 22.356 305.782 21.5969 306.097C22.4562 306.369 23.1187 306.82 23.5842 307.45C24.0568 308.08 24.2932 308.85 24.2932 309.76C24.2932 311.163 23.8348 312.277 22.9182 313.101C22.0015 313.924 20.8091 314.336 19.341 314.336C17.8729 314.336 16.6769 313.938 15.7531 313.144C14.8364 312.349 14.3781 311.299 14.3781 309.996H16.3762C16.3762 310.82 16.6447 311.479 17.1818 311.973C17.7189 312.467 18.4387 312.714 19.341 312.714C20.3006 312.714 21.0347 312.463 21.5432 311.962C22.0516 311.461 22.3059 310.741 22.3059 309.803C22.3059 308.893 22.0266 308.195 21.468 307.708C20.9094 307.221 20.1037 306.97 19.051 306.956H17.5578V305.334ZM36.8293 307.45C36.8293 309.778 36.4318 311.507 35.6369 312.639C34.842 313.77 33.5995 314.336 31.9094 314.336C30.2407 314.336 29.0054 313.785 28.2033 312.682C27.4012 311.572 26.9859 309.917 26.9572 307.719V305.065C26.9572 302.767 27.3547 301.059 28.1496 299.941C28.9445 298.824 30.1906 298.266 31.8879 298.266C33.5708 298.266 34.8098 298.806 35.6047 299.888C36.3996 300.962 36.8078 302.623 36.8293 304.872V307.45ZM34.842 304.732C34.842 303.049 34.6057 301.825 34.133 301.059C33.6603 300.285 32.912 299.898 31.8879 299.898C30.871 299.898 30.1297 300.282 29.6642 301.048C29.1988 301.814 28.9588 302.992 28.9445 304.582V307.762C28.9445 309.452 29.188 310.701 29.675 311.511C30.1691 312.313 30.9139 312.714 31.9094 312.714C32.8905 312.714 33.6174 312.334 34.09 311.575C34.5698 310.816 34.8205 309.62 34.842 307.987V304.732ZM49.1828 307.45C49.1828 309.778 48.7853 311.507 47.9904 312.639C47.1955 313.77 45.953 314.336 44.2629 314.336C42.5943 314.336 41.3589 313.785 40.5568 312.682C39.7547 311.572 39.3394 309.917 39.3107 307.719V305.065C39.3107 302.767 39.7082 301.059 40.5031 299.941C41.298 298.824 42.5441 298.266 44.2414 298.266C45.9243 298.266 47.1633 298.806 47.9582 299.888C48.7531 300.962 49.1613 302.623 49.1828 304.872V307.45ZM47.1955 304.732C47.1955 303.049 46.9592 301.825 46.4865 301.059C46.0139 300.285 45.2655 299.898 44.2414 299.898C43.2245 299.898 42.4833 300.282 42.0178 301.048C41.5523 301.814 41.3124 302.992 41.298 304.582V307.762C41.298 309.452 41.5415 310.701 42.0285 311.511C42.5226 312.313 43.2674 312.714 44.2629 312.714C45.244 312.714 45.9709 312.334 46.4435 311.575C46.9234 310.816 47.174 309.62 47.1955 307.987V304.732Z" fill="black"/>
<path d="M23.0578 266.444H25.2277V268.066H23.0578V271.697H21.0598V268.066H13.9377V266.896L20.9416 256.057H23.0578V266.444ZM16.1935 266.444H21.0598V258.774L20.8234 259.204L16.1935 266.444ZM36.8293 265.026C36.8293 267.354 36.4318 269.083 35.6369 270.215C34.842 271.346 33.5995 271.912 31.9094 271.912C30.2407 271.912 29.0054 271.361 28.2033 270.258C27.4012 269.148 26.9859 267.493 26.9572 265.295V262.642C26.9572 260.343 27.3547 258.635 28.1496 257.518C28.9445 256.4 30.1906 255.842 31.8879 255.842C33.5708 255.842 34.8098 256.382 35.6047 257.464C36.3996 258.538 36.8078 260.2 36.8293 262.448V265.026ZM34.842 262.309C34.842 260.626 34.6057 259.401 34.133 258.635C33.6603 257.861 32.912 257.475 31.8879 257.475C30.871 257.475 30.1297 257.858 29.6642 258.624C29.1988 259.39 28.9588 260.568 28.9445 262.158V265.338C28.9445 267.028 29.188 268.278 29.675 269.087C30.1691 269.889 30.9139 270.29 31.9094 270.29C32.8905 270.29 33.6174 269.91 34.09 269.151C34.5698 268.392 34.8205 267.196 34.842 265.563V262.309ZM49.1828 265.026C49.1828 267.354 48.7853 269.083 47.9904 270.215C47.1955 271.346 45.953 271.912 44.2629 271.912C42.5943 271.912 41.3589 271.361 40.5568 270.258C39.7547 269.148 39.3394 267.493 39.3107 265.295V262.642C39.3107 260.343 39.7082 258.635 40.5031 257.518C41.298 256.4 42.5441 255.842 44.2414 255.842C45.9243 255.842 47.1633 256.382 47.9582 257.464C48.7531 258.538 49.1613 260.2 49.1828 262.448V265.026ZM47.1955 262.309C47.1955 260.626 46.9592 259.401 46.4865 258.635C46.0139 257.861 45.2655 257.475 44.2414 257.475C43.2245 257.475 42.4833 257.858 42.0178 258.624C41.5523 259.39 41.3124 260.568 41.298 262.158V265.338C41.298 267.028 41.5415 268.278 42.0285 269.087C42.5226 269.889 43.2674 270.29 44.2629 270.29C45.244 270.29 45.9709 269.91 46.4435 269.151C46.9234 268.392 47.174 267.196 47.1955 265.563V262.309Z" fill="black"/>
<path d="M15.5812 223.021L16.3762 215.223H24.3898V217.06H18.0627L17.59 221.324C18.3563 220.873 19.2264 220.647 20.2004 220.647C21.6255 220.647 22.757 221.12 23.5949 222.065C24.4328 223.004 24.8517 224.275 24.8517 225.879C24.8517 227.49 24.4149 228.761 23.5412 229.692C22.6747 230.616 21.4608 231.078 19.8996 231.078C18.5174 231.078 17.3895 230.695 16.5158 229.929C15.6421 229.162 15.1444 228.103 15.0226 226.749H16.9025C17.0243 227.644 17.343 228.321 17.8586 228.779C18.3742 229.23 19.0545 229.456 19.8996 229.456C20.8234 229.456 21.5467 229.141 22.0695 228.511C22.5995 227.881 22.8644 227.01 22.8644 225.9C22.8644 224.855 22.578 224.017 22.0051 223.387C21.4393 222.749 20.6838 222.431 19.7385 222.431C18.8719 222.431 18.1916 222.62 17.6975 223L17.1711 223.43L15.5812 223.021ZM36.8293 224.192C36.8293 226.52 36.4318 228.249 35.6369 229.381C34.842 230.512 33.5995 231.078 31.9094 231.078C30.2407 231.078 29.0054 230.527 28.2033 229.424C27.4012 228.314 26.9859 226.66 26.9572 224.461V221.808C26.9572 219.509 27.3547 217.801 28.1496 216.684C28.9445 215.566 30.1906 215.008 31.8879 215.008C33.5708 215.008 34.8098 215.549 35.6047 216.63C36.3996 217.704 36.8078 219.366 36.8293 221.614V224.192ZM34.842 221.475C34.842 219.792 34.6057 218.567 34.133 217.801C33.6603 217.027 32.912 216.641 31.8879 216.641C30.871 216.641 30.1297 217.024 29.6642 217.79C29.1988 218.556 28.9588 219.734 28.9445 221.324V224.504C28.9445 226.194 29.188 227.444 29.675 228.253C30.1691 229.055 30.9139 229.456 31.9094 229.456C32.8905 229.456 33.6174 229.076 34.09 228.317C34.5698 227.558 34.8205 226.362 34.842 224.729V221.475ZM49.1828 224.192C49.1828 226.52 48.7853 228.249 47.9904 229.381C47.1955 230.512 45.953 231.078 44.2629 231.078C42.5943 231.078 41.3589 230.527 40.5568 229.424C39.7547 228.314 39.3394 226.66 39.3107 224.461V221.808C39.3107 219.509 39.7082 217.801 40.5031 216.684C41.298 215.566 42.5441 215.008 44.2414 215.008C45.9243 215.008 47.1633 215.549 47.9582 216.63C48.7531 217.704 49.1613 219.366 49.1828 221.614V224.192ZM47.1955 221.475C47.1955 219.792 46.9592 218.567 46.4865 217.801C46.0139 217.027 45.2655 216.641 44.2414 216.641C43.2245 216.641 42.4833 217.024 42.0178 217.79C41.5523 218.556 41.3124 219.734 41.298 221.324V224.504C41.298 226.194 41.5415 227.444 42.0285 228.253C42.5226 229.055 43.2674 229.456 44.2629 229.456C45.244 229.456 45.9709 229.076 46.4435 228.317C46.9234 227.558 47.174 226.362 47.1955 224.729V221.475Z" fill="black"/>
<path d="M22.467 172.788V174.475H22.1017C20.5549 174.503 19.3231 174.962 18.4064 175.85C17.4898 176.738 16.9598 177.987 16.8166 179.599C17.6402 178.653 18.7645 178.181 20.1896 178.181C21.5503 178.181 22.6353 178.66 23.4445 179.62C24.2609 180.58 24.6691 181.819 24.6691 183.337C24.6691 184.948 24.2287 186.237 23.3478 187.204C22.4741 188.171 21.2997 188.654 19.8244 188.654C18.3277 188.654 17.1138 188.081 16.1828 186.936C15.2518 185.783 14.7863 184.3 14.7863 182.488V181.726C14.7863 178.847 15.3986 176.648 16.6232 175.13C17.855 173.604 19.6848 172.824 22.1125 172.788H22.467ZM19.8566 179.835C19.1763 179.835 18.5497 180.039 17.9767 180.447C17.4038 180.855 17.0064 181.368 16.7844 181.983V182.714C16.7844 184.003 17.0744 185.041 17.6545 185.829C18.2346 186.617 18.9579 187.011 19.8244 187.011C20.7196 187.011 21.4214 186.681 21.9299 186.022C22.4455 185.364 22.7033 184.501 22.7033 183.434C22.7033 182.359 22.4419 181.493 21.9191 180.834C21.4035 180.168 20.716 179.835 19.8566 179.835ZM36.8293 181.769C36.8293 184.096 36.4318 185.826 35.6369 186.957C34.842 188.089 33.5995 188.654 31.9094 188.654C30.2407 188.654 29.0054 188.103 28.2033 187C27.4012 185.89 26.9859 184.236 26.9572 182.037V179.384C26.9572 177.085 27.3547 175.377 28.1496 174.26C28.9445 173.143 30.1906 172.584 31.8879 172.584C33.5708 172.584 34.8098 173.125 35.6047 174.206C36.3996 175.28 36.8078 176.942 36.8293 179.19V181.769ZM34.842 179.051C34.842 177.368 34.6057 176.143 34.133 175.377C33.6603 174.604 32.912 174.217 31.8879 174.217C30.871 174.217 30.1297 174.6 29.6642 175.366C29.1988 176.132 28.9588 177.311 28.9445 178.9V182.08C28.9445 183.77 29.188 185.02 29.675 185.829C30.1691 186.631 30.9139 187.032 31.9094 187.032C32.8905 187.032 33.6174 186.653 34.09 185.894C34.5698 185.134 34.8205 183.938 34.842 182.306V179.051ZM49.1828 181.769C49.1828 184.096 48.7853 185.826 47.9904 186.957C47.1955 188.089 45.953 188.654 44.2629 188.654C42.5943 188.654 41.3589 188.103 40.5568 187C39.7547 185.89 39.3394 184.236 39.3107 182.037V179.384C39.3107 177.085 39.7082 175.377 40.5031 174.26C41.298 173.143 42.5441 172.584 44.2414 172.584C45.9243 172.584 47.1633 173.125 47.9582 174.206C48.7531 175.28 49.1613 176.942 49.1828 179.19V181.769ZM47.1955 179.051C47.1955 177.368 46.9592 176.143 46.4865 175.377C46.0139 174.604 45.2655 174.217 44.2414 174.217C43.2245 174.217 42.4833 174.6 42.0178 175.366C41.5523 176.132 41.3124 177.311 41.298 178.9V182.08C41.298 183.77 41.5415 185.02 42.0285 185.829C42.5226 186.631 43.2674 187.032 44.2629 187.032C45.244 187.032 45.9709 186.653 46.4435 185.894C46.9234 185.134 47.174 183.938 47.1955 182.306V179.051Z" fill="black"/>
<path d="M24.7658 132.553L18.2883 147.076H16.2043L22.6603 133.068H14.1955V131.436H24.7658V132.553ZM36.8293 140.405C36.8293 142.733 36.4318 144.462 35.6369 145.594C34.842 146.725 33.5995 147.291 31.9094 147.291C30.2407 147.291 29.0054 146.74 28.2033 145.637C27.4012 144.527 26.9859 142.872 26.9572 140.674V138.021C26.9572 135.722 27.3547 134.014 28.1496 132.896C28.9445 131.779 30.1906 131.221 31.8879 131.221C33.5708 131.221 34.8098 131.761 35.6047 132.843C36.3996 133.917 36.8078 135.578 36.8293 137.827V140.405ZM34.842 137.688C34.842 136.005 34.6057 134.78 34.133 134.014C33.6603 133.24 32.912 132.854 31.8879 132.854C30.871 132.854 30.1297 133.237 29.6642 134.003C29.1988 134.769 28.9588 135.947 28.9445 137.537V140.717C28.9445 142.407 29.188 143.657 29.675 144.466C30.1691 145.268 30.9139 145.669 31.9094 145.669C32.8905 145.669 33.6174 145.289 34.09 144.53C34.5698 143.771 34.8205 142.575 34.842 140.942V137.688ZM49.1828 140.405C49.1828 142.733 48.7853 144.462 47.9904 145.594C47.1955 146.725 45.953 147.291 44.2629 147.291C42.5943 147.291 41.3589 146.74 40.5568 145.637C39.7547 144.527 39.3394 142.872 39.3107 140.674V138.021C39.3107 135.722 39.7082 134.014 40.5031 132.896C41.298 131.779 42.5441 131.221 44.2414 131.221C45.9243 131.221 47.1633 131.761 47.9582 132.843C48.7531 133.917 49.1613 135.578 49.1828 137.827V140.405ZM47.1955 137.688C47.1955 136.005 46.9592 134.78 46.4865 134.014C46.0139 133.24 45.2655 132.854 44.2414 132.854C43.2245 132.854 42.4833 133.237 42.0178 134.003C41.5523 134.769 41.3124 135.947 41.298 137.537V140.717C41.298 142.407 41.5415 143.657 42.0285 144.466C42.5226 145.268 43.2674 145.669 44.2629 145.669C45.244 145.669 45.9709 145.289 46.4435 144.53C46.9234 143.771 47.174 142.575 47.1955 140.942V137.688Z" fill="black"/>
<path d="M24.1535 95.2148C24.1535 95.9954 23.9458 96.6901 23.5305 97.2988C23.1223 97.9076 22.5672 98.3838 21.8654 98.7275C22.6818 99.0785 23.3264 99.5905 23.799 100.264C24.2788 100.937 24.5187 101.7 24.5187 102.552C24.5187 103.905 24.0604 104.983 23.1437 105.785C22.2342 106.587 21.0347 106.988 19.5451 106.988C18.0412 106.988 16.8345 106.587 15.925 105.785C15.0226 104.976 14.5715 103.898 14.5715 102.552C14.5715 101.707 14.8006 100.944 15.259 100.264C15.7245 99.5833 16.3654 99.0677 17.1818 98.7168C16.4872 98.373 15.9393 97.8968 15.5383 97.2881C15.1372 96.6794 14.9367 95.9883 14.9367 95.2148C14.9367 93.8971 15.3592 92.8516 16.2043 92.0781C17.0493 91.3047 18.1629 90.918 19.5451 90.918C20.9201 90.918 22.0301 91.3047 22.8752 92.0781C23.7274 92.8516 24.1535 93.8971 24.1535 95.2148ZM22.5314 102.509C22.5314 101.635 22.2521 100.923 21.6935 100.371C21.1421 99.8197 20.4188 99.5439 19.5236 99.5439C18.6284 99.5439 17.9087 99.8161 17.3644 100.36C16.8273 100.905 16.5588 101.621 16.5588 102.509C16.5588 103.397 16.8202 104.095 17.343 104.604C17.8729 105.112 18.607 105.366 19.5451 105.366C20.4761 105.366 21.2066 105.112 21.7365 104.604C22.2665 104.088 22.5314 103.39 22.5314 102.509ZM19.5451 92.5508C18.7645 92.5508 18.1307 92.7943 17.6437 93.2812C17.1639 93.7611 16.924 94.4163 16.924 95.2471C16.924 96.042 17.1603 96.6865 17.633 97.1807C18.1128 97.6676 18.7502 97.9111 19.5451 97.9111C20.34 97.9111 20.9738 97.6676 21.4465 97.1807C21.9263 96.6865 22.1662 96.042 22.1662 95.2471C22.1662 94.4521 21.9191 93.804 21.425 93.3027C20.9309 92.8014 20.3042 92.5508 19.5451 92.5508ZM36.8293 100.103C36.8293 102.43 36.4318 104.16 35.6369 105.291C34.842 106.423 33.5995 106.988 31.9094 106.988C30.2407 106.988 29.0054 106.437 28.2033 105.334C27.4012 104.224 26.9859 102.57 26.9572 100.371V97.7178C26.9572 95.4189 27.3547 93.7109 28.1496 92.5938C28.9445 91.4766 30.1906 90.918 31.8879 90.918C33.5708 90.918 34.8098 91.4587 35.6047 92.54C36.3996 93.6143 36.8078 95.2757 36.8293 97.5244V100.103ZM34.842 97.3848C34.842 95.7018 34.6057 94.4772 34.133 93.7109C33.6603 92.9375 32.912 92.5508 31.8879 92.5508C30.871 92.5508 30.1297 92.9339 29.6642 93.7002C29.1988 94.4665 28.9588 95.6445 28.9445 97.2344V100.414C28.9445 102.104 29.188 103.354 29.675 104.163C30.1691 104.965 30.9139 105.366 31.9094 105.366C32.8905 105.366 33.6174 104.987 34.09 104.228C34.5698 103.468 34.8205 102.272 34.842 100.64V97.3848ZM49.1828 100.103C49.1828 102.43 48.7853 104.16 47.9904 105.291C47.1955 106.423 45.953 106.988 44.2629 106.988C42.5943 106.988 41.3589 106.437 40.5568 105.334C39.7547 104.224 39.3394 102.57 39.3107 100.371V97.7178C39.3107 95.4189 39.7082 93.7109 40.5031 92.5938C41.298 91.4766 42.5441 90.918 44.2414 90.918C45.9243 90.918 47.1633 91.4587 47.9582 92.54C48.7531 93.6143 49.1613 95.2757 49.1828 97.5244V100.103ZM47.1955 97.3848C47.1955 95.7018 46.9592 94.4772 46.4865 93.7109C46.0139 92.9375 45.2655 92.5508 44.2414 92.5508C43.2245 92.5508 42.4833 92.9339 42.0178 93.7002C41.5523 94.4665 41.3124 95.6445 41.298 97.2344V100.414C41.298 102.104 41.5415 103.354 42.0285 104.163C42.5226 104.965 43.2674 105.366 44.2629 105.366C45.244 105.366 45.9709 104.987 46.4435 104.228C46.9234 103.468 47.174 102.272 47.1955 100.64V97.3848Z" fill="black"/>
<path d="M22.2844 57.4746C21.869 57.9688 21.3713 58.3662 20.7912 58.667C20.2183 58.9678 19.5881 59.1182 18.9006 59.1182C17.9982 59.1182 17.2105 58.8962 16.5373 58.4521C15.8713 58.0081 15.3557 57.3851 14.9904 56.583C14.6252 55.7738 14.4426 54.8822 14.4426 53.9082C14.4426 52.8626 14.6395 51.9209 15.0334 51.083C15.4344 50.2451 16.0002 49.6042 16.7307 49.1602C17.4611 48.7161 18.3133 48.4941 19.2873 48.4941C20.8342 48.4941 22.0516 49.0742 22.9396 50.2344C23.8348 51.3874 24.2824 52.9629 24.2824 54.9609V55.541C24.2824 58.5846 23.6809 60.8083 22.4777 62.2119C21.2746 63.6084 19.4592 64.3245 17.0314 64.3604H16.6447V62.6846H17.0637C18.7036 62.6559 19.9641 62.2298 20.8449 61.4062C21.7258 60.5755 22.2056 59.265 22.2844 57.4746ZM19.2228 57.4746C19.8889 57.4746 20.5012 57.2705 21.0598 56.8623C21.6255 56.4541 22.0373 55.9492 22.2951 55.3477V54.5527C22.2951 53.2493 22.0122 52.1895 21.4465 51.373C20.8807 50.5566 20.1646 50.1484 19.298 50.1484C18.4243 50.1484 17.7225 50.485 17.1926 51.1582C16.6626 51.8242 16.3976 52.7051 16.3976 53.8008C16.3976 54.8678 16.6519 55.7487 17.1603 56.4434C17.676 57.1309 18.3635 57.4746 19.2228 57.4746ZM36.8293 57.6787C36.8293 60.0062 36.4318 61.7357 35.6369 62.8672C34.842 63.9987 33.5995 64.5645 31.9094 64.5645C30.2407 64.5645 29.0054 64.013 28.2033 62.9102C27.4012 61.8001 26.9859 60.1458 26.9572 57.9473V55.2939C26.9572 52.9951 27.3547 51.2871 28.1496 50.1699C28.9445 49.0527 30.1906 48.4941 31.8879 48.4941C33.5708 48.4941 34.8098 49.0348 35.6047 50.1162C36.3996 51.1904 36.8078 52.8519 36.8293 55.1006V57.6787ZM34.842 54.9609C34.842 53.278 34.6057 52.0534 34.133 51.2871C33.6603 50.5137 32.912 50.127 31.8879 50.127C30.871 50.127 30.1297 50.5101 29.6642 51.2764C29.1988 52.0426 28.9588 53.2207 28.9445 54.8105V57.9902C28.9445 59.6803 29.188 60.93 29.675 61.7393C30.1691 62.5413 30.9139 62.9424 31.9094 62.9424C32.8905 62.9424 33.6174 62.5628 34.09 61.8037C34.5698 61.0446 34.8205 59.8486 34.842 58.2158V54.9609ZM49.1828 57.6787C49.1828 60.0062 48.7853 61.7357 47.9904 62.8672C47.1955 63.9987 45.953 64.5645 44.2629 64.5645C42.5943 64.5645 41.3589 64.013 40.5568 62.9102C39.7547 61.8001 39.3394 60.1458 39.3107 57.9473V55.2939C39.3107 52.9951 39.7082 51.2871 40.5031 50.1699C41.298 49.0527 42.5441 48.4941 44.2414 48.4941C45.9243 48.4941 47.1633 49.0348 47.9582 50.1162C48.7531 51.1904 49.1613 52.8519 49.1828 55.1006V57.6787ZM47.1955 54.9609C47.1955 53.278 46.9592 52.0534 46.4865 51.2871C46.0139 50.5137 45.2655 50.127 44.2414 50.127C43.2245 50.127 42.4833 50.5101 42.0178 51.2764C41.5523 52.0426 41.3124 53.2207 41.298 54.8105V57.9902C41.298 59.6803 41.5415 60.93 42.0285 61.7393C42.5226 62.5413 43.2674 62.9424 44.2629 62.9424C45.244 62.9424 45.9709 62.5628 46.4435 61.8037C46.9234 61.0446 47.174 59.8486 47.1955 58.2158V54.9609Z" fill="black"/>
<path d="M8.70972 21.9248H6.71167V8.67969L2.70483 10.1514V8.34668L8.39819 6.20898H8.70972V21.9248ZM24.3396 15.2539C24.3396 17.5814 23.9421 19.3109 23.1472 20.4424C22.3523 21.5739 21.1098 22.1396 19.4197 22.1396C17.7511 22.1396 16.5157 21.5882 15.7136 20.4854C14.9115 19.3753 14.4962 17.721 14.4675 15.5225V12.8691C14.4675 10.5703 14.865 8.8623 15.6599 7.74512C16.4548 6.62793 17.7009 6.06934 19.3982 6.06934C21.0811 6.06934 22.3201 6.61003 23.115 7.69141C23.9099 8.76562 24.3181 10.4271 24.3396 12.6758V15.2539ZM22.3523 12.5361C22.3523 10.8532 22.116 9.62858 21.6433 8.8623C21.1707 8.08887 20.4223 7.70215 19.3982 7.70215C18.3813 7.70215 17.6401 8.08529 17.1746 8.85156C16.7091 9.61784 16.4692 10.7959 16.4548 12.3857V15.5654C16.4548 17.2555 16.6983 18.5052 17.1853 19.3145C17.6794 20.1165 18.4242 20.5176 19.4197 20.5176C20.4008 20.5176 21.1277 20.138 21.6003 19.3789C22.0802 18.6198 22.3308 17.4238 22.3523 15.791V12.5361ZM36.6931 15.2539C36.6931 17.5814 36.2957 19.3109 35.5007 20.4424C34.7058 21.5739 33.4633 22.1396 31.7732 22.1396C30.1046 22.1396 28.8692 21.5882 28.0671 20.4854C27.2651 19.3753 26.8497 17.721 26.821 15.5225V12.8691C26.821 10.5703 27.2185 8.8623 28.0134 7.74512C28.8083 6.62793 30.0544 6.06934 31.7517 6.06934C33.4347 6.06934 34.6736 6.61003 35.4685 7.69141C36.2634 8.76562 36.6716 10.4271 36.6931 12.6758V15.2539ZM34.7058 12.5361C34.7058 10.8532 34.4695 9.62858 33.9968 8.8623C33.5242 8.08887 32.7758 7.70215 31.7517 7.70215C30.7348 7.70215 29.9936 8.08529 29.5281 8.85156C29.0626 9.61784 28.8227 10.7959 28.8083 12.3857V15.5654C28.8083 17.2555 29.0518 18.5052 29.5388 19.3145C30.033 20.1165 30.7778 20.5176 31.7732 20.5176C32.7543 20.5176 33.4812 20.138 33.9539 19.3789C34.4337 18.6198 34.6843 17.4238 34.7058 15.791V12.5361ZM49.0466 15.2539C49.0466 17.5814 48.6492 19.3109 47.8542 20.4424C47.0593 21.5739 45.8168 22.1396 44.1267 22.1396C42.4581 22.1396 41.2227 21.5882 40.4207 20.4854C39.6186 19.3753 39.2032 17.721 39.1746 15.5225V12.8691C39.1746 10.5703 39.572 8.8623 40.3669 7.74512C41.1619 6.62793 42.408 6.06934 44.1052 6.06934C45.7882 6.06934 47.0271 6.61003 47.822 7.69141C48.6169 8.76562 49.0251 10.4271 49.0466 12.6758V15.2539ZM47.0593 12.5361C47.0593 10.8532 46.823 9.62858 46.3503 8.8623C45.8777 8.08887 45.1293 7.70215 44.1052 7.70215C43.0883 7.70215 42.3471 8.08529 41.8816 8.85156C41.4161 9.61784 41.1762 10.7959 41.1619 12.3857V15.5654C41.1619 17.2555 41.4054 18.5052 41.8923 19.3145C42.3865 20.1165 43.1313 20.5176 44.1267 20.5176C45.1078 20.5176 45.8347 20.138 46.3074 19.3789C46.7872 18.6198 47.0378 17.4238 47.0593 15.791V12.5361Z" fill="black"/>
<path d="M319.198 31.8916L325.198 37.8916M325.198 37.8916L331.198 31.8916M325.198 37.8916L319.198 43.8916M325.198 37.8916L331.198 43.8916" stroke="white" stroke-width="1.5" stroke-linecap="round" stroke-linejoin="round"/>
<line x1="69.9657" y1="434.393" x2="539.337" y2="434.393" stroke="#C4C4C4"/>
<line x1="69.9657" y1="390.714" x2="539.337" y2="390.714" stroke="#C4C4C4"/>
<line x1="69.9657" y1="349.255" x2="539.337" y2="349.255" stroke="#C4C4C4"/>
<line x1="69.9657" y1="307.796" x2="539.337" y2="307.796" stroke="#C4C4C4"/>
<line x1="69.9657" y1="266.338" x2="539.337" y2="266.338" stroke="#C4C4C4"/>
<line x1="69.9657" y1="224.879" x2="539.337" y2="224.879" stroke="#C4C4C4"/>
<line x1="69.9657" y1="183.42" x2="539.337" y2="183.42" stroke="#C4C4C4"/>
<line x1="69.9657" y1="141.221" x2="539.337" y2="141.221" stroke="#C4C4C4"/>
<line x1="69.9657" y1="101.243" x2="539.337" y2="101.243" stroke="#C4C4C4"/>
<line x1="69.9657" y1="58.3037" x2="539.337" y2="58.3038" stroke="#C4C4C4"/>
<line x1="69.9657" y1="16.1045" x2="539.337" y2="16.1045" stroke="#C4C4C4"/>
<path d="M67.1472 444.604H68.4666V451.651C68.4666 452.604 68.1794 453.349 67.6052 453.887C67.0356 454.424 66.2745 454.693 65.322 454.693C64.3331 454.693 63.5629 454.44 63.0115 453.935C62.46 453.429 62.1843 452.72 62.1843 451.809H63.4968C63.4968 452.378 63.6518 452.823 63.9617 453.142C64.2761 453.461 64.7296 453.62 65.322 453.62C65.8643 453.62 66.3018 453.449 66.6345 453.107C66.9718 452.766 67.1427 452.287 67.1472 451.672V444.604ZM76.0476 451.959H71.8777L70.9412 454.557H69.5876L73.3884 444.604H74.5369L78.3445 454.557H76.9978L76.0476 451.959ZM72.2742 450.879H75.658L73.9626 446.224L72.2742 450.879ZM87.3337 454.557H86.0144L81.0037 446.887V454.557H79.6843V444.604H81.0037L86.0281 452.308V444.604H87.3337V454.557Z" fill="#C4C4C4"/>
<path d="M113.627 450.161H109.45V454.557H108.138V444.604H114.304V445.684H109.45V449.088H113.627V450.161ZM121.502 449.956H117.188V453.483H122.199V454.557H115.876V444.604H122.131V445.684H117.188V448.883H121.502V449.956ZM123.833 454.557V444.604H127.087C128.167 444.604 128.978 444.827 129.52 445.273C130.067 445.72 130.341 446.381 130.341 447.256C130.341 447.721 130.209 448.133 129.944 448.493C129.68 448.849 129.32 449.124 128.864 449.32C129.402 449.471 129.826 449.758 130.136 450.182C130.45 450.601 130.607 451.102 130.607 451.686C130.607 452.579 130.318 453.281 129.739 453.791C129.16 454.301 128.342 454.557 127.285 454.557H123.833ZM125.145 449.901V453.483H127.312C127.923 453.483 128.404 453.326 128.755 453.012C129.11 452.693 129.288 452.255 129.288 451.699C129.288 450.501 128.636 449.901 127.333 449.901H125.145ZM125.145 448.849H127.128C127.702 448.849 128.16 448.705 128.502 448.418C128.848 448.131 129.021 447.741 129.021 447.249C129.021 446.702 128.862 446.306 128.543 446.06C128.224 445.809 127.738 445.684 127.087 445.684H125.145V448.849Z" fill="#C4C4C4"/>
<path d="M146.85 444.604L150.104 452.725L153.357 444.604H155.06V454.557H153.747V450.681L153.87 446.497L150.603 454.557H149.598L146.337 446.518L146.467 450.681V454.557H145.154V444.604H146.85ZM162.996 451.959H158.826L157.89 454.557H156.536L160.337 444.604H161.485L165.293 454.557H163.946L162.996 451.959ZM159.223 450.879H162.606L160.911 446.224L159.223 450.879ZM170.283 450.53H167.945V454.557H166.626V444.604H169.921C171.042 444.604 171.903 444.859 172.505 445.369C173.111 445.88 173.414 446.622 173.414 447.598C173.414 448.217 173.245 448.757 172.908 449.218C172.576 449.678 172.111 450.022 171.514 450.25L173.852 454.475V454.557H172.443L170.283 450.53ZM167.945 449.457H169.962C170.614 449.457 171.131 449.288 171.514 448.951C171.901 448.614 172.095 448.163 172.095 447.598C172.095 446.982 171.91 446.511 171.541 446.183C171.176 445.854 170.648 445.688 169.955 445.684H167.945V449.457Z" fill="#C4C4C4"/>
<path d="M189.148 451.959H184.978L184.041 454.557H182.688L186.489 444.604H187.637L191.445 454.557H190.098L189.148 451.959ZM185.374 450.879H188.758L187.063 446.224L185.374 450.879ZM194.097 450.66V454.557H192.784V444.604H196.455C197.545 444.604 198.397 444.882 199.012 445.438C199.632 445.993 199.942 446.729 199.942 447.646C199.942 448.612 199.639 449.357 199.032 449.881C198.431 450.4 197.567 450.66 196.442 450.66H194.097ZM194.097 449.587H196.455C197.157 449.587 197.695 449.423 198.069 449.095C198.442 448.762 198.629 448.284 198.629 447.659C198.629 447.067 198.442 446.593 198.069 446.237C197.695 445.882 197.182 445.697 196.531 445.684H194.097V449.587ZM205.267 450.53H202.929V454.557H201.61V444.604H204.905C206.026 444.604 206.887 444.859 207.489 445.369C208.095 445.88 208.398 446.622 208.398 447.598C208.398 448.217 208.229 448.757 207.892 449.218C207.559 449.678 207.094 450.022 206.497 450.25L208.835 454.475V454.557H207.427L205.267 450.53ZM202.929 449.457H204.946C205.597 449.457 206.115 449.288 206.497 448.951C206.885 448.614 207.078 448.163 207.078 447.598C207.078 446.982 206.894 446.511 206.525 446.183C206.16 445.854 205.631 445.688 204.939 445.684H202.929V449.457Z" fill="#C4C4C4"/>
<path d="M224.585 444.604L227.839 452.725L231.092 444.604H232.795V454.557H231.482V450.681L231.605 446.497L228.338 454.557H227.333L224.072 446.518L224.202 450.681V454.557H222.889V444.604H224.585ZM240.731 451.959H236.561L235.625 454.557H234.271L238.072 444.604H239.22L243.028 454.557H241.681L240.731 451.959ZM236.958 450.879H240.341L238.646 446.224L236.958 450.879ZM246.76 449.601L249.358 444.604H250.848L247.417 450.845V454.557H246.104V450.845L242.672 444.604H244.176L246.76 449.601Z" fill="#C4C4C4"/>
<path d="M272.219 444.604H273.539V451.651C273.539 452.604 273.252 453.349 272.677 453.887C272.108 454.424 271.347 454.693 270.394 454.693C269.405 454.693 268.635 454.44 268.084 453.935C267.532 453.429 267.257 452.72 267.257 451.809H268.569C268.569 452.378 268.724 452.823 269.034 453.142C269.348 453.461 269.802 453.62 270.394 453.62C270.937 453.62 271.374 453.449 271.707 453.107C272.044 452.766 272.215 452.287 272.219 451.672V444.604ZM282.781 444.604V451.371C282.776 452.31 282.48 453.078 281.892 453.675C281.309 454.272 280.516 454.607 279.513 454.68L279.165 454.693C278.076 454.693 277.207 454.399 276.56 453.812C275.913 453.224 275.585 452.415 275.576 451.385V444.604H276.875V451.344C276.875 452.064 277.073 452.624 277.469 453.025C277.866 453.422 278.431 453.62 279.165 453.62C279.908 453.62 280.475 453.422 280.867 453.025C281.263 452.629 281.462 452.071 281.462 451.351V444.604H282.781ZM292.502 454.557H291.182L286.172 446.887V454.557H284.852V444.604H286.172L291.196 452.308V444.604H292.502V454.557Z" fill="#C4C4C4"/>
<path d="M315.899 444.604H317.219V451.651C317.219 452.604 316.931 453.349 316.357 453.887C315.788 454.424 315.026 454.693 314.074 454.693C313.085 454.693 312.315 454.44 311.763 453.935C311.212 453.429 310.936 452.72 310.936 451.809H312.249C312.249 452.378 312.404 452.823 312.714 453.142C313.028 453.461 313.482 453.62 314.074 453.62C314.616 453.62 315.054 453.449 315.386 453.107C315.724 452.766 315.895 452.287 315.899 451.672V444.604ZM326.461 444.604V451.371C326.456 452.31 326.16 453.078 325.572 453.675C324.989 454.272 324.196 454.607 323.193 454.68L322.844 454.693C321.755 454.693 320.887 454.399 320.24 453.812C319.593 453.224 319.265 452.415 319.256 451.385V444.604H320.554V451.344C320.554 452.064 320.753 452.624 321.149 453.025C321.546 453.422 322.111 453.62 322.844 453.62C323.587 453.62 324.155 453.422 324.547 453.025C324.943 452.629 325.141 452.071 325.141 451.351V444.604H326.461ZM329.851 453.483H334.568V454.557H328.532V444.604H329.851V453.483Z" fill="#C4C4C4"/>
<path d="M363.866 451.959H359.696L358.76 454.557H357.406L361.207 444.604H362.356L366.163 454.557H364.817L363.866 451.959ZM360.093 450.879H363.477L361.781 446.224L360.093 450.879ZM374.387 444.604V451.371C374.382 452.31 374.086 453.078 373.498 453.675C372.915 454.272 372.122 454.607 371.119 454.68L370.771 454.693C369.681 454.693 368.813 454.399 368.166 453.812C367.519 453.224 367.191 452.415 367.182 451.385V444.604H368.481V451.344C368.481 452.064 368.679 452.624 369.075 453.025C369.472 453.422 370.037 453.62 370.771 453.62C371.513 453.62 372.081 453.422 372.473 453.025C372.869 452.629 373.068 452.071 373.068 451.351V444.604H374.387ZM383.807 453.251C383.47 453.734 382.998 454.096 382.392 454.338C381.79 454.575 381.088 454.693 380.286 454.693C379.475 454.693 378.755 454.504 378.126 454.126C377.497 453.743 377.01 453.201 376.663 452.499C376.321 451.797 376.146 450.984 376.137 450.059V449.19C376.137 447.691 376.485 446.529 377.183 445.704C377.885 444.879 378.869 444.467 380.136 444.467C381.175 444.467 382.011 444.733 382.645 445.267C383.278 445.795 383.665 446.547 383.807 447.522H382.494C382.248 446.205 381.464 445.547 380.143 445.547C379.263 445.547 378.595 445.857 378.14 446.477C377.689 447.092 377.461 447.985 377.456 449.156V449.97C377.456 451.086 377.711 451.975 378.222 452.636C378.732 453.292 379.423 453.62 380.293 453.62C380.785 453.62 381.216 453.565 381.585 453.456C381.954 453.347 382.26 453.162 382.501 452.902V450.667H380.197V449.601H383.807V453.251Z" fill="#C4C4C4"/>
<path d="M404.242 450.12C403.117 449.797 402.296 449.4 401.781 448.931C401.271 448.457 401.016 447.873 401.016 447.181C401.016 446.397 401.328 445.75 401.952 445.239C402.581 444.724 403.397 444.467 404.399 444.467C405.083 444.467 405.691 444.599 406.225 444.863C406.762 445.128 407.177 445.492 407.469 445.957C407.765 446.422 407.913 446.93 407.913 447.481H406.594C406.594 446.88 406.402 446.408 406.02 446.066C405.637 445.72 405.097 445.547 404.399 445.547C403.752 445.547 403.246 445.69 402.882 445.978C402.522 446.26 402.342 446.654 402.342 447.16C402.342 447.566 402.513 447.91 402.854 448.192C403.201 448.47 403.786 448.726 404.611 448.958C405.441 449.19 406.088 449.448 406.553 449.73C407.022 450.008 407.368 450.334 407.592 450.708C407.82 451.082 407.934 451.521 407.934 452.027C407.934 452.834 407.619 453.481 406.99 453.969C406.361 454.452 405.521 454.693 404.468 454.693C403.784 454.693 403.146 454.563 402.554 454.304C401.961 454.039 401.503 453.679 401.18 453.224C400.861 452.768 400.701 452.251 400.701 451.672H402.021C402.021 452.273 402.242 452.75 402.684 453.101C403.13 453.447 403.725 453.62 404.468 453.62C405.16 453.62 405.691 453.479 406.061 453.196C406.43 452.914 406.614 452.529 406.614 452.041C406.614 451.553 406.443 451.177 406.102 450.913C405.76 450.644 405.14 450.38 404.242 450.12ZM415.248 449.956H410.935V453.483H415.945V454.557H409.622V444.604H415.877V445.684H410.935V448.883H415.248V449.956ZM418.892 450.66V454.557H417.579V444.604H421.25C422.339 444.604 423.191 444.882 423.807 445.438C424.426 445.993 424.736 446.729 424.736 447.646C424.736 448.612 424.433 449.357 423.827 449.881C423.226 450.4 422.362 450.66 421.236 450.66H418.892ZM418.892 449.587H421.25C421.952 449.587 422.49 449.423 422.863 449.095C423.237 448.762 423.424 448.284 423.424 447.659C423.424 447.067 423.237 446.593 422.863 446.237C422.49 445.882 421.977 445.697 421.325 445.684H418.892V449.587Z" fill="#C4C4C4"/>
<path d="M447.463 449.901C447.463 450.877 447.299 451.729 446.971 452.458C446.643 453.183 446.178 453.736 445.576 454.119C444.975 454.502 444.273 454.693 443.471 454.693C442.687 454.693 441.992 454.502 441.386 454.119C440.78 453.732 440.308 453.183 439.971 452.472C439.638 451.756 439.467 450.929 439.458 449.99V449.272C439.458 448.315 439.625 447.47 439.957 446.736C440.29 446.003 440.759 445.442 441.365 445.055C441.976 444.663 442.673 444.467 443.457 444.467C444.255 444.467 444.957 444.66 445.563 445.048C446.173 445.431 446.643 445.989 446.971 446.723C447.299 447.452 447.463 448.302 447.463 449.272V449.901ZM446.157 449.259C446.157 448.078 445.92 447.174 445.447 446.545C444.973 445.911 444.309 445.595 443.457 445.595C442.628 445.595 441.974 445.911 441.495 446.545C441.021 447.174 440.778 448.049 440.764 449.17V449.901C440.764 451.045 441.003 451.945 441.482 452.602C441.965 453.253 442.628 453.579 443.471 453.579C444.319 453.579 444.975 453.271 445.44 452.656C445.905 452.036 446.144 451.15 446.157 449.997V449.259ZM456.753 451.398C456.63 452.451 456.24 453.265 455.584 453.839C454.933 454.409 454.064 454.693 452.98 454.693C451.804 454.693 450.861 454.272 450.15 453.429C449.443 452.586 449.09 451.458 449.09 450.045V449.088C449.09 448.163 449.254 447.349 449.582 446.647C449.915 445.946 450.384 445.408 450.99 445.034C451.597 444.656 452.298 444.467 453.096 444.467C454.153 444.467 455.001 444.763 455.639 445.355C456.277 445.943 456.648 446.759 456.753 447.803H455.434C455.32 447.01 455.072 446.436 454.689 446.08C454.31 445.725 453.78 445.547 453.096 445.547C452.257 445.547 451.599 445.857 451.12 446.477C450.646 447.096 450.409 447.978 450.409 449.122V450.086C450.409 451.166 450.635 452.025 451.086 452.663C451.537 453.301 452.169 453.62 452.98 453.62C453.709 453.62 454.267 453.456 454.655 453.128C455.046 452.795 455.306 452.219 455.434 451.398H456.753ZM465.223 445.684H462.024V454.557H460.718V445.684H457.526V444.604H465.223V445.684Z" fill="#C4C4C4"/>
<path d="M487.434 456.037H486.115L481.104 448.367V456.037H479.785V446.084H481.104L486.129 453.788V446.084H487.434V456.037ZM497.422 451.382C497.422 452.357 497.258 453.209 496.929 453.938C496.601 454.663 496.136 455.217 495.535 455.6C494.933 455.982 494.232 456.174 493.429 456.174C492.646 456.174 491.951 455.982 491.344 455.6C490.738 455.212 490.267 454.663 489.929 453.952C489.597 453.237 489.426 452.41 489.417 451.471V450.753C489.417 449.796 489.583 448.951 489.916 448.217C490.248 447.483 490.718 446.923 491.324 446.535C491.935 446.143 492.632 445.947 493.416 445.947C494.213 445.947 494.915 446.141 495.521 446.528C496.132 446.911 496.601 447.469 496.929 448.203C497.258 448.932 497.422 449.782 497.422 450.753V451.382ZM496.116 450.739C496.116 449.559 495.879 448.654 495.405 448.025C494.931 447.392 494.268 447.075 493.416 447.075C492.586 447.075 491.932 447.392 491.454 448.025C490.98 448.654 490.736 449.529 490.722 450.65V451.382C490.722 452.526 490.962 453.426 491.44 454.082C491.923 454.734 492.586 455.06 493.429 455.06C494.277 455.06 494.933 454.752 495.398 454.137C495.863 453.517 496.102 452.631 496.116 451.478V450.739ZM502.535 454.294L505.379 446.084H506.814L503.123 456.037H501.961L498.276 446.084H499.705L502.535 454.294Z" fill="#C4C4C4"/>
<path d="M516.061 454.557V444.604H518.871C519.737 444.604 520.502 444.795 521.168 445.178C521.833 445.561 522.346 446.105 522.706 446.812C523.07 447.518 523.255 448.329 523.26 449.245V449.881C523.26 450.82 523.077 451.642 522.713 452.349C522.353 453.055 521.835 453.597 521.161 453.976C520.491 454.354 519.709 454.548 518.816 454.557H516.061ZM517.374 445.684V453.483H518.755C519.766 453.483 520.552 453.169 521.113 452.54C521.678 451.911 521.961 451.016 521.961 449.854V449.272C521.961 448.142 521.694 447.265 521.161 446.641C520.632 446.012 519.88 445.693 518.905 445.684H517.374ZM530.875 449.956H526.561V453.483H531.572V454.557H525.249V444.604H531.504V445.684H526.561V448.883H530.875V449.956ZM540.527 451.398C540.404 452.451 540.014 453.265 539.358 453.839C538.706 454.409 537.838 454.693 536.754 454.693C535.578 454.693 534.635 454.272 533.924 453.429C533.217 452.586 532.864 451.458 532.864 450.045V449.088C532.864 448.163 533.028 447.349 533.356 446.647C533.689 445.946 534.158 445.408 534.764 445.034C535.371 444.656 536.072 444.467 536.87 444.467C537.927 444.467 538.775 444.763 539.413 445.355C540.051 445.943 540.422 446.759 540.527 447.803H539.208C539.094 447.01 538.845 446.436 538.463 446.08C538.084 445.725 537.553 445.547 536.87 445.547C536.031 445.547 535.373 445.857 534.894 446.477C534.42 447.096 534.183 447.978 534.183 449.122V450.086C534.183 451.166 534.409 452.025 534.86 452.663C535.311 453.301 535.942 453.62 536.754 453.62C537.483 453.62 538.041 453.456 538.428 453.128C538.82 452.795 539.08 452.219 539.208 451.398H540.527Z" fill="#C4C4C4"/>
<path d="M109.944 400.097C109.944 394.373 114.584 389.732 120.308 389.732C126.033 389.732 130.673 394.373 130.673 400.097V434.893H109.944V400.097Z" fill="url(#paint0_linear)"/>
<path d="M146.96 371.225C146.96 365.501 151.601 360.86 157.325 360.86C163.049 360.86 167.69 365.501 167.69 371.225V434.894H146.96V371.225Z" fill="url(#paint1_linear)"/>
<path d="M186.938 379.368C186.938 374.053 191.247 369.744 196.563 369.744C201.878 369.744 206.187 374.053 206.187 379.368V434.893H186.938V379.368Z" fill="url(#paint2_linear)"/>
<path d="M224.695 336.798C224.695 330.87 229.501 326.063 235.43 326.063C241.359 326.063 246.165 330.87 246.165 336.798V434.892H224.695V336.798Z" fill="url(#paint3_linear)"/>
<path d="M269.115 281.644C269.115 275.92 273.756 271.279 279.48 271.279C285.204 271.279 289.845 275.92 289.845 281.644V434.893H269.115V281.644Z" fill="url(#paint4_linear)"/>
<path d="M314.276 240.556C314.276 235.036 318.75 230.562 324.27 230.562C329.79 230.562 334.265 235.036 334.265 240.556V434.894H314.276V240.556Z" fill="url(#paint5_linear)"/>
<path d="M357.955 199.837C357.955 193.909 362.761 189.103 368.69 189.103C374.619 189.103 379.425 193.909 379.425 199.837V434.893H357.955V199.837Z" fill="url(#paint6_linear)"/>
<path d="M402.375 131.357C402.375 125.633 407.016 120.992 412.74 120.992C418.464 120.992 423.105 125.633 423.105 131.357V434.894H402.375V131.357Z" fill="url(#paint7_linear)"/>
<rect x="103.174" y="358.079" width="34.643" height="22.1715" rx="2" fill="#43586B"/>
<path d="M119.803 385.793L113.803 377.479H125.803L119.803 385.793Z" fill="#43586B"/>
<path d="M112.047 372.548C112.047 372.219 111.931 371.941 111.698 371.716C111.469 371.49 111.08 371.286 110.532 371.104C109.77 370.871 109.213 370.568 108.862 370.196C108.515 369.82 108.341 369.344 108.341 368.767C108.341 368.18 108.511 367.698 108.851 367.322C109.195 366.946 109.666 366.722 110.264 366.651V365.475H111.064V366.656C111.666 366.739 112.133 366.991 112.466 367.414C112.803 367.836 112.971 368.414 112.971 369.148H111.983C111.983 368.644 111.863 368.243 111.623 367.945C111.383 367.648 111.059 367.5 110.651 367.5C110.225 367.5 109.899 367.611 109.673 367.833C109.447 368.051 109.335 368.357 109.335 368.751C109.335 369.116 109.453 369.408 109.689 369.626C109.929 369.841 110.321 370.038 110.865 370.217C111.413 370.393 111.839 370.588 112.144 370.803C112.452 371.014 112.677 371.261 112.821 371.544C112.967 371.827 113.041 372.158 113.041 372.538C113.041 373.143 112.858 373.63 112.493 373.999C112.131 374.367 111.623 374.586 110.968 374.654V375.68H110.173V374.654C109.507 374.593 108.984 374.357 108.604 373.945C108.228 373.529 108.04 372.967 108.04 372.258H109.034C109.034 372.756 109.165 373.139 109.426 373.408C109.687 373.676 110.058 373.811 110.538 373.811C111.007 373.811 111.376 373.698 111.644 373.472C111.913 373.247 112.047 372.939 112.047 372.548ZM117.542 374.562H116.543V367.94L114.539 368.676V367.773L117.386 366.705H117.542V374.562ZM125.357 371.227C125.357 372.391 125.158 373.256 124.76 373.821C124.363 374.387 123.742 374.67 122.897 374.67C122.062 374.67 121.445 374.394 121.044 373.843C120.643 373.288 120.435 372.461 120.421 371.361V370.035C120.421 368.885 120.619 368.031 121.017 367.473C121.414 366.914 122.037 366.635 122.886 366.635C123.727 366.635 124.347 366.905 124.744 367.446C125.142 367.983 125.346 368.814 125.357 369.938V371.227ZM124.363 369.868C124.363 369.027 124.245 368.414 124.009 368.031C123.772 367.645 123.398 367.451 122.886 367.451C122.378 367.451 122.007 367.643 121.774 368.026C121.541 368.409 121.421 368.998 121.414 369.793V371.383C121.414 372.228 121.536 372.853 121.78 373.257C122.027 373.658 122.399 373.859 122.897 373.859C123.387 373.859 123.751 373.669 123.987 373.29C124.227 372.91 124.352 372.312 124.363 371.496V369.868ZM131.533 371.227C131.533 372.391 131.335 373.256 130.937 373.821C130.54 374.387 129.919 374.67 129.073 374.67C128.239 374.67 127.621 374.394 127.22 373.843C126.819 373.288 126.612 372.461 126.597 371.361V370.035C126.597 368.885 126.796 368.031 127.194 367.473C127.591 366.914 128.214 366.635 129.063 366.635C129.904 366.635 130.524 366.905 130.921 367.446C131.319 367.983 131.523 368.814 131.533 369.938V371.227ZM130.54 369.868C130.54 369.027 130.422 368.414 130.185 368.031C129.949 367.645 129.575 367.451 129.063 367.451C128.554 367.451 128.184 367.643 127.951 368.026C127.718 368.409 127.598 368.998 127.591 369.793V371.383C127.591 372.228 127.713 372.853 127.956 373.257C128.203 373.658 128.576 373.859 129.073 373.859C129.564 373.859 129.927 373.669 130.164 373.29C130.404 372.91 130.529 372.312 130.54 371.496V369.868Z" fill="white"/>
<rect x="140.589" y="328.978" width="34.643" height="22.1715" rx="2" fill="#43586B"/>
<path d="M157.217 356.692L151.217 348.378H163.218L157.217 356.692Z" fill="#43586B"/>
<path d="M149.461 343.448C149.461 343.118 149.345 342.841 149.112 342.615C148.883 342.39 148.494 342.186 147.947 342.003C147.184 341.77 146.627 341.468 146.276 341.095C145.929 340.719 145.755 340.243 145.755 339.667C145.755 339.079 145.925 338.598 146.265 338.222C146.609 337.846 147.08 337.622 147.678 337.55V336.374H148.478V337.556C149.08 337.638 149.547 337.89 149.88 338.313C150.217 338.736 150.385 339.314 150.385 340.048H149.397C149.397 339.543 149.277 339.142 149.037 338.845C148.797 338.548 148.473 338.399 148.065 338.399C147.639 338.399 147.313 338.51 147.087 338.732C146.862 338.95 146.749 339.257 146.749 339.65C146.749 340.016 146.867 340.307 147.103 340.526C147.343 340.741 147.735 340.938 148.28 341.117C148.828 341.292 149.254 341.487 149.558 341.702C149.866 341.913 150.091 342.16 150.235 342.443C150.382 342.726 150.455 343.057 150.455 343.437C150.455 344.042 150.272 344.529 149.907 344.898C149.545 345.267 149.037 345.485 148.382 345.553V346.579H147.587V345.553C146.921 345.492 146.398 345.256 146.018 344.844C145.642 344.429 145.454 343.867 145.454 343.158H146.448C146.448 343.655 146.579 344.039 146.84 344.307C147.102 344.576 147.472 344.71 147.952 344.71C148.421 344.71 148.79 344.597 149.058 344.372C149.327 344.146 149.461 343.838 149.461 343.448ZM154.956 345.462H153.957V338.839L151.953 339.575V338.673L154.8 337.604H154.956V345.462ZM162.916 338.2L159.677 345.462H158.635L161.863 338.458H157.631V337.642H162.916V338.2ZM164.5 341.541L164.898 337.642H168.905V338.56H165.741L165.505 340.692C165.888 340.467 166.323 340.354 166.81 340.354C167.522 340.354 168.088 340.59 168.507 341.063C168.926 341.532 169.136 342.168 169.136 342.97C169.136 343.775 168.917 344.411 168.48 344.876C168.047 345.338 167.44 345.569 166.66 345.569C165.968 345.569 165.404 345.378 164.968 344.995C164.531 344.611 164.282 344.082 164.221 343.405H165.161C165.222 343.852 165.381 344.191 165.639 344.42C165.897 344.646 166.237 344.758 166.66 344.758C167.121 344.758 167.483 344.601 167.744 344.286C168.009 343.971 168.142 343.535 168.142 342.98C168.142 342.458 167.999 342.039 167.712 341.724C167.429 341.405 167.052 341.246 166.579 341.246C166.146 341.246 165.806 341.34 165.558 341.53L165.295 341.745L164.5 341.541Z" fill="white"/>
<rect x="179.389" y="337.291" width="34.643" height="22.1715" rx="2" fill="#43586B"/>
<path d="M196.017 365.005L190.017 356.691H202.018L196.017 365.005Z" fill="#43586B"/>
<path d="M188.261 351.76C188.261 351.431 188.145 351.153 187.912 350.928C187.683 350.702 187.295 350.498 186.747 350.315C185.984 350.083 185.427 349.78 185.076 349.408C184.729 349.032 184.555 348.556 184.555 347.979C184.555 347.392 184.725 346.91 185.066 346.534C185.409 346.158 185.88 345.934 186.478 345.863V344.687H187.279V345.868C187.88 345.951 188.347 346.203 188.68 346.625C189.017 347.048 189.185 347.626 189.185 348.36H188.197C188.197 347.855 188.077 347.454 187.837 347.157C187.597 346.86 187.273 346.711 186.865 346.711C186.439 346.711 186.113 346.822 185.887 347.044C185.662 347.263 185.549 347.569 185.549 347.963C185.549 348.328 185.667 348.62 185.904 348.838C186.143 349.053 186.536 349.25 187.08 349.429C187.628 349.605 188.054 349.8 188.358 350.015C188.666 350.226 188.892 350.473 189.035 350.756C189.182 351.039 189.255 351.37 189.255 351.75C189.255 352.355 189.072 352.842 188.707 353.21C188.346 353.579 187.837 353.798 187.182 353.866V354.892H186.387V353.866C185.721 353.805 185.198 353.569 184.819 353.157C184.443 352.741 184.255 352.179 184.255 351.47H185.248C185.248 351.968 185.379 352.351 185.64 352.62C185.902 352.888 186.272 353.022 186.752 353.022C187.221 353.022 187.59 352.91 187.859 352.684C188.127 352.458 188.261 352.151 188.261 351.76ZM193.756 353.774H192.757V347.152L190.754 347.888V346.985L193.6 345.917H193.756V353.774ZM197.124 349.854L197.521 345.954H201.528V346.873H198.364L198.128 349.005C198.511 348.779 198.946 348.667 199.433 348.667C200.146 348.667 200.712 348.903 201.131 349.375C201.55 349.845 201.759 350.48 201.759 351.282C201.759 352.088 201.541 352.723 201.104 353.189C200.67 353.651 200.064 353.882 199.283 353.882C198.592 353.882 198.028 353.69 197.591 353.307C197.154 352.924 196.905 352.394 196.844 351.717H197.784C197.845 352.165 198.005 352.503 198.262 352.732C198.52 352.958 198.86 353.071 199.283 353.071C199.745 353.071 200.107 352.913 200.368 352.598C200.633 352.283 200.765 351.848 200.765 351.293C200.765 350.77 200.622 350.351 200.336 350.036C200.053 349.717 199.675 349.558 199.202 349.558C198.769 349.558 198.429 349.653 198.182 349.843L197.919 350.058L197.124 349.854ZM207.748 350.439C207.748 351.603 207.549 352.467 207.152 353.033C206.754 353.599 206.133 353.882 205.288 353.882C204.454 353.882 203.836 353.606 203.435 353.055C203.034 352.5 202.826 351.673 202.812 350.573V349.247C202.812 348.097 203.01 347.243 203.408 346.685C203.805 346.126 204.428 345.847 205.277 345.847C206.119 345.847 206.738 346.117 207.135 346.658C207.533 347.195 207.737 348.026 207.748 349.15V350.439ZM206.754 349.08C206.754 348.239 206.636 347.626 206.4 347.243C206.163 346.856 205.789 346.663 205.277 346.663C204.769 346.663 204.398 346.855 204.165 347.238C203.933 347.621 203.813 348.21 203.805 349.005V350.595C203.805 351.44 203.927 352.065 204.171 352.469C204.418 352.87 204.79 353.071 205.288 353.071C205.778 353.071 206.142 352.881 206.378 352.501C206.618 352.122 206.743 351.524 206.754 350.708V349.08Z" fill="white"/>
<rect x="218.189" y="295.722" width="34.643" height="22.1715" rx="2" fill="#43586B"/>
<path d="M234.818 323.436L228.817 315.121H240.818L234.818 323.436Z" fill="#43586B"/>
<path d="M227.062 310.191C227.062 309.861 226.945 309.584 226.713 309.358C226.483 309.133 226.095 308.929 225.547 308.746C224.784 308.513 224.227 308.211 223.877 307.838C223.529 307.462 223.356 306.986 223.356 306.41C223.356 305.822 223.526 305.341 223.866 304.965C224.21 304.589 224.68 304.365 225.278 304.293V303.117H226.079V304.299C226.68 304.381 227.148 304.634 227.481 305.056C227.817 305.479 227.985 306.057 227.985 306.791H226.997C226.997 306.286 226.877 305.885 226.637 305.588C226.397 305.291 226.073 305.142 225.665 305.142C225.239 305.142 224.913 305.253 224.688 305.475C224.462 305.694 224.349 306 224.349 306.394C224.349 306.759 224.467 307.051 224.704 307.269C224.944 307.484 225.336 307.681 225.88 307.86C226.428 308.035 226.854 308.23 227.158 308.445C227.466 308.657 227.692 308.904 227.835 309.187C227.982 309.469 228.055 309.801 228.055 310.18C228.055 310.785 227.873 311.272 227.507 311.641C227.146 312.01 226.637 312.228 225.982 312.296V313.322H225.187V312.296C224.521 312.236 223.998 311.999 223.619 311.587C223.243 311.172 223.055 310.61 223.055 309.901H224.048C224.048 310.399 224.179 310.782 224.441 311.05C224.702 311.319 225.073 311.453 225.552 311.453C226.021 311.453 226.39 311.34 226.659 311.115C226.927 310.889 227.062 310.581 227.062 310.191ZM234.415 312.205H229.291V311.491L231.998 308.483C232.399 308.028 232.674 307.659 232.825 307.376C232.979 307.09 233.056 306.795 233.056 306.49C233.056 306.082 232.932 305.747 232.685 305.486C232.438 305.224 232.109 305.094 231.697 305.094C231.203 305.094 230.818 305.235 230.542 305.518C230.27 305.797 230.134 306.188 230.134 306.689H229.14C229.14 305.969 229.371 305.387 229.833 304.943C230.299 304.499 230.92 304.277 231.697 304.277C232.424 304.277 232.998 304.469 233.421 304.852C233.844 305.232 234.055 305.738 234.055 306.372C234.055 307.142 233.564 308.059 232.583 309.122L230.488 311.394H234.415V312.205ZM235.924 308.284L236.321 304.385H240.328V305.303H237.165L236.928 307.436C237.311 307.21 237.747 307.097 238.234 307.097C238.946 307.097 239.512 307.333 239.931 307.806C240.35 308.275 240.559 308.911 240.559 309.713C240.559 310.519 240.341 311.154 239.904 311.62C239.471 312.082 238.864 312.312 238.083 312.312C237.392 312.312 236.828 312.121 236.391 311.738C235.954 311.355 235.706 310.825 235.645 310.148H236.585C236.645 310.596 236.805 310.934 237.063 311.163C237.32 311.389 237.661 311.501 238.083 311.501C238.545 311.501 238.907 311.344 239.168 311.029C239.433 310.714 239.566 310.279 239.566 309.724C239.566 309.201 239.422 308.782 239.136 308.467C238.853 308.148 238.475 307.989 238.003 307.989C237.569 307.989 237.229 308.084 236.982 308.273L236.719 308.488L235.924 308.284ZM246.548 308.87C246.548 310.033 246.349 310.898 245.952 311.464C245.554 312.03 244.933 312.312 244.088 312.312C243.254 312.312 242.636 312.037 242.235 311.485C241.834 310.93 241.626 310.103 241.612 309.004V307.677C241.612 306.528 241.811 305.674 242.208 305.115C242.606 304.557 243.229 304.277 244.077 304.277C244.919 304.277 245.538 304.548 245.936 305.088C246.333 305.625 246.537 306.456 246.548 307.581V308.87ZM245.554 307.511C245.554 306.669 245.436 306.057 245.2 305.674C244.963 305.287 244.589 305.094 244.077 305.094C243.569 305.094 243.198 305.285 242.965 305.668C242.733 306.052 242.613 306.641 242.606 307.436V309.025C242.606 309.87 242.727 310.495 242.971 310.9C243.218 311.301 243.59 311.501 244.088 311.501C244.579 311.501 244.942 311.312 245.178 310.932C245.418 310.553 245.544 309.955 245.554 309.138V307.511Z" fill="white"/>
<rect x="262.532" y="240.292" width="34.643" height="22.1715" rx="2" fill="#43586B"/>
<path d="M279.161 268.007L273.16 259.693H285.161L279.161 268.007Z" fill="#43586B"/>
<path d="M271.405 254.762C271.405 254.433 271.288 254.155 271.056 253.93C270.826 253.704 270.438 253.5 269.89 253.317C269.127 253.085 268.571 252.782 268.22 252.41C267.872 252.034 267.699 251.557 267.699 250.981C267.699 250.394 267.869 249.912 268.209 249.536C268.553 249.16 269.024 248.936 269.622 248.865V247.688H270.422V248.87C271.023 248.952 271.491 249.205 271.824 249.627C272.16 250.05 272.329 250.628 272.329 251.362H271.34C271.34 250.857 271.22 250.456 270.98 250.159C270.741 249.862 270.416 249.713 270.008 249.713C269.582 249.713 269.256 249.824 269.031 250.046C268.805 250.265 268.692 250.571 268.692 250.965C268.692 251.33 268.811 251.622 269.047 251.84C269.287 252.055 269.679 252.252 270.223 252.431C270.771 252.607 271.197 252.802 271.501 253.017C271.809 253.228 272.035 253.475 272.178 253.758C272.325 254.041 272.398 254.372 272.398 254.751C272.398 255.357 272.216 255.844 271.851 256.212C271.489 256.581 270.98 256.8 270.325 256.868V257.894H269.53V256.868C268.864 256.807 268.341 256.57 267.962 256.159C267.586 255.743 267.398 255.181 267.398 254.472H268.392C268.392 254.97 268.522 255.353 268.784 255.622C269.045 255.89 269.416 256.024 269.895 256.024C270.365 256.024 270.733 255.912 271.002 255.686C271.27 255.46 271.405 255.153 271.405 254.762ZM278.758 256.776H273.634V256.062L276.341 253.054C276.742 252.599 277.018 252.231 277.168 251.948C277.322 251.661 277.399 251.366 277.399 251.062C277.399 250.653 277.275 250.319 277.028 250.057C276.781 249.796 276.452 249.665 276.04 249.665C275.546 249.665 275.161 249.806 274.885 250.089C274.613 250.369 274.477 250.759 274.477 251.26H273.483C273.483 250.541 273.714 249.959 274.176 249.515C274.642 249.071 275.263 248.849 276.04 248.849C276.767 248.849 277.342 249.04 277.764 249.423C278.187 249.803 278.398 250.31 278.398 250.943C278.398 251.713 277.907 252.63 276.926 253.693L274.832 255.965H278.758V256.776ZM280.267 252.855L280.665 248.956H284.671V249.875H281.508L281.271 252.007C281.655 251.781 282.09 251.668 282.577 251.668C283.289 251.668 283.855 251.905 284.274 252.377C284.693 252.847 284.902 253.482 284.902 254.284C284.902 255.09 284.684 255.725 284.247 256.191C283.814 256.653 283.207 256.884 282.426 256.884C281.735 256.884 281.171 256.692 280.734 256.309C280.298 255.926 280.049 255.396 279.988 254.719H280.928C280.989 255.167 281.148 255.505 281.406 255.734C281.664 255.96 282.004 256.073 282.426 256.073C282.888 256.073 283.25 255.915 283.511 255.6C283.776 255.285 283.909 254.85 283.909 254.295C283.909 253.772 283.765 253.353 283.479 253.038C283.196 252.719 282.818 252.56 282.346 252.56C281.912 252.56 281.572 252.655 281.325 252.845L281.062 253.06L280.267 252.855ZM290.891 253.441C290.891 254.605 290.692 255.469 290.295 256.035C289.897 256.601 289.276 256.884 288.431 256.884C287.597 256.884 286.979 256.608 286.578 256.057C286.177 255.502 285.969 254.674 285.955 253.575V252.249C285.955 251.099 286.154 250.245 286.551 249.687C286.949 249.128 287.572 248.849 288.42 248.849C289.262 248.849 289.881 249.119 290.279 249.66C290.676 250.197 290.88 251.028 290.891 252.152V253.441ZM289.897 252.082C289.897 251.241 289.779 250.628 289.543 250.245C289.307 249.858 288.932 249.665 288.42 249.665C287.912 249.665 287.541 249.857 287.309 250.24C287.076 250.623 286.956 251.212 286.949 252.007V253.597C286.949 254.442 287.07 255.067 287.314 255.471C287.561 255.872 287.933 256.073 288.431 256.073C288.922 256.073 289.285 255.883 289.521 255.503C289.761 255.124 289.887 254.526 289.897 253.709V252.082Z" fill="white"/>
<rect x="306.875" y="198.721" width="34.643" height="22.1715" rx="2" fill="#43586B"/>
<path d="M323.504 226.434L317.503 218.119H329.504L323.504 226.434Z" fill="#43586B"/>
<path d="M315.748 213.19C315.748 212.861 315.631 212.583 315.399 212.357C315.17 212.132 314.781 211.928 314.233 211.745C313.47 211.512 312.914 211.21 312.563 210.837C312.215 210.461 312.042 209.985 312.042 209.409C312.042 208.821 312.212 208.34 312.552 207.964C312.896 207.588 313.367 207.364 313.965 207.292V206.116H314.765V207.298C315.366 207.38 315.834 207.633 316.167 208.055C316.503 208.478 316.672 209.056 316.672 209.79H315.683C315.683 209.285 315.563 208.884 315.323 208.587C315.084 208.29 314.76 208.141 314.351 208.141C313.925 208.141 313.599 208.252 313.374 208.474C313.148 208.693 313.035 208.999 313.035 209.393C313.035 209.758 313.154 210.05 313.39 210.268C313.63 210.483 314.022 210.68 314.566 210.859C315.114 211.034 315.54 211.229 315.844 211.444C316.152 211.656 316.378 211.903 316.521 212.186C316.668 212.468 316.741 212.8 316.741 213.179C316.741 213.784 316.559 214.271 316.194 214.64C315.832 215.009 315.323 215.227 314.668 215.295V216.321H313.873V215.295C313.207 215.235 312.684 214.998 312.305 214.586C311.929 214.171 311.741 213.609 311.741 212.9H312.735C312.735 213.398 312.865 213.781 313.127 214.049C313.388 214.318 313.759 214.452 314.239 214.452C314.708 214.452 315.076 214.339 315.345 214.114C315.614 213.888 315.748 213.58 315.748 213.19ZM323.101 215.204H317.977V214.49L320.684 211.482C321.085 211.027 321.361 210.658 321.511 210.375C321.665 210.089 321.742 209.794 321.742 209.489C321.742 209.081 321.618 208.746 321.371 208.485C321.124 208.223 320.795 208.093 320.383 208.093C319.889 208.093 319.504 208.234 319.228 208.517C318.956 208.796 318.82 209.187 318.82 209.688H317.826C317.826 208.968 318.057 208.386 318.519 207.942C318.985 207.498 319.606 207.276 320.383 207.276C321.11 207.276 321.685 207.468 322.107 207.851C322.53 208.231 322.741 208.737 322.741 209.371C322.741 210.141 322.25 211.058 321.269 212.121L319.175 214.393H323.101V215.204ZM324.61 211.283L325.008 207.384H329.014V208.302H325.851L325.614 210.435C325.998 210.209 326.433 210.096 326.92 210.096C327.632 210.096 328.198 210.333 328.617 210.805C329.036 211.274 329.245 211.91 329.245 212.712C329.245 213.518 329.027 214.153 328.59 214.619C328.157 215.081 327.55 215.312 326.769 215.312C326.078 215.312 325.514 215.12 325.077 214.737C324.641 214.354 324.392 213.824 324.331 213.147H325.271C325.332 213.595 325.491 213.933 325.749 214.162C326.007 214.388 326.347 214.5 326.769 214.5C327.231 214.5 327.593 214.343 327.854 214.028C328.119 213.713 328.252 213.278 328.252 212.723C328.252 212.2 328.108 211.781 327.822 211.466C327.539 211.147 327.161 210.988 326.689 210.988C326.255 210.988 325.915 211.083 325.668 211.272L325.405 211.487L324.61 211.283ZM335.234 211.869C335.234 213.032 335.035 213.897 334.638 214.463C334.24 215.029 333.619 215.312 332.774 215.312C331.94 215.312 331.322 215.036 330.921 214.484C330.52 213.929 330.312 213.102 330.298 212.003V210.676C330.298 209.527 330.497 208.673 330.894 208.114C331.292 207.556 331.915 207.276 332.763 207.276C333.605 207.276 334.224 207.547 334.622 208.087C335.019 208.625 335.223 209.455 335.234 210.58V211.869ZM334.24 210.51C334.24 209.668 334.122 209.056 333.886 208.673C333.65 208.286 333.275 208.093 332.763 208.093C332.255 208.093 331.884 208.284 331.652 208.667C331.419 209.051 331.299 209.64 331.292 210.435V212.024C331.292 212.869 331.413 213.494 331.657 213.899C331.904 214.3 332.276 214.5 332.774 214.5C333.265 214.5 333.628 214.311 333.864 213.931C334.104 213.552 334.23 212.954 334.24 212.137V210.51Z" fill="white"/>
<rect x="351.218" y="157.148" width="34.643" height="22.1715" rx="2" fill="#43586B"/>
<path d="M367.846 184.862L361.846 176.548H373.847L367.846 184.862Z" fill="#43586B"/>
<path d="M360.091 171.618C360.091 171.288 359.974 171.011 359.741 170.785C359.512 170.56 359.124 170.355 358.576 170.173C357.813 169.94 357.256 169.638 356.906 169.265C356.558 168.889 356.385 168.413 356.385 167.836C356.385 167.249 356.555 166.768 356.895 166.392C357.239 166.016 357.709 165.792 358.307 165.72V164.544H359.108V165.726C359.709 165.808 360.177 166.06 360.51 166.483C360.846 166.905 361.014 167.484 361.014 168.218H360.026C360.026 167.713 359.906 167.312 359.666 167.015C359.426 166.717 359.102 166.569 358.694 166.569C358.268 166.569 357.942 166.68 357.717 166.902C357.491 167.12 357.378 167.426 357.378 167.82C357.378 168.186 357.496 168.477 357.733 168.696C357.973 168.911 358.365 169.108 358.909 169.287C359.457 169.462 359.883 169.657 360.187 169.872C360.495 170.083 360.721 170.33 360.864 170.613C361.011 170.896 361.084 171.227 361.084 171.607C361.084 172.212 360.902 172.699 360.536 173.068C360.175 173.437 359.666 173.655 359.011 173.723V174.749H358.216V173.723C357.55 173.662 357.027 173.426 356.648 173.014C356.272 172.599 356.084 172.037 356.084 171.328H357.077C357.077 171.825 357.208 172.208 357.469 172.477C357.731 172.746 358.101 172.88 358.581 172.88C359.05 172.88 359.419 172.767 359.688 172.542C359.956 172.316 360.091 172.008 360.091 171.618ZM367.444 173.632H362.32V172.917L365.027 169.91C365.428 169.455 365.703 169.086 365.854 168.803C366.008 168.517 366.085 168.221 366.085 167.917C366.085 167.509 365.961 167.174 365.714 166.913C365.467 166.651 365.138 166.521 364.726 166.521C364.232 166.521 363.847 166.662 363.571 166.945C363.299 167.224 363.163 167.614 363.163 168.116H362.169C362.169 167.396 362.4 166.814 362.862 166.37C363.328 165.926 363.949 165.704 364.726 165.704C365.453 165.704 366.027 165.896 366.45 166.279C366.872 166.658 367.084 167.165 367.084 167.799C367.084 168.569 366.593 169.485 365.612 170.549L363.517 172.821H367.444V173.632ZM368.953 169.711L369.35 165.812H373.357V166.73H370.194L369.957 168.862C370.34 168.637 370.775 168.524 371.262 168.524C371.975 168.524 372.541 168.76 372.96 169.233C373.379 169.702 373.588 170.338 373.588 171.14C373.588 171.945 373.37 172.581 372.933 173.046C372.5 173.508 371.893 173.739 371.112 173.739C370.421 173.739 369.857 173.548 369.42 173.165C368.983 172.781 368.734 172.251 368.674 171.575H369.614C369.674 172.022 369.834 172.361 370.092 172.59C370.349 172.815 370.69 172.928 371.112 172.928C371.574 172.928 371.936 172.771 372.197 172.456C372.462 172.14 372.594 171.705 372.594 171.15C372.594 170.628 372.451 170.209 372.165 169.894C371.882 169.575 371.504 169.416 371.031 169.416C370.598 169.416 370.258 169.51 370.011 169.7L369.748 169.915L368.953 169.711ZM379.577 170.296C379.577 171.46 379.378 172.325 378.981 172.891C378.583 173.456 377.962 173.739 377.117 173.739C376.283 173.739 375.665 173.464 375.264 172.912C374.863 172.357 374.655 171.53 374.641 170.431V169.104C374.641 167.955 374.84 167.101 375.237 166.542C375.635 165.983 376.258 165.704 377.106 165.704C377.948 165.704 378.567 165.974 378.965 166.515C379.362 167.052 379.566 167.883 379.577 169.007V170.296ZM378.583 168.938C378.583 168.096 378.465 167.484 378.229 167.101C377.992 166.714 377.618 166.521 377.106 166.521C376.598 166.521 376.227 166.712 375.994 167.095C375.762 167.478 375.642 168.067 375.635 168.862V170.452C375.635 171.297 375.756 171.922 376 172.327C376.247 172.728 376.619 172.928 377.117 172.928C377.607 172.928 377.971 172.738 378.207 172.359C378.447 171.979 378.572 171.381 378.583 170.565V168.938Z" fill="white"/>
<rect x="395.561" y="87.8633" width="34.643" height="22.1715" rx="2" fill="#43586B"/>
<path d="M412.19 115.577L406.189 107.263H418.19L412.19 115.577Z" fill="#43586B"/>
<path d="M404.434 102.333C404.434 102.004 404.318 101.727 404.085 101.501C403.856 101.275 403.467 101.071 402.919 100.889C402.157 100.656 401.6 100.353 401.249 99.981C400.902 99.605 400.728 99.1287 400.728 98.5522C400.728 97.965 400.898 97.4834 401.238 97.1074C401.582 96.7314 402.053 96.5076 402.651 96.436V95.2598H403.451V96.4414C404.053 96.5238 404.52 96.7762 404.853 97.1987C405.189 97.6213 405.358 98.1995 405.358 98.9336H404.369C404.369 98.4287 404.25 98.0277 404.01 97.7305C403.77 97.4333 403.446 97.2847 403.037 97.2847C402.611 97.2847 402.286 97.3957 402.06 97.6177C401.834 97.8361 401.722 98.1423 401.722 98.5361C401.722 98.9014 401.84 99.1932 402.076 99.4116C402.316 99.6265 402.708 99.8234 403.252 100.002C403.8 100.178 404.226 100.373 404.531 100.588C404.839 100.799 405.064 101.046 405.207 101.329C405.354 101.612 405.428 101.943 405.428 102.323C405.428 102.928 405.245 103.415 404.88 103.784C404.518 104.153 404.01 104.371 403.354 104.439V105.465H402.559V104.439C401.893 104.378 401.371 104.142 400.991 103.73C400.615 103.315 400.427 102.752 400.427 102.043H401.421C401.421 102.541 401.551 102.924 401.813 103.193C402.074 103.461 402.445 103.596 402.925 103.596C403.394 103.596 403.763 103.483 404.031 103.257C404.3 103.032 404.434 102.724 404.434 102.333ZM411.787 104.348H406.663V103.633L409.37 100.625C409.771 100.171 410.047 99.8019 410.197 99.519C410.351 99.2326 410.428 98.9372 410.428 98.6328C410.428 98.2246 410.305 97.8898 410.057 97.6284C409.81 97.367 409.481 97.2363 409.069 97.2363C408.575 97.2363 408.19 97.3778 407.914 97.6606C407.642 97.9399 407.506 98.3302 407.506 98.8315H406.513C406.513 98.1118 406.744 97.5299 407.205 97.0859C407.671 96.6419 408.292 96.4199 409.069 96.4199C409.796 96.4199 410.371 96.6115 410.793 96.9946C411.216 97.3742 411.427 97.8809 411.427 98.5146C411.427 99.2845 410.937 100.201 409.955 101.265L407.861 103.537H411.787V104.348ZM413.296 100.427L413.694 96.5273H417.701V97.4458H414.537L414.301 99.5781C414.684 99.3525 415.119 99.2397 415.606 99.2397C416.318 99.2397 416.884 99.4761 417.303 99.9487C417.722 100.418 417.932 101.053 417.932 101.855C417.932 102.661 417.713 103.297 417.276 103.762C416.843 104.224 416.236 104.455 415.455 104.455C414.764 104.455 414.2 104.264 413.764 103.88C413.327 103.497 413.078 102.967 413.017 102.291H413.957C414.018 102.738 414.177 103.076 414.435 103.306C414.693 103.531 415.033 103.644 415.455 103.644C415.917 103.644 416.279 103.486 416.54 103.171C416.805 102.856 416.938 102.421 416.938 101.866C416.938 101.343 416.795 100.924 416.508 100.609C416.225 100.291 415.848 100.131 415.375 100.131C414.942 100.131 414.601 100.226 414.354 100.416L414.091 100.631L413.296 100.427ZM423.92 101.012C423.92 102.176 423.722 103.041 423.324 103.606C422.927 104.172 422.305 104.455 421.46 104.455C420.626 104.455 420.008 104.179 419.607 103.628C419.206 103.073 418.999 102.246 418.984 101.146V99.8198C418.984 98.6704 419.183 97.8164 419.58 97.2578C419.978 96.6992 420.601 96.4199 421.45 96.4199C422.291 96.4199 422.911 96.6903 423.308 97.231C423.705 97.7681 423.91 98.5988 423.92 99.7231V101.012ZM422.927 99.6533C422.927 98.8118 422.808 98.1995 422.572 97.8164C422.336 97.4297 421.962 97.2363 421.45 97.2363C420.941 97.2363 420.571 97.4279 420.338 97.811C420.105 98.1942 419.985 98.7832 419.978 99.5781V101.168C419.978 102.013 420.1 102.638 420.343 103.042C420.59 103.444 420.963 103.644 421.46 103.644C421.951 103.644 422.314 103.454 422.551 103.075C422.791 102.695 422.916 102.097 422.927 101.281V99.6533Z" fill="white"/>
<defs>
<linearGradient id="paint0_linear" x1="120.308" y1="389.732" x2="120.308" y2="434.893" gradientUnits="userSpaceOnUse">
<stop stop-color="#74B7DE"/>
<stop offset="1" stop-color="#398CC1"/>
</linearGradient>
<linearGradient id="paint1_linear" x1="157.325" y1="360.86" x2="157.325" y2="434.894" gradientUnits="userSpaceOnUse">
<stop stop-color="#74B7DE"/>
<stop offset="1" stop-color="#398CC1"/>
</linearGradient>
<linearGradient id="paint2_linear" x1="196.563" y1="369.744" x2="196.563" y2="434.893" gradientUnits="userSpaceOnUse">
<stop stop-color="#74B7DE"/>
<stop offset="1" stop-color="#398CC1"/>
</linearGradient>
<linearGradient id="paint3_linear" x1="235.43" y1="326.063" x2="235.43" y2="434.892" gradientUnits="userSpaceOnUse">
<stop stop-color="#74B7DE"/>
<stop offset="1" stop-color="#398CC1"/>
</linearGradient>
<linearGradient id="paint4_linear" x1="279.48" y1="271.279" x2="279.48" y2="434.893" gradientUnits="userSpaceOnUse">
<stop stop-color="#74B7DE"/>
<stop offset="1" stop-color="#398CC1"/>
</linearGradient>
<linearGradient id="paint5_linear" x1="324.27" y1="230.562" x2="324.27" y2="434.894" gradientUnits="userSpaceOnUse">
<stop stop-color="#74B7DE"/>
<stop offset="1" stop-color="#398CC1"/>
</linearGradient>
<linearGradient id="paint6_linear" x1="368.69" y1="189.103" x2="368.69" y2="434.893" gradientUnits="userSpaceOnUse">
<stop stop-color="#74B7DE"/>
<stop offset="1" stop-color="#398CC1"/>
</linearGradient>
<linearGradient id="paint7_linear" x1="412.74" y1="120.992" x2="412.74" y2="434.894" gradientUnits="userSpaceOnUse">
<stop stop-color="#74B7DE"/>
<stop offset="1" stop-color="#398CC1"/>
</linearGradient>
</defs>
</svg>
