<svg width="30" height="26" viewBox="0 0 30 26" fill="none" xmlns="http://www.w3.org/2000/svg">
<path d="M21.3641 2.24989C22.4952 2.25433 23.6023 2.57438 24.5587 3.1735C26.1011 4.20539 27.2009 5.77026 27.6436 7.56298C28.0863 9.3557 27.8401 11.2478 26.9531 12.8702C25.6448 15.2944 20.1974 19.8445 15.5369 23.2941C15.4755 23.3408 15.4004 23.3663 15.3231 23.3669C15.2446 23.3664 15.1684 23.3409 15.1056 23.2941C10.4451 19.8494 5.0002 15.3041 3.69182 12.8702C2.80336 11.2471 2.5564 9.35373 2.99913 7.55969C3.44186 5.76565 4.54251 4.19968 6.08625 3.16743C7.04312 2.56953 8.15002 2.25037 9.28084 2.24627C11.2428 2.24627 13.0777 3.79774 14.3189 5.4486L15.3231 6.78187L16.3273 5.4486C17.5648 3.79774 19.3997 2.24627 21.3654 2.24627L21.3641 2.24989ZM21.5987 0.549316C20.3719 0.561422 19.165 0.858902 18.0751 1.4178C16.9852 1.97671 16.0426 2.78144 15.3231 3.76741C14.6029 2.7816 13.6598 1.977 12.5695 1.41814C11.4793 0.859274 10.2722 0.561711 9.04507 0.549316C7.62685 0.55266 6.23838 0.953048 5.03929 1.70444C3.15716 2.95109 1.81195 4.85004 1.26714 7.02929C0.72232 9.20854 1.01716 11.5111 2.09391 13.4859C3.90683 16.8495 11.5555 22.6978 14.3213 24.7341C14.6104 24.9491 14.9619 25.0653 15.3231 25.0653C15.6843 25.0653 16.0358 24.9491 16.3248 24.7341C19.0882 22.6929 26.7394 16.8495 28.5523 13.4859C29.6285 11.5107 29.9228 9.20809 29.3776 7.02889C28.8323 4.84968 27.4868 2.95091 25.6044 1.70444C24.4055 0.952685 23.0169 0.552266 21.5987 0.549316Z" fill="#8A96A3" stroke="#8A96A3" stroke-width="0.7"/>
</svg>
