<svg width="27" height="48" viewBox="0 0 27 48" fill="none" xmlns="http://www.w3.org/2000/svg">
<circle cx="13.5" cy="34.5" r="12.5" stroke="#8A96A3" stroke-width="2"/>
<path d="M12.4912 37.96V36.6782C12.4912 36.0356 12.6519 35.54 12.9731 35.1914C13.2944 34.8359 13.814 34.4839 14.5317 34.1353C15.4272 33.6909 15.875 32.8604 15.875 31.6436C15.875 30.7959 15.6289 30.1191 15.1367 29.6133C14.6445 29.1006 14.0088 28.8442 13.2295 28.8442C12.4707 28.8442 11.8418 29.1143 11.3428 29.6543C10.8506 30.1943 10.6045 30.8779 10.6045 31.7051C10.6045 31.958 10.6318 32.2383 10.6865 32.5459L9.12793 32.3921C9.08008 32.1118 9.05615 31.8179 9.05615 31.5103C9.05615 30.2935 9.44238 29.2988 10.2148 28.5264C10.9941 27.7471 11.9922 27.3574 13.209 27.3574C14.4463 27.3574 15.4614 27.7505 16.2544 28.5366C17.0474 29.3228 17.4438 30.3481 17.4438 31.6128C17.4438 32.1323 17.3789 32.604 17.249 33.0278C17.126 33.4517 16.9551 33.8105 16.7363 34.1045C16.5176 34.3984 16.2783 34.6445 16.0186 34.8428C15.7656 35.041 15.4888 35.2017 15.188 35.3247C14.7847 35.4956 14.4873 35.6904 14.2959 35.9092C14.1113 36.1279 14.019 36.4287 14.019 36.8115V37.96H12.4912ZM14.1421 41.8564C13.9097 42.0889 13.6328 42.2051 13.3115 42.2051C12.9902 42.2051 12.7134 42.0889 12.481 41.8564C12.2485 41.624 12.1323 41.3438 12.1323 41.0156C12.1323 40.6943 12.2485 40.4175 12.481 40.1851C12.7202 39.9458 12.9971 39.8262 13.3115 39.8262C13.6328 39.8262 13.9097 39.9458 14.1421 40.1851C14.3745 40.4175 14.4907 40.6943 14.4907 41.0156C14.4907 41.3438 14.3745 41.624 14.1421 41.8564Z" fill="#8A96A3"/>
<path d="M12.4912 37.96H12.0912V38.36H12.4912V37.96ZM12.9731 35.1914L13.2673 35.4625L13.2699 35.4596L12.9731 35.1914ZM14.5317 34.1353L14.7065 34.4951L14.7095 34.4936L14.5317 34.1353ZM15.1367 29.6133L14.8482 29.8903L14.85 29.8922L15.1367 29.6133ZM11.3428 29.6543L11.049 29.3828L11.0471 29.3849L11.3428 29.6543ZM10.6865 32.5459L10.6472 32.944L11.1728 32.9958L11.0803 32.4759L10.6865 32.5459ZM9.12793 32.3921L8.73364 32.4594L8.78499 32.7602L9.08865 32.7902L9.12793 32.3921ZM17.249 33.0278L16.8665 32.9106L16.8649 32.9163L17.249 33.0278ZM16.0186 34.8428L15.7759 34.5248L15.7718 34.528L16.0186 34.8428ZM15.188 35.3247L15.0365 34.9545L15.0319 34.9564L15.188 35.3247ZM14.2959 35.9092L13.9948 35.6457L13.9902 35.6512L14.2959 35.9092ZM14.019 37.96V38.36H14.419V37.96H14.019ZM14.1421 40.1851L13.8551 40.4638L13.8592 40.4679L14.1421 40.1851ZM12.8912 37.96V36.6782H12.0912V37.96H12.8912ZM12.8912 36.6782C12.8912 36.0999 13.0352 35.7144 13.2673 35.4625L12.679 34.9203C12.2685 35.3657 12.0912 35.9714 12.0912 36.6782H12.8912ZM13.2699 35.4596C13.5413 35.1593 14.0083 34.8342 14.7065 34.4951L14.357 33.7755C13.6197 34.1336 13.0475 34.5126 12.6764 34.9232L13.2699 35.4596ZM14.7095 34.4936C15.2267 34.2369 15.6257 33.8615 15.8913 33.3689C16.1544 32.8808 16.275 32.2996 16.275 31.6436H15.475C15.475 32.2043 15.3717 32.6468 15.1871 32.9893C15.0049 33.3272 14.7322 33.5892 14.3539 33.7769L14.7095 34.4936ZM16.275 31.6436C16.275 30.714 16.0025 29.9295 15.4234 29.3343L14.85 29.8922C15.2554 30.3088 15.475 30.8778 15.475 31.6436H16.275ZM15.4253 29.3363C14.85 28.737 14.1061 28.4442 13.2295 28.4442V29.2442C13.9115 29.2442 14.4391 29.4642 14.8482 29.8903L15.4253 29.3363ZM13.2295 28.4442C12.3632 28.4442 11.6264 28.7579 11.049 29.3828L11.6366 29.9258C12.0572 29.4706 12.5782 29.2442 13.2295 29.2442V28.4442ZM11.0471 29.3849C10.4789 30.0084 10.2045 30.7924 10.2045 31.7051H11.0045C11.0045 30.9635 11.2223 30.3803 11.6384 29.9237L11.0471 29.3849ZM10.2045 31.7051C10.2045 31.9862 10.2348 32.2903 10.2927 32.6159L11.0803 32.4759C11.0289 32.1862 11.0045 31.9298 11.0045 31.7051H10.2045ZM10.7258 32.1478L9.16721 31.994L9.08865 32.7902L10.6472 32.944L10.7258 32.1478ZM9.52222 32.3248C9.47846 32.0685 9.45615 31.7971 9.45615 31.5103H8.65615C8.65615 31.8386 8.68169 32.1552 8.73364 32.4594L9.52222 32.3248ZM9.45615 31.5103C9.45615 30.3863 9.8091 29.4978 10.4977 28.8092L9.932 28.2435C9.07567 29.0999 8.65615 30.2006 8.65615 31.5103H9.45615ZM10.4977 28.8092C11.1938 28.1131 12.0862 27.7574 13.209 27.7574V26.9574C11.8982 26.9574 10.7945 27.3811 9.932 28.2435L10.4977 28.8092ZM13.209 27.7574C14.3533 27.7574 15.2631 28.1172 15.9728 28.8207L16.536 28.2526C15.6597 27.3838 14.5393 26.9574 13.209 26.9574V27.7574ZM15.9728 28.8207C16.6797 29.5215 17.0438 30.4394 17.0438 31.6128H17.8438C17.8438 30.2569 17.415 29.124 16.536 28.2526L15.9728 28.8207ZM17.0438 31.6128C17.0438 32.0993 16.983 32.5307 16.8666 32.9106L17.6315 33.145C17.7748 32.6774 17.8438 32.1654 17.8438 31.6128H17.0438ZM16.8649 32.9163C16.7525 33.3034 16.6005 33.617 16.4154 33.8657L17.0572 34.3433C17.3096 34.0041 17.4994 33.5999 17.6332 33.1394L16.8649 32.9163ZM16.4154 33.8657C16.2163 34.1333 16.0027 34.3517 15.7759 34.5248L16.2612 35.1608C16.554 34.9373 16.8189 34.6636 17.0572 34.3433L16.4154 33.8657ZM15.7718 34.528C15.5483 34.7032 15.3035 34.8453 15.0365 34.9545L15.3394 35.6949C15.674 35.5581 15.983 35.3789 16.2653 35.1576L15.7718 34.528ZM15.0319 34.9564C14.5987 35.14 14.2411 35.3644 13.9949 35.6458L14.5969 36.1726C14.7335 36.0165 14.9706 35.8512 15.344 35.693L15.0319 34.9564ZM13.9902 35.6512C13.7268 35.9634 13.619 36.3664 13.619 36.8115H14.419C14.419 36.491 14.4958 36.2925 14.6016 36.1671L13.9902 35.6512ZM13.619 36.8115V37.96H14.419V36.8115H13.619ZM14.019 37.56H12.4912V38.36H14.019V37.56ZM13.8592 41.5736C13.6999 41.7329 13.524 41.8051 13.3115 41.8051V42.6051C13.7416 42.6051 14.1194 42.4448 14.4249 42.1393L13.8592 41.5736ZM13.3115 41.8051C13.099 41.8051 12.9231 41.7329 12.7638 41.5736L12.1981 42.1393C12.5036 42.4448 12.8814 42.6051 13.3115 42.6051V41.8051ZM12.7638 41.5736C12.6062 41.416 12.5323 41.2375 12.5323 41.0156H11.7323C11.7323 41.45 11.8908 41.832 12.1981 42.1393L12.7638 41.5736ZM12.5323 41.0156C12.5323 40.8031 12.6045 40.6272 12.7638 40.4679L12.1981 39.9022C11.8926 40.2077 11.7323 40.5855 11.7323 41.0156H12.5323ZM12.7638 40.4679C12.9343 40.2974 13.1118 40.2262 13.3115 40.2262V39.4262C12.8824 39.4262 12.5061 39.5942 12.1981 39.9022L12.7638 40.4679ZM13.3115 40.2262C13.5202 40.2262 13.6948 40.2987 13.8552 40.4638L14.429 39.9063C14.1245 39.5929 13.7455 39.4262 13.3115 39.4262V40.2262ZM13.8592 40.4679C14.0186 40.6272 14.0907 40.8031 14.0907 41.0156H14.8907C14.8907 40.5855 14.7304 40.2077 14.4249 39.9022L13.8592 40.4679ZM14.0907 41.0156C14.0907 41.2375 14.0168 41.416 13.8592 41.5736L14.4249 42.1393C14.7322 41.832 14.8907 41.45 14.8907 41.0156H14.0907Z" fill="#8A96A3"/>
</svg>
