<?xml version="1.0" encoding="utf-8"?>
<!-- Generator: Adobe Illustrator 21.0.2, SVG Export Plug-In . SVG Version: 6.00 Build 0)  -->
<svg version="1.1" id="Layer_1" xmlns="http://www.w3.org/2000/svg" xmlns:xlink="http://www.w3.org/1999/xlink" x="0px" y="0px"
	 viewBox="0 0 27 27.4" style="enable-background:new 0 0 27 27.4;" xml:space="preserve">
<style type="text/css">
	.st0{fill:none;}
	.st1{fill:#8A96A3;}
	.st2{fill:none;stroke:#8A96A3;stroke-width:2;}
</style>
<g>
	<polygon class="st0" points="9.1,11.3 9.1,11.7 9.1,11.3 	"/>
	<polygon class="st0" points="11.3,8.6 11.3,8.6 11.3,8.6 	"/>
	<polygon class="st0" points="17.2,11.9 17.2,11.9 17.2,11.9 17.2,11.9 17.3,11.9 17.2,11.9 	"/>
	<path class="st1" d="M17.6,12c0.1-0.5,0.2-1,0.2-1.5c0-1.4-0.4-2.5-1.3-3.4c-0.9-0.9-2-1.3-3.3-1.3c-1.3,0-2.4,0.4-3.3,1.3
		c-0.9,0.9-1.3,2-1.3,3.3c0,0.3,0,0.6,0.1,0.9l0.1,0.3l0.3,0l0-0.4v0l0,0.4l1.6,0.2l0.5,0.1l-0.1-0.5C11,11.1,11,10.8,11,10.6
		c0-0.7,0.2-1.3,0.6-1.8c0.4-0.5,0.9-0.7,1.6-0.7c0.7,0,1.2,0.2,1.6,0.6l0,0c0.4,0.4,0.6,1,0.6,1.8c0,0.6-0.1,1-0.3,1.3
		c-0.2,0.3-0.5,0.6-0.8,0.8l0,0c-0.7,0.4-1.3,0.7-1.7,1.1l0,0c0,0,0,0,0,0c0,0,0,0,0,0l0,0c-0.4,0.4-0.6,1-0.6,1.8v1.3v0.4h0.4H14
		h0.4v-0.4v-1.1c0-0.3,0.1-0.5,0.2-0.6c0.1-0.2,0.4-0.3,0.7-0.5l0,0c0.3-0.1,0.6-0.3,0.9-0.5l0,0c0,0,0,0,0,0c0,0,0,0,0,0l0,0
		c0.3-0.2,0.6-0.5,0.8-0.8C17.3,12.9,17.5,12.5,17.6,12L17.6,12C17.6,12.1,17.6,12,17.6,12C17.6,12,17.6,12,17.6,12L17.6,12z
		 M11.3,8.6L11.3,8.6L11.3,8.6L11.3,8.6z M17.2,11.9L17.2,11.9L17.2,11.9L17.2,11.9L17.2,11.9L17.2,11.9L17.2,11.9z"/>
	<path class="st1" d="M14.4,18.8C14.4,18.8,14.4,18.8,14.4,18.8C14.4,18.8,14.4,18.8,14.4,18.8L14.4,18.8c-0.3-0.3-0.7-0.5-1.1-0.5
		c-0.4,0-0.8,0.2-1.1,0.5c-0.3,0.3-0.5,0.7-0.5,1.1c0,0.4,0.2,0.8,0.5,1.1c0.3,0.3,0.7,0.5,1.1,0.5c0.4,0,0.8-0.2,1.1-0.5
		c0.3-0.3,0.5-0.7,0.5-1.1C14.9,19.5,14.7,19.1,14.4,18.8L14.4,18.8z"/>
</g>
<circle class="st2" cx="13.5" cy="13.7" r="12.5"/>
</svg>
