<svg width="28" height="29" viewBox="0 0 28 29" fill="none" xmlns="http://www.w3.org/2000/svg">
<path d="M25.4178 27.9897C25.2778 27.9897 25.1281 27.9798 24.9675 27.9699C24.8069 27.96 24.6637 27.9523 24.4998 27.9523H18.4322C18.2683 27.9523 18.1066 27.9622 17.9645 27.9699C17.8224 27.9776 17.6531 27.9897 17.5164 27.9897C17.3084 28.0152 17.0974 27.9933 16.8988 27.9256C16.7001 27.858 16.5189 27.7464 16.3681 27.5988C16.2173 27.4512 16.1008 27.2714 16.0271 27.0724C15.9534 26.8734 15.9243 26.6603 15.942 26.4485V19.7331C15.942 19.0088 14.8287 18.302 13.9986 18.302C13.1685 18.302 12.0531 19.0088 12.0531 19.7331V26.4485C12.0707 26.6601 12.0416 26.873 11.968 27.0718C11.8944 27.2706 11.7781 27.4503 11.6276 27.5978C11.4771 27.7454 11.2961 27.8571 11.0978 27.9249C10.8994 27.9927 10.6887 28.0148 10.4808 27.9897C10.3409 27.9897 10.1911 27.9798 10.0305 27.9699C9.86995 27.96 9.72671 27.9523 9.56287 27.9523H3.49521C3.33137 27.9523 3.16969 27.9622 3.02755 27.9699C2.88541 27.9776 2.71614 27.9897 2.57943 27.9897C2.37143 28.0152 2.16044 27.9933 1.96182 27.9256C1.7632 27.858 1.58192 27.7464 1.43115 27.5988C1.28038 27.4512 1.1639 27.2714 1.09019 27.0724C1.01648 26.8734 0.987377 26.6603 1.005 26.4485V14.2056C0.994873 13.8487 1.06826 13.4944 1.21914 13.1717C1.37003 12.8491 1.59412 12.5673 1.87305 12.3495L2.06076 12.1613L12.3189 1.70958C12.5394 1.48471 12.8014 1.30625 13.09 1.18448C13.3787 1.0627 13.6882 1 14.0008 1C14.3134 1 14.6229 1.0627 14.9115 1.18448C15.2001 1.30625 15.4622 1.48471 15.6826 1.70958L26.1285 12.3495C26.4074 12.5674 26.6314 12.8492 26.7823 13.1718C26.9332 13.4944 27.0066 13.8487 26.9965 14.2056V26.4551C27.0126 26.6894 26.9727 26.9242 26.8804 27.1396C26.788 27.355 26.6459 27.5447 26.4659 27.6925C26.1582 27.9056 25.7899 28.01 25.4178 27.9897ZM13.9975 16.6606C15.649 16.6606 17.5674 18.0059 17.5674 19.743V26.3373C17.6618 26.3373 17.7627 26.3296 17.869 26.323C18.0448 26.3131 18.2358 26.3032 18.4311 26.3032H24.4987C24.6962 26.3032 24.8839 26.3131 25.063 26.323C25.1715 26.3307 25.268 26.3351 25.3614 26.3373V14.2056C25.3614 13.9018 25.3494 13.8875 24.9903 13.533L24.7809 13.3271L14.5227 2.86878C14.3812 2.73054 14.1923 2.65333 13.9959 2.65333C13.7994 2.65333 13.6106 2.73054 13.4691 2.86878L3.00368 13.5286C2.64453 13.8831 2.63042 13.8985 2.63042 14.2012V26.3384C2.72482 26.3384 2.82573 26.3307 2.93207 26.3241C3.10785 26.3142 3.29882 26.3043 3.49413 26.3043H9.56179C9.75927 26.3043 9.94699 26.3142 10.126 26.3241C10.2345 26.3318 10.3311 26.3362 10.4255 26.3384V19.7441C10.4255 18.0059 12.3471 16.6606 13.9975 16.6606Z" fill="white" stroke="white" stroke-width="0.7"/>
</svg>
