<svg width="34" height="34" viewBox="0 0 34 34" fill="none" xmlns="http://www.w3.org/2000/svg">
<path d="M33.412 10.3861L33.412 10.3861C33.3349 8.63829 33.0508 7.4154 32.6355 6.34696C32.2044 5.20719 31.5409 4.18454 30.6711 3.33375C29.8216 2.47203 28.7933 1.80192 27.6646 1.37676C26.5915 0.962094 25.3753 0.677781 23.6274 0.60064C21.9032 0.518794 21.3495 0.5 17.0031 0.5C12.6559 0.5 12.1036 0.518808 10.3861 0.59425L10.3861 0.594254C8.63822 0.671316 7.41536 0.955759 6.34726 1.37069C5.20723 1.8018 4.18457 2.46536 3.33377 3.33514C2.47198 4.18471 1.80215 5.21302 1.37677 6.34161C0.962111 7.41497 0.677784 8.63088 0.60064 10.3789C0.518794 12.1031 0.5 12.6567 0.5 17.0031C0.5 21.3503 0.518808 21.9026 0.59425 23.6201L0.594254 23.6202C0.671316 25.368 0.955756 26.5909 1.37094 27.6593C1.80266 28.8006 2.47278 29.8225 3.33444 30.6718C4.18408 31.5338 5.21265 32.2042 6.34166 32.6295C7.41518 33.0442 8.6313 33.3286 10.38 33.4057C12.0973 33.4813 12.6499 33.4999 16.997 33.4999C21.3442 33.4999 21.8965 33.4813 23.6141 33.4057C25.3628 33.3285 26.586 33.0441 27.6547 32.6285C29.9364 31.7462 31.7404 29.9422 32.6226 27.6606L32.6226 27.6604C33.0375 26.5865 33.3224 25.3698 33.3995 23.6202L33.3995 23.6201C33.475 21.9026 33.4938 21.3503 33.4938 17.0031C33.4938 12.6591 33.4875 12.1051 33.412 10.3861ZM29.5313 23.451L29.5313 23.4511C29.4649 24.9577 29.2143 25.7479 29.0147 26.2612L29.0142 26.2625C28.5272 27.5249 27.5249 28.5273 26.2625 29.0142L26.2612 29.0147C25.7482 29.2142 24.9519 29.4649 23.4511 29.5311L23.4509 29.5311C21.774 29.6058 21.2763 29.6243 17.0095 29.6243C12.7425 29.6243 12.2386 29.6058 10.5679 29.5311L10.5675 29.5311C9.06096 29.4649 8.27076 29.2143 7.75746 29.0147L7.75748 29.0146L7.74957 29.0117C7.12402 28.7805 6.55695 28.4149 6.09834 27.9395L6.09315 27.9341L6.08781 27.9289C5.60923 27.4615 5.24393 26.8993 5.01339 26.2755L5.01345 26.2755L5.0104 26.2676C4.81087 25.7545 4.56015 24.958 4.494 23.4575L4.49399 23.4572C4.41926 21.7803 4.40071 21.2825 4.40071 17.0156C4.40071 12.7486 4.41926 12.2447 4.49398 10.5743L4.494 10.5738C4.56015 9.06731 4.81078 8.27711 5.0104 7.76381L5.01046 7.76383L5.01341 7.75587C5.24451 7.13036 5.6096 6.56446 6.0899 6.10641L6.09637 6.10024L6.10262 6.09383C6.56969 5.61533 7.13183 5.25009 7.75572 5.01981L7.75574 5.01988L7.76381 5.01674C8.27688 4.81722 9.07347 4.56648 10.574 4.5001L10.5741 4.50009C12.2511 4.42561 12.749 4.40682 17.0156 4.40682C21.2888 4.40682 21.7864 4.42561 23.4572 4.50009L23.4575 4.5001C24.9641 4.56649 25.7543 4.81712 26.2676 5.01674L26.2676 5.01681L26.2756 5.01979C26.9011 5.25072 27.4681 5.61627 27.9267 6.09171L27.9319 6.09708L27.9372 6.1023C28.4158 6.56966 28.7811 7.13188 29.0116 7.75587L29.0116 7.75589L29.0147 7.76381C29.2142 8.27689 29.4649 9.07323 29.5313 10.574L29.5313 10.5741C29.6058 12.2511 29.6246 12.7488 29.6246 17.0156C29.6246 21.2824 29.6058 21.774 29.5313 23.451Z" fill="#171736" stroke="#171736"/>
<path d="M17.0033 8.28271C12.1889 8.28271 8.28296 12.1884 8.28296 17.0031C8.28296 21.8177 12.1889 25.7234 17.0033 25.7234C21.8179 25.7234 25.7237 21.8177 25.7237 17.0031C25.7237 12.1884 21.8179 8.28271 17.0033 8.28271ZM17.0033 21.8354C14.3353 21.8354 12.171 19.6713 12.171 17.0031C12.171 14.3348 14.3353 12.1707 17.0033 12.1707C19.6716 12.1707 21.8357 14.3348 21.8357 17.0031C21.8357 19.6714 19.6716 21.8354 17.0033 21.8354Z" fill="#171736" stroke="#171736"/>
<path d="M25.4438 9.49912C25.9956 9.49912 26.443 9.05178 26.443 8.5C26.443 7.94811 25.9956 7.50088 25.4438 7.50088C24.8921 7.50088 24.4447 7.94815 24.4447 8.5C24.4447 9.05174 24.892 9.49912 25.4438 9.49912Z" fill="#171736" stroke="#171736" stroke-width="0.998242"/>
</svg>
