<svg width="19" height="20" viewBox="0 0 19 20" fill="none" xmlns="http://www.w3.org/2000/svg">
<path fill-rule="evenodd" clip-rule="evenodd" d="M1.97676 3.20566C1.97676 2.59815 2.46924 2.10566 3.07676 2.10566H8.23934C8.53108 2.10566 8.81087 2.22156 9.01716 2.42785L16.7839 10.1946C17.2135 10.6242 17.2135 11.3207 16.7839 11.7503L11.6214 16.9129C11.1918 17.3424 10.4953 17.3424 10.0657 16.9129L2.29894 9.14606C2.09265 8.93977 1.97676 8.65998 1.97676 8.36825V3.20566ZM3.07676 0.305664C1.47513 0.305664 0.176758 1.60404 0.176758 3.20566V8.36825C0.176758 9.13737 0.482293 9.875 1.02615 10.4189L8.79294 18.1856C9.92546 19.3182 11.7616 19.3182 12.8942 18.1856L18.0567 13.0231C19.1893 11.8905 19.1893 10.0544 18.0567 8.92184L10.29 1.15505C9.7461 0.611199 9.00847 0.305664 8.23934 0.305664H3.07676ZM5.52873 6.53203C5.52873 6.04835 5.92083 5.65625 6.40451 5.65625C6.88819 5.65625 7.28029 6.04835 7.28029 6.53203C7.28029 7.01571 6.88819 7.40781 6.40451 7.40781C5.92083 7.40781 5.52873 7.01571 5.52873 6.53203ZM6.40451 3.85625C4.92672 3.85625 3.72873 5.05423 3.72873 6.53203C3.72873 8.00982 4.92672 9.20781 6.40451 9.20781C7.8823 9.20781 9.08029 8.00982 9.08029 6.53203C9.08029 5.05423 7.8823 3.85625 6.40451 3.85625Z" fill="#3A8CC1"/>
</svg>
