<?xml version="1.0" encoding="utf-8"?>
<!-- Generator: Adobe Illustrator 21.0.2, SVG Export Plug-In . SVG Version: 6.00 Build 0)  -->
<svg version="1.1" id="Layer_1" xmlns="http://www.w3.org/2000/svg" xmlns:xlink="http://www.w3.org/1999/xlink" x="0px" y="0px"
	 viewBox="0 0 36 32" style="enable-background:new 0 0 36 32;" xml:space="preserve">
<style type="text/css">
	.st0{fill:#FF0000;stroke:#FF0000;stroke-width:0.7;}
</style>
<path class="st0" d="M35.2,8.8c-0.7-2.6-2.3-5-4.5-6.5C29.2,1.5,27.5,1,25.8,1c-1.5,0-2.9,0.4-4.2,1.1c-1.3,0.7-2.4,1.7-3.3,2.9
	c-0.9-1.2-2-2.2-3.3-2.9c-1.3-0.7-2.8-1-4.2-1.1C9,1,7.3,1.5,5.9,2.4C3.6,3.9,2,6.2,1.3,8.8c-0.7,2.6-0.3,5.4,1,7.8
	C4.5,20.8,13.7,27.9,17,30.4c0.3,0.3,0.8,0.4,1.2,0.4s0.9-0.1,1.2-0.4c3.3-2.5,12.5-9.6,14.7-13.7C35.5,14.3,35.8,11.5,35.2,8.8z"/>
</svg>
