<svg width="36" height="32" viewBox="0 0 36 32" fill="none" xmlns="http://www.w3.org/2000/svg">
<path d="M25.528 3.03616C26.8903 3.04155 28.2237 3.43056 29.3758 4.15873C31.2335 5.41293 32.5582 7.31491 33.0914 9.49383C33.6246 11.6727 33.3281 13.9724 32.2597 15.9443C30.6838 18.8907 24.1227 24.4212 18.5092 28.6139C18.4353 28.6706 18.3449 28.7016 18.2517 28.7023C18.1572 28.7016 18.0654 28.6707 17.9898 28.6139C12.3763 24.427 5.81812 18.9025 4.24221 15.9443C3.17209 13.9716 2.87463 11.6704 3.40789 9.48983C3.94114 7.30931 5.26684 5.40598 7.12623 4.15136C8.27876 3.42466 9.61198 3.03674 10.974 3.03176C13.3371 3.03176 15.5472 4.91745 17.0422 6.92395L18.2517 8.54444L19.4612 6.92395C20.9518 4.91745 23.1619 3.03176 25.5294 3.03176L25.528 3.03616ZM25.8105 0.969238C24.3328 0.983951 22.8792 1.34552 21.5664 2.02482C20.2537 2.70412 19.1184 3.68222 18.2517 4.88059C17.3842 3.68242 16.2483 2.70448 14.9351 2.02522C13.6219 1.34597 12.168 0.984303 10.69 0.969238C8.98184 0.973303 7.30946 1.45994 5.8652 2.3732C3.59823 3.88841 1.97797 6.19645 1.32176 8.84517C0.665544 11.4939 1.02067 14.2924 2.31758 16.6927C4.50119 20.7809 13.7138 27.8891 17.0451 30.364C17.3933 30.6253 17.8166 30.7666 18.2517 30.7666C18.6868 30.7666 19.1102 30.6253 19.4583 30.364C22.7867 27.8832 32.0023 20.7809 34.1859 16.6927C35.4822 14.292 35.8366 11.4933 35.1799 8.84467C34.5231 6.19601 32.9025 3.88819 30.6353 2.3732C29.1912 1.4595 27.5187 0.972823 25.8105 0.969238Z" fill="#171736" stroke="#171736" stroke-width="0.7"/>
</svg>
