<svg width="28" height="36" viewBox="0 0 28 36" fill="none" xmlns="http://www.w3.org/2000/svg">
<path d="M24.2859 12H22.5716V8.57137C22.5716 3.84003 18.7316 0 14.0002 0C9.26874 0 5.42871 3.84003 5.42871 8.57146V12.0001H3.71446C1.8202 12.0001 0.285858 13.5343 0.285858 15.4287V32.5715C0.285858 34.4657 1.8202 36 3.71446 36H24.2859C26.1801 36 27.7145 34.4657 27.7145 32.5714V15.4286C27.7145 13.5343 26.1801 12 24.2859 12ZM14.0002 27.4285C12.1059 27.4285 10.5716 25.8943 10.5716 23.9999C10.5716 22.1057 12.1059 20.5714 14.0002 20.5714C15.8944 20.5714 17.4288 22.1057 17.4288 24C17.4288 25.8943 15.8944 27.4285 14.0002 27.4285ZM19.3144 12H8.68591V8.57137C8.68591 5.63995 11.0687 3.25712 14.0002 3.25712C16.9316 3.25712 19.3144 5.63995 19.3144 8.57137V12Z" fill="#171736"/>
</svg>
