<svg width="24" height="30" viewBox="0 0 24 30" fill="none" xmlns="http://www.w3.org/2000/svg">
<path d="M20.5714 9.99998H19.1429V7.14281C19.1429 3.20002 15.9429 0 12 0C8.05715 0 4.85713 3.20002 4.85713 7.14288V10H3.42858C1.85003 10 0.571411 11.2786 0.571411 12.8572V27.1429C0.571411 28.7215 1.85003 30 3.42858 30H20.5714C22.15 30 23.4286 28.7215 23.4286 27.1428V12.8571C23.4286 11.2786 22.15 9.99998 20.5714 9.99998ZM12 22.8571C10.4215 22.8571 9.14284 21.5786 9.14284 20C9.14284 18.4214 10.4215 17.1429 12 17.1429C13.5786 17.1429 14.8572 18.4214 14.8572 20C14.8572 21.5786 13.5786 22.8571 12 22.8571ZM16.4286 9.99998H7.57146V7.14281C7.57146 4.69996 9.55715 2.71426 12 2.71426C14.4429 2.71426 16.4286 4.69996 16.4286 7.14281V9.99998Z" fill="#171736"/>
</svg>
