<svg width="30" height="35" viewBox="0 0 30 35" fill="none" xmlns="http://www.w3.org/2000/svg">
<path fill-rule="evenodd" clip-rule="evenodd" d="M7.1361 8.13863C7.1361 3.85089 10.612 0.375 14.8997 0.375C19.1875 0.375 22.6634 3.8509 22.6634 8.13863V12.9405H23.827L23.8647 12.9405C24.6728 12.9404 25.3336 12.9404 25.8707 12.9843C26.4266 13.0297 26.9287 13.1266 27.3976 13.3655C28.1314 13.7394 28.728 14.3361 29.1019 15.0699C29.3408 15.5388 29.4377 16.0409 29.4831 16.5968C29.527 17.1339 29.527 17.7947 29.527 18.6028V18.6405V29.1444V29.1821C29.527 29.9902 29.527 30.651 29.4831 31.1881C29.4377 31.744 29.3408 32.2461 29.1019 32.715C28.728 33.4488 28.1314 34.0455 27.3976 34.4194C26.9287 34.6583 26.4266 34.7552 25.8707 34.8006C25.3336 34.8445 24.6728 34.8445 23.8647 34.8444H23.827H5.97246H5.93476C5.12671 34.8445 4.46586 34.8445 3.92878 34.8006C3.37287 34.7552 2.87079 34.6583 2.4019 34.4194C1.66807 34.0455 1.07144 33.4488 0.697537 32.715C0.458626 32.2461 0.361744 31.744 0.316324 31.1881C0.272443 30.651 0.272451 29.9902 0.272461 29.1822V29.1821V29.1444V18.6405V18.6028V18.6027C0.272451 17.7947 0.272443 17.1338 0.316324 16.5968C0.361744 16.0409 0.458626 15.5388 0.697537 15.0699C1.07144 14.3361 1.66807 13.7394 2.4019 13.3655C2.87079 13.1266 3.37287 13.0297 3.92878 12.9843C4.46586 12.9404 5.12671 12.9404 5.93476 12.9405L5.97246 12.9405H7.1361V8.13863ZM20.8634 8.13863V12.9405H8.9361V8.13863C8.9361 4.84501 11.6061 2.175 14.8997 2.175C18.1934 2.175 20.8634 4.84501 20.8634 8.13863ZM4.07536 14.7783C3.63076 14.8147 3.39193 14.8813 3.21908 14.9693C2.82394 15.1707 2.50268 15.4919 2.30135 15.8871C2.21328 16.0599 2.14667 16.2988 2.11035 16.7434C2.07316 17.1985 2.07246 17.7855 2.07246 18.6405V29.1444C2.07246 29.9994 2.07316 30.5864 2.11035 31.0415C2.14667 31.4861 2.21328 31.725 2.30135 31.8978C2.50268 32.293 2.82394 32.6142 3.21908 32.8156C3.39193 32.9036 3.63076 32.9702 4.07536 33.0066C4.53046 33.0437 5.11753 33.0444 5.97246 33.0444H23.827C24.6819 33.0444 25.269 33.0437 25.7241 33.0066C26.1687 32.9702 26.4075 32.9036 26.5804 32.8156C26.9755 32.6142 27.2968 32.293 27.4981 31.8978C27.5862 31.725 27.6528 31.4861 27.6891 31.0415C27.7263 30.5864 27.727 29.9994 27.727 29.1444V18.6405C27.727 17.7855 27.7263 17.1985 27.6891 16.7434C27.6528 16.2988 27.5862 16.0599 27.4981 15.8871C27.2968 15.4919 26.9755 15.1707 26.5804 14.9693C26.4075 14.8813 26.1687 14.8147 25.7241 14.7783C25.269 14.7412 24.6819 14.7405 23.827 14.7405H5.97246C5.11753 14.7405 4.53046 14.7412 4.07536 14.7783ZM16.425 25.1195C17.3368 24.5401 17.9503 23.4573 17.9503 22.2171C17.9503 20.3666 16.5845 18.8664 14.8998 18.8664C13.215 18.8664 11.8493 20.3666 11.8493 22.2171C11.8493 23.4573 12.4627 24.5401 13.3745 25.1195V28.0807C13.3745 29.006 14.0574 29.7561 14.8998 29.7561C15.7422 29.7561 16.425 29.006 16.425 28.0807V25.1195Z" fill="white"/>
</svg>
