<svg width="26" height="26" viewBox="0 0 26 26" fill="none" xmlns="http://www.w3.org/2000/svg">
<path d="M20.3125 9.54688H18.4825V5.37113C18.4825 2.40947 16.0222 0 12.9981 0C9.97405 0 7.51375 2.40947 7.51375 5.37113V9.54688H5.6875C4.00745 9.54688 2.64062 10.9137 2.64062 12.5938V22.9531C2.64062 24.6332 4.00745 26 5.6875 26H20.3125C21.9925 26 23.3594 24.6332 23.3594 22.9531V12.5938C23.3594 10.9137 21.9925 9.54688 20.3125 9.54688ZM9.545 5.37113C9.545 3.5295 11.0941 2.03125 12.9981 2.03125C14.9022 2.03125 16.4512 3.5295 16.4512 5.37113V9.54688H9.545V5.37113ZM21.3281 22.9531C21.3281 23.5131 20.8725 23.9688 20.3125 23.9688H5.6875C5.12748 23.9688 4.67188 23.5131 4.67188 22.9531V12.5938C4.67188 12.0337 5.12748 11.5781 5.6875 11.5781H20.3125C20.8725 11.5781 21.3281 12.0337 21.3281 12.5938V22.9531Z" fill="#8A96A3"/>
<path d="M13 14.5234C11.9623 14.5234 11.1211 15.3646 11.1211 16.4023C11.1211 17.0649 11.4644 17.647 11.9825 17.9815V20.2109C11.9825 20.7718 12.4372 21.2266 12.9981 21.2266C13.559 21.2266 14.0137 20.7718 14.0137 20.2109V17.9839C14.5339 17.6498 14.8789 17.0666 14.8789 16.4023C14.8789 15.3646 14.0377 14.5234 13 14.5234Z" fill="#8A96A3"/>
</svg>
