<svg width="31" height="33" viewBox="0 0 31 33" fill="none" xmlns="http://www.w3.org/2000/svg">
<path d="M21.549 4.00878C20.8531 3.70475 20.0425 4.02244 19.7385 4.71835C19.4345 5.41426 19.7522 6.22483 20.4481 6.52885C24.9219 8.48335 27.8749 12.9083 27.8749 17.875C27.8749 24.7092 22.3337 30.2501 15.4998 30.2501C8.66504 30.2501 3.12473 24.7097 3.12473 17.875C3.12473 12.9094 6.07671 8.48444 10.5493 6.52866C11.2451 6.22444 11.5625 5.41374 11.2582 4.71796C10.954 4.02219 10.1433 3.70475 9.44751 4.00904C3.98255 6.39866 0.374756 11.8067 0.374756 17.8749C0.374756 26.2285 7.14632 33 15.4999 33C23.8526 33 30.625 26.228 30.625 17.8749C30.625 11.8053 27.0158 6.39698 21.549 4.00878Z" fill="white"/>
<path d="M15.4993 15.1251C16.2586 15.1251 16.8742 14.5095 16.8742 13.7502V1.37505C16.8743 0.615597 16.2586 0 15.4993 0C14.7399 0 14.1243 0.615597 14.1243 1.37499V13.7501C14.1243 14.5095 14.7399 15.1251 15.4993 15.1251Z" fill="white"/>
</svg>
