<svg width="69" height="77" viewBox="0 0 69 77" fill="none" xmlns="http://www.w3.org/2000/svg">
<path d="M68.9931 38.0986C68.8621 34.403 66.906 31.0588 63.7605 29.1566L16.2216 1.47853C12.8417 -0.491779 8.79842 -0.493909 5.40791 1.47853C2.02163 3.45097 0 6.98049 0 10.9232V66.077C0 70.0198 2.02163 73.5493 5.40791 75.5217C7.06831 76.4888 8.93784 77 10.8158 77C12.6938 77 14.5633 76.4888 16.2237 75.5217L63.5915 47.9459C66.9778 45.9756 68.9994 42.444 68.9994 38.5012C69.0015 38.367 68.9973 38.2328 68.9931 38.0986ZM61.515 44.3163L14.1451 71.8921C12.0601 73.1062 9.56946 73.1062 7.48657 71.8942C5.40157 70.6801 4.15522 68.5053 4.15522 66.077V10.9232C4.15522 8.49497 5.39946 6.3223 7.48657 5.10603C8.53013 4.49896 9.67298 4.1965 10.8179 4.1965C11.9608 4.1965 13.1036 4.50109 14.1472 5.10603L59.0835 31.2675C56.5697 34.6053 49.8183 42.8572 47.6234 44.7529C45.7159 46.3995 44.1991 47.1365 43.3076 46.8468C43.2485 46.6593 43.1661 46.2206 43.1978 45.2855C43.2316 44.2098 43.4893 42.6527 43.9646 40.6526C44.442 38.6333 45.0631 36.5522 45.8278 34.42C45.9313 34.0515 45.9567 33.7043 45.8996 33.3805C45.8384 33.0525 45.6947 32.7436 45.4729 32.4625C45.2342 32.1621 44.9321 31.9491 44.5709 31.8277C44.0618 31.6573 43.5337 31.6871 43.0499 31.9172C42.5514 32.1515 42.1965 32.5562 42.0296 33.0631C41.5205 34.4583 41.0579 35.8748 40.6565 37.2743C40.2594 38.661 39.8707 40.2819 39.501 42.0967C39.3594 42.7911 39.2602 43.46 39.201 44.099C39.1651 44.1459 39.1313 44.1927 39.1017 44.2417C38.5419 44.983 38.1279 45.2642 37.8659 45.3664C37.7835 45.0384 37.6441 44.3908 37.4392 43.1171C37.2913 42.1543 37.173 41.4343 37.0801 40.955C36.985 40.4545 36.8287 39.8304 36.6027 39.0508C36.3661 38.2349 36.1316 37.6257 35.8802 37.1848C35.6119 36.7119 35.2422 36.2944 34.7817 35.9409C33.5354 34.9845 31.8433 35.1676 30.4174 36.6821C29.697 37.4468 28.7168 38.7099 27.4135 40.5503C26.3572 42.0861 25.6157 43.0957 25.0961 43.7582C25.1088 42.8444 25.1616 41.5131 25.2862 39.5811C25.5059 36.942 25.5798 34.8822 25.5059 33.4551C25.4214 31.866 25.0876 30.7755 24.4666 30.1002C23.4505 29.0757 21.9929 28.9479 20.3726 30.3984C19.6861 31.014 18.9129 31.8873 18.0721 32.9992C17.2483 34.0877 15.9766 35.8322 14.2824 38.1966C13.2642 39.6663 12.3516 40.9572 11.5467 42.0648C12.4234 39.8261 13.505 37.3616 14.7746 34.6969C15.0661 34.1665 15.1105 33.5978 14.8992 33.0525C14.707 32.5541 14.3584 32.1579 13.8895 31.9086C13.3846 31.6403 12.8332 31.6062 12.3009 31.8171C11.8192 32.0066 11.4369 32.3219 11.1221 32.8395C10.5412 34.0856 9.90535 35.485 9.21668 37.04C8.52591 38.6013 7.6767 40.8038 6.69651 43.5814C5.67197 46.4911 5.23257 48.5317 5.35299 49.8182C5.41002 50.4935 5.71633 51.0324 6.236 51.3817C6.58033 51.6139 6.96268 51.731 7.37039 51.731C7.61755 51.731 7.86259 51.6757 8.09708 51.567C8.8639 51.2944 9.73846 50.6341 10.7736 49.552C11.7516 48.5295 12.7297 47.3623 13.6824 46.0885C14.6225 44.8318 15.9428 42.9935 17.6053 40.6249C19.215 38.3265 20.493 36.5607 21.431 35.3466C21.4056 36.3733 21.3465 37.6896 21.2535 39.2808C20.9937 42.0605 20.9303 44.0948 21.0634 45.5006C21.2176 47.1365 21.7267 48.1781 22.6836 48.7085C23.0787 48.8874 23.4631 48.9982 23.8244 49.0429C24.23 49.0961 24.6504 49.045 25.075 48.8959C25.4214 48.7702 25.7509 48.6275 26.0488 48.4656C26.3974 48.2782 26.7628 47.9779 27.1684 47.5497C27.5149 47.1812 27.7979 46.8766 28.0176 46.638C28.2542 46.3803 28.5732 45.982 28.9619 45.4559C29.3506 44.934 29.6463 44.5229 29.8491 44.2247L30.7364 42.9232C31.6701 41.6111 32.2869 40.774 32.6946 40.2393C32.8784 40.9018 33.1213 41.9839 33.4192 43.7454C33.6452 45.1427 33.8375 46.1183 34.0086 46.7318C34.2177 47.4752 34.5177 48.0077 34.9106 48.3549C35.8739 49.2389 36.9491 49.6201 38.0962 49.4859C38.6666 49.4412 39.2369 49.2751 39.7904 48.996C39.8073 48.9875 39.8221 48.9769 39.839 48.9683C40.1622 49.5797 40.6016 50.0568 41.1635 50.3912C41.9176 50.7725 42.7457 50.9663 43.6245 50.9663C44.949 50.9663 46.4151 50.4977 47.9762 49.5733C49.476 48.685 50.9188 47.5178 52.2645 46.1034C53.5742 44.7274 54.6199 43.5601 55.3719 42.6378C55.993 41.8731 61.0861 35.3636 62.5606 33.4316C64.0119 34.6905 64.8505 36.5117 64.8505 38.5012C64.8442 40.9295 63.6 43.1021 61.515 44.3163Z" fill="white"/>
</svg>
