<?xml version="1.0" encoding="utf-8"?>
<!-- Generator: Adobe Illustrator 21.0.2, SVG Export Plug-In . SVG Version: 6.00 Build 0)  -->
<svg version="1.1" id="Layer_1" xmlns="http://www.w3.org/2000/svg" xmlns:xlink="http://www.w3.org/1999/xlink" x="0px" y="0px"
	 viewBox="0 0 27 29" height="26px" style="enable-background:new 0 0 27 29;" xml:space="preserve" fill="#8A96A3">
<path class="st0" d="M18.8,3.5c-0.6-0.3-1.3,0-1.6,0.6c-0.3,0.6,0,1.3,0.6,1.6c3.9,1.7,6.5,5.6,6.5,10c0,6-4.9,10.9-10.9,10.9
	c-6,0-10.9-4.9-10.9-10.9c0-4.4,2.6-8.3,6.5-10c0.6-0.3,0.9-1,0.6-1.6c-0.3-0.6-1-0.9-1.6-0.6c-4.8,2.1-8,6.9-8,12.2
	C0.2,23,6.2,29,13.5,29c7.3,0,13.3-6,13.3-13.3C26.8,10.4,23.6,5.6,18.8,3.5z"/>
<path class="st0" d="M13.5,13.3c0.7,0,1.2-0.5,1.2-1.2V1.2c0-0.7-0.5-1.2-1.2-1.2c-0.7,0-1.2,0.5-1.2,1.2v10.9
	C12.3,12.8,12.8,13.3,13.5,13.3z"/>
</svg>
