<svg width="65" height="72" viewBox="0 0 65 72" fill="none" xmlns="http://www.w3.org/2000/svg">
<path d="M64.9935 35.6247C64.8701 32.169 63.0274 29.0419 60.0643 27.2633L15.2812 1.38252C12.0972 -0.459845 8.28836 -0.461837 5.09441 1.38252C1.90443 3.22688 0 6.52721 0 10.2139V61.7863C0 65.473 1.90443 68.7734 5.09441 70.6177C6.65855 71.522 8.4197 72 10.1888 72C11.9579 72 13.7191 71.522 15.2832 70.6177L59.9051 44.8325C63.095 42.9902 64.9995 39.6878 64.9995 36.0011C65.0015 35.8756 64.9975 35.7502 64.9935 35.6247ZM57.9489 41.4386L13.3251 67.2238C11.3609 68.3591 9.01471 68.3591 7.05257 67.2258C5.08844 66.0905 3.91434 64.0569 3.91434 61.7863V10.2139C3.91434 7.94335 5.08645 5.91176 7.05257 4.77447C8.03563 4.20682 9.11222 3.924 10.1908 3.924C11.2674 3.924 12.344 4.20882 13.3271 4.77447L55.6584 29.2371C53.2903 32.3582 46.9302 40.0742 44.8626 41.8469C43.0657 43.3865 41.6368 44.0757 40.7971 43.8048C40.7413 43.6295 40.6637 43.2192 40.6936 42.3448C40.7254 41.339 40.9682 39.883 41.4159 38.0128C41.8657 36.1246 42.4507 34.1787 43.1711 32.1849C43.2686 31.8404 43.2925 31.5157 43.2388 31.213C43.1811 30.9062 43.0458 30.6174 42.8368 30.3545C42.6119 30.0737 42.3274 29.8745 41.9871 29.761C41.5075 29.6016 41.01 29.6295 40.5543 29.8446C40.0846 30.0637 39.7503 30.4422 39.5931 30.9162C39.1135 32.2208 38.6777 33.5453 38.2996 34.8539C37.9255 36.1505 37.5593 37.6662 37.2111 39.3632C37.0777 40.0125 36.9842 40.6379 36.9285 41.2354C36.8947 41.2793 36.8628 41.3231 36.835 41.3689C36.3076 42.062 35.9176 42.3249 35.6708 42.4205C35.5932 42.1138 35.4619 41.5083 35.2688 40.3172C35.1295 39.417 35.0181 38.7438 34.9305 38.2956C34.841 37.8276 34.6937 37.244 34.4808 36.515C34.2579 35.7522 34.037 35.1825 33.8002 34.7702C33.5475 34.3281 33.1992 33.9377 32.7654 33.607C31.5913 32.7127 29.9973 32.884 28.6541 34.3002C27.9755 35.0152 27.0521 36.1963 25.8243 37.9172C24.8293 39.3532 24.1308 40.2973 23.6412 40.9168C23.6532 40.0623 23.7029 38.8175 23.8203 37.0109C24.0273 34.5432 24.0969 32.6171 24.0273 31.2827C23.9477 29.7968 23.6333 28.777 23.0482 28.1457C22.091 27.1876 20.7179 27.0681 19.1916 28.4245C18.5448 29.0001 17.8165 29.8167 17.0245 30.8564C16.2484 31.8742 15.0504 33.5055 13.4544 35.7163C12.4952 37.0906 11.6355 38.2976 10.8774 39.3333C11.7032 37.24 12.7221 34.9355 13.9181 32.4439C14.1927 31.9479 14.2345 31.4161 14.0355 30.9062C13.8544 30.4402 13.526 30.0697 13.0843 29.8367C12.6087 29.5857 12.0893 29.5538 11.5878 29.751C11.1341 29.9283 10.7739 30.2231 10.4774 30.7071C9.93011 31.8722 9.33112 33.1808 8.68238 34.6348C8.03165 36.0947 7.23167 38.1542 6.30831 40.7514C5.34316 43.4722 4.92924 45.3803 5.04267 46.5833C5.0964 47.2147 5.38495 47.7186 5.87449 48.0452C6.19886 48.2623 6.55905 48.3719 6.94312 48.3719C7.17595 48.3719 7.40679 48.3201 7.62768 48.2185C8.35005 47.9636 9.17391 47.3461 10.149 46.3343C11.0704 45.3783 11.9918 44.2868 12.8892 43.0957C13.7748 41.9206 15.0186 40.2017 16.5847 37.9869C18.1011 35.8378 19.305 34.1866 20.1886 33.0513C20.1647 34.0114 20.109 35.2423 20.0214 36.7301C19.7766 39.3293 19.7169 41.2315 19.8423 42.546C19.9876 44.0757 20.4672 45.0496 21.3687 45.5456C21.7408 45.7129 22.103 45.8165 22.4433 45.8583C22.8253 45.9081 23.2213 45.8603 23.6213 45.7209C23.9477 45.6033 24.2581 45.4699 24.5387 45.3185C24.8671 45.1432 25.2113 44.8624 25.5934 44.4621C25.9198 44.1175 26.1865 43.8327 26.3934 43.6096C26.6163 43.3686 26.9168 42.9961 27.2829 42.5042C27.6491 42.0162 27.9277 41.6318 28.1187 41.353L28.9545 40.136C29.8341 38.9091 30.4152 38.1263 30.7993 37.6264C30.9724 38.2458 31.2013 39.2576 31.4818 40.9048C31.6948 42.2114 31.8759 43.1236 32.0371 43.6972C32.2341 44.3924 32.5166 44.8903 32.8868 45.215C33.7942 46.0415 34.8071 46.3981 35.8877 46.2726C36.425 46.2307 36.9623 46.0754 37.4837 45.8145C37.4996 45.8065 37.5135 45.7965 37.5295 45.7886C37.8339 46.3602 38.2479 46.8064 38.7772 47.1191C39.4876 47.4756 40.2677 47.6568 41.0956 47.6568C42.3433 47.6568 43.7243 47.2187 45.195 46.3542C46.6079 45.5237 47.967 44.4322 49.2347 43.1097C50.4685 41.823 51.4535 40.7315 52.162 39.8691C52.747 39.1541 57.5449 33.0673 58.9339 31.2608C60.3011 32.4379 61.0911 34.1408 61.0911 36.0011C61.0851 38.2717 59.913 40.3033 57.9489 41.4386Z" fill="white" fill-opacity="0.3"/>
<ellipse cx="43.3343" cy="25.9196" rx="2.88895" ry="2.87991" fill="white" fill-opacity="0.3"/>
</svg>
