<svg width="45" height="51" viewBox="0 0 45 51" fill="none" xmlns="http://www.w3.org/2000/svg">
<path d="M44.9945 24.7399C44.9091 22.34 43.6334 20.1684 41.582 18.9332L10.5791 0.959871C8.37481 -0.319591 5.73797 -0.320974 3.52682 0.959871C1.31842 2.24072 0 4.53268 0 7.09299V42.9082C0 45.4685 1.31842 47.7605 3.52682 49.0413C4.60966 49.6693 5.82889 50.0013 7.05364 50.0013C8.27838 50.0013 9.49761 49.6693 10.5805 49.0413L41.4718 31.1344C43.6802 29.855 44.9986 27.5616 44.9986 25.0013C45 24.9142 44.9972 24.827 44.9945 24.7399ZM40.1176 28.7774L9.22483 46.6844C7.86508 47.4728 6.24081 47.4728 4.88244 46.6858C3.52269 45.8973 2.70986 44.4851 2.70986 42.9082V7.09299C2.70986 5.51614 3.52131 4.10527 4.88244 3.31546C5.563 2.92125 6.30832 2.72484 7.05501 2.72484C7.80033 2.72484 8.54565 2.92263 9.22621 3.31546L38.5319 20.3039C36.8924 22.4714 32.4894 27.8299 31.058 29.061C29.814 30.1302 28.8248 30.6088 28.2435 30.4207C28.2049 30.299 28.1512 30.014 28.1718 29.4068C28.1939 28.7083 28.362 27.6972 28.6719 26.3983C28.9833 25.0871 29.3883 23.7357 29.887 22.3511C29.9545 22.1118 29.9711 21.8863 29.9339 21.6761C29.8939 21.4631 29.8002 21.2625 29.6556 21.0799C29.4999 20.8849 29.3029 20.7466 29.0673 20.6677C28.7353 20.5571 28.3909 20.5764 28.0754 20.7258C27.7503 20.878 27.5188 21.1408 27.41 21.47C27.078 22.376 26.7763 23.2958 26.5145 24.2046C26.2555 25.105 26.002 26.1577 25.7609 27.3361C25.6686 27.7871 25.6039 28.2214 25.5653 28.6364C25.5419 28.6668 25.5198 28.6972 25.5005 28.729C25.1355 29.2104 24.8654 29.393 24.6946 29.4594C24.6409 29.2463 24.55 28.8259 24.4163 27.9987C24.3199 27.3735 24.2427 26.906 24.1821 26.5947C24.1201 26.2697 24.0182 25.8644 23.8708 25.3582C23.7165 24.8284 23.5636 24.4328 23.3996 24.1465C23.2246 23.8394 22.9836 23.5683 22.6832 23.3387C21.8704 22.7176 20.7669 22.8366 19.837 23.82C19.3672 24.3166 18.728 25.1369 17.8779 26.3319C17.1891 27.3292 16.7055 27.9849 16.3666 28.415C16.3749 27.8216 16.4093 26.9571 16.4906 25.7026C16.6339 23.9888 16.6821 22.6512 16.6339 21.7245C16.5788 20.6926 16.3611 19.9844 15.9561 19.546C15.2934 18.8806 14.3429 18.7976 13.2862 19.7396C12.8384 20.1393 12.3342 20.7065 11.7859 21.4285C11.2486 22.1353 10.4193 23.2682 9.31438 24.8035C8.65035 25.7579 8.0552 26.5961 7.53031 27.3154C8.10204 25.8617 8.8074 24.2613 9.63538 22.5309C9.8255 22.1865 9.85443 21.8172 9.71666 21.4631C9.59129 21.1394 9.36398 20.8821 9.05814 20.7203C8.72887 20.546 8.3693 20.5239 8.02213 20.6608C7.70803 20.7839 7.45867 20.9886 7.2534 21.3248C6.87454 22.1339 6.45986 23.0427 6.01075 24.0524C5.56025 25.0663 5.00643 26.4965 4.36719 28.3002C3.69903 30.1897 3.41247 31.5148 3.491 32.3503C3.5282 32.7887 3.72796 33.1387 4.06686 33.3655C4.29142 33.5163 4.54078 33.5924 4.80667 33.5924C4.96785 33.5924 5.12766 33.5564 5.28058 33.4859C5.78068 33.3088 6.35103 32.88 7.02608 32.1774C7.66394 31.5134 8.3018 30.7554 8.92313 29.9283C9.53619 29.1122 10.3972 27.9185 11.4814 26.3804C12.5312 24.8879 13.3647 23.7412 13.9764 22.9528C13.9599 23.6195 13.9213 24.4743 13.8607 25.5076C13.6912 27.3126 13.6499 28.6336 13.7367 29.5465C13.8373 30.6088 14.1693 31.2852 14.7933 31.6296C15.051 31.7458 15.3017 31.8177 15.5373 31.8468C15.8018 31.8813 16.076 31.8482 16.3529 31.7513C16.5788 31.6697 16.7937 31.577 16.988 31.4719C17.2153 31.3502 17.4536 31.1552 17.7181 30.8771C17.9441 30.6378 18.1287 30.4401 18.2719 30.2851C18.4262 30.1178 18.6343 29.8591 18.8878 29.5175C19.1413 29.1786 19.3341 28.9116 19.4664 28.718L20.045 27.8728C20.6539 27.0208 21.0562 26.4772 21.3221 26.13C21.442 26.5602 21.6004 27.2628 21.7946 28.4067C21.942 29.3141 22.0674 29.9476 22.179 30.346C22.3154 30.8287 22.511 31.1745 22.7673 31.4C23.3955 31.974 24.0967 32.2216 24.8448 32.1345C25.2167 32.1054 25.5887 31.9975 25.9497 31.8163C25.9607 31.8108 25.9703 31.8039 25.9814 31.7984C26.1921 32.1953 26.4787 32.5052 26.8451 32.7223C27.337 32.9699 27.877 33.0958 28.4501 33.0958C29.3139 33.0958 30.27 32.7915 31.2881 32.1912C32.2663 31.6144 33.2072 30.8564 34.0848 29.9379C34.9389 29.0444 35.6209 28.2864 36.1113 27.6875C36.5163 27.1909 39.8379 22.9638 40.7995 21.7093C41.746 22.5268 42.2929 23.7094 42.2929 25.0013C42.2888 26.5782 41.4773 27.989 40.1176 28.7774Z" fill="white"/>
</svg>
