<svg width="45" height="28" viewBox="0 0 45 28" fill="none" xmlns="http://www.w3.org/2000/svg">
<path d="M44.8124 14.0284C44.8124 17.5428 43.4135 20.9132 40.9236 23.3983C38.4336 25.8833 35.0565 27.2794 31.5351 27.2794C28.0137 27.2794 24.6366 25.8833 22.1466 23.3983C19.6567 20.9132 18.2578 17.5428 18.2578 14.0284C18.2578 10.514 19.6567 7.14353 22.1466 4.65848C24.6366 2.17343 28.0137 0.777344 31.5351 0.777344C35.0565 0.777344 38.4336 2.17343 40.9236 4.65848C43.4135 7.14353 44.8124 10.514 44.8124 14.0284Z" fill="#FFB600"/>
<path d="M31.5351 0.777344C35.0536 0.786482 38.4255 2.1855 40.9135 4.66858C43.4014 7.15165 44.8032 10.5168 44.8124 14.0284C44.8124 17.5428 43.4135 20.9132 40.9236 23.3983C38.4336 25.8833 35.0565 27.2794 31.5351 27.2794C28.0137 27.2794 24.6366 25.8833 22.1466 23.3983C19.6567 20.9132 18.2578 17.5428 18.2578 14.0284" fill="#F7981D"/>
<path d="M31.5352 0.777344C35.0537 0.786482 38.4255 2.18551 40.9135 4.66858C43.4015 7.15165 44.8033 10.5168 44.8124 14.0284C44.8139 15.7689 44.4714 17.4927 43.8047 19.101C43.1379 20.7093 42.16 22.1707 40.9268 23.4014C39.6936 24.6322 38.2293 25.6082 36.6178 26.2736C35.0063 26.9391 33.2792 27.2808 31.5352 27.2794" fill="#FF8500"/>
<path d="M13.6916 0.777344C10.1702 0.795945 6.80049 2.20987 4.3237 4.70807C1.8469 7.20627 0.465923 10.5841 0.484561 14.0985C0.503199 17.6129 1.91993 20.976 4.42308 23.4478C6.92623 25.9197 10.3108 27.298 13.8321 27.2794C17.1278 27.2653 20.3032 26.0425 22.7542 23.8437C23.2344 23.4121 23.6807 22.9443 24.0891 22.4446H21.3493C20.999 22.0175 20.6709 21.5728 20.3661 21.1123H25.073C25.3718 20.6688 25.6304 20.1996 25.8457 19.7102H19.5928C19.3634 19.2607 19.1752 18.7914 19.0306 18.3081H26.3367C26.7861 16.9501 27.0231 15.5312 27.0394 14.1012C27.019 13.1602 26.925 12.2222 26.7583 11.2958H18.6096C18.6934 10.8208 18.8107 10.3522 18.9606 9.89369H26.2667C26.1221 9.41034 25.9339 8.94106 25.7045 8.49159H19.5228C19.7532 8.00981 20.0112 7.54166 20.2955 7.08949H25.0024C24.7145 6.57787 24.3601 6.10643 23.9486 5.68738H21.3493C21.7582 5.20833 22.2044 4.76226 22.6836 4.35333C20.257 2.11511 17.0656 0.886167 13.7615 0.917614C13.7621 0.777344 13.7621 0.777344 13.6916 0.777344Z" fill="#FF5050"/>
<path d="M0.554692 14.0284C0.553276 15.7689 0.895737 17.4927 1.56248 19.101C2.22923 20.7093 3.20717 22.1707 4.44036 23.4014C5.67355 24.6322 7.13779 25.6082 8.74931 26.2736C10.3608 26.9391 12.088 27.2808 13.832 27.2794C17.1276 27.2654 20.3031 26.0426 22.7541 23.8437C23.2344 23.4112 23.6807 22.9424 24.089 22.4416H21.3492C20.9989 22.0146 20.6707 21.5699 20.366 21.1093H25.0728C25.3717 20.6658 25.6303 20.1966 25.8455 19.7072H19.5926C19.3632 19.2578 19.1751 18.7885 19.0305 18.3051H26.3365C26.7859 16.9472 27.0229 15.5282 27.0393 14.0982C27.0188 13.1572 26.9248 12.2192 26.7582 11.2928H18.6094C18.6932 10.8178 18.8105 10.3493 18.9605 9.89073H26.2666C26.122 9.40739 25.9338 8.9381 25.7044 8.48863H19.5227C19.7531 8.00685 20.0111 7.53871 20.2954 7.08653H25.0022C24.7143 6.57492 24.36 6.10348 23.9484 5.68443H21.3492C21.7582 5.2064 22.2043 4.76133 22.6835 4.35335C20.257 2.11527 17.0659 0.886342 13.762 0.917637H13.692" fill="#E52836"/>
<path d="M13.832 27.2794C17.1276 27.2653 20.3031 26.0425 22.7541 23.8437C23.2344 23.4112 23.6807 22.9424 24.089 22.4416H21.3468C20.9965 22.0145 20.6683 21.5699 20.3635 21.1093H25.0704C25.3693 20.6658 25.6279 20.1966 25.8431 19.7072H19.5926C19.3632 19.2577 19.175 18.7885 19.0304 18.3051H26.3365C26.7859 16.9472 27.0229 15.5282 27.0393 14.0982C27.0188 13.1572 26.9248 12.2192 26.7582 11.2928H18.6088C18.6926 10.8178 18.8099 10.3493 18.9599 9.89071H26.266C26.1214 9.40737 25.9332 8.93809 25.7038 8.48861H19.522C19.7524 8.00683 20.0104 7.53869 20.2948 7.08651H25.0016C24.7137 6.5749 24.3594 6.10346 23.9478 5.68441H21.3468C21.7559 5.20594 22.2023 4.76047 22.6817 4.35214C20.2551 2.11392 17.0637 0.884974 13.7596 0.916421H13.6914" fill="#CB2026"/>
<path d="M18.5387 17.3943L18.7492 16.2005C18.6337 16.2306 18.5165 16.2539 18.3982 16.2703C17.9066 16.2703 17.836 15.9898 17.9066 15.8525L18.3252 13.3987H19.0979L19.3084 12.0664H18.6057L18.7463 11.2248H17.345C17.345 11.2248 16.5017 15.8519 16.5017 16.413C16.4801 16.5686 16.4936 16.727 16.5414 16.8767C16.5891 17.0264 16.6699 17.1635 16.7776 17.278C16.8854 17.3925 17.0175 17.4814 17.1642 17.5383C17.3109 17.5952 17.4685 17.6186 17.6255 17.6068C17.9418 17.6037 18.2536 17.5311 18.5387 17.3943Z" fill="white"/>
<path d="M19.0308 15.1511C19.0308 17.1143 20.3657 17.605 21.4895 17.605C21.9905 17.637 22.4928 17.5655 22.9649 17.3949L23.246 16.0626C22.7795 16.2675 22.2796 16.3862 21.7706 16.413C20.2251 16.413 20.5062 15.2914 20.5062 15.2914H23.3866C23.4863 14.8763 23.5567 14.4546 23.5971 14.0296C23.6171 13.7575 23.5781 13.4843 23.4828 13.2286C23.3874 12.9729 23.2381 12.7407 23.0448 12.5478C22.8515 12.3549 22.6188 12.2058 22.3626 12.1107C22.1064 12.0155 21.8327 11.9766 21.56 11.9966C20.0846 11.8557 19.0308 13.3981 19.0308 15.1511ZM21.4895 13.1181C22.2622 13.1181 22.1216 14.0296 22.1216 14.0994H20.5762C20.5762 14.029 20.7167 13.1175 21.4895 13.1175V13.1181Z" fill="white"/>
<path d="M30.4108 17.3943L30.6919 15.8519C30.3178 16.0402 29.9125 16.1589 29.4958 16.2023C28.5125 16.2023 28.0909 15.4311 28.0909 14.5907C28.0909 12.908 28.9342 11.9966 29.9174 11.9966C30.3705 12.011 30.8096 12.1561 31.1817 12.4144L31.3923 10.9419C30.8775 10.7354 30.3316 10.617 29.7775 10.5915C28.1627 10.5915 26.5479 11.9936 26.5479 14.6581C26.5479 16.4112 27.3911 17.6026 29.0771 17.6026C29.5279 17.581 29.975 17.5112 30.4108 17.3943Z" fill="white"/>
<path d="M10.8119 11.8551C10.2379 11.8509 9.66749 11.9458 9.12592 12.1357L8.9154 13.3294C9.40797 13.1387 9.93249 13.0434 10.4608 13.0489C10.9524 13.0489 11.3741 13.1187 11.3741 13.5396C11.3741 13.8201 11.3041 13.8899 11.3041 13.8899H10.6714C9.4752 13.8899 8.14209 14.3806 8.14209 15.9934C8.14209 17.2552 8.98538 17.5357 9.477 17.5357C10.0329 17.5276 10.5631 17.3009 10.9524 16.9048L10.8825 17.4659H12.1492L12.7114 13.61C12.7084 11.925 11.3035 11.8551 10.8119 11.8551ZM11.093 15.0103C11.093 15.2204 10.9524 16.3426 10.1098 16.3426C10.0354 16.3444 9.96147 16.3312 9.8924 16.3037C9.82334 16.2762 9.76061 16.2349 9.70802 16.1824C9.65544 16.1299 9.6141 16.0673 9.58651 15.9984C9.55893 15.9295 9.54568 15.8557 9.54757 15.7815C9.54757 15.4311 9.75809 14.9399 10.8119 14.9399C10.9019 14.9755 10.9962 14.9991 11.0924 15.0103H11.093Z" fill="white"/>
<path d="M14.0423 17.5345C14.3933 17.5345 16.1499 17.6044 16.1499 15.7116C16.1499 13.9585 14.4639 14.3095 14.4639 13.6082C14.4639 13.2578 14.745 13.1175 15.2366 13.1175C15.4472 13.1175 16.2199 13.1874 16.2199 13.1874L16.4304 11.9255C15.9931 11.8229 15.5446 11.7758 15.0955 11.7853C14.0417 11.7853 12.9879 12.2031 12.9879 13.6082C12.9879 15.2198 14.7444 15.0807 14.7444 15.7116C14.7444 16.1294 14.2528 16.2023 13.9011 16.2023C13.4719 16.1915 13.0463 16.1208 12.6368 15.9922L12.4263 17.254C12.4974 17.3961 12.8461 17.5345 14.0423 17.5345Z" fill="white"/>
<path d="M42.0755 10.7335L41.7944 12.6263C41.6298 12.4267 41.427 12.2618 41.1978 12.1414C40.9686 12.021 40.7176 11.9474 40.4595 11.9249C39.1952 11.9249 38.0708 13.4673 38.0708 15.2902C38.0708 16.4118 38.633 17.6038 39.8273 17.6038C40.076 17.6032 40.3221 17.5534 40.5513 17.457C40.7804 17.3607 40.9881 17.2199 41.1622 17.0427L41.0923 17.5333H42.4942L43.548 10.8028L42.0755 10.7335ZM41.4433 14.4492C41.4433 15.2204 41.0923 16.2023 40.3196 16.2023C39.8279 16.2023 39.5468 15.7844 39.5468 15.0807C39.5468 13.9591 40.0385 13.2578 40.6706 13.2578C41.1593 13.2578 41.4404 13.6082 41.4404 14.4492H41.4433Z" fill="white"/>
<path d="M3.15424 17.4641L3.99753 12.4162L4.13808 17.4641H5.12132L6.94784 12.4162L6.17513 17.4641H7.65058L8.77437 10.7335H6.45563L5.04895 14.87L4.97897 10.7335H2.94312L1.81934 17.4641H3.15424Z" fill="white"/>
<path d="M24.9322 17.4641C25.3508 15.1506 25.4238 13.2572 26.4076 13.6082C26.4876 13.049 26.6534 12.5054 26.8992 11.9966H26.6181C25.986 11.9966 25.4943 12.8382 25.4943 12.8382L25.6349 12.067H24.3L23.3867 17.534H24.9322V17.4641Z" fill="white"/>
<path d="M33.6433 11.8551C33.0693 11.8509 32.4989 11.9458 31.9574 12.1357L31.7468 13.3294C32.2394 13.1387 32.7639 13.0434 33.2923 13.0489C33.7839 13.0489 34.2055 13.1187 34.2055 13.5396C34.2055 13.8201 34.1356 13.8899 34.1356 13.8899H33.5034C32.3072 13.8899 30.9741 14.3806 30.9741 15.9934C30.9741 17.2552 31.8174 17.5357 32.309 17.5357C32.8649 17.5276 33.3951 17.3009 33.7845 16.9048L33.7145 17.4659H34.9806L35.5428 13.61C35.6098 11.925 34.135 11.8551 33.6433 11.8551ZM33.9944 15.0103C33.9944 15.2204 33.8539 16.3426 33.0112 16.3426C32.9368 16.3444 32.8629 16.3312 32.7938 16.3037C32.7248 16.2762 32.662 16.2349 32.6094 16.1824C32.5568 16.1299 32.5155 16.0673 32.4879 15.9984C32.4603 15.9295 32.4471 15.8557 32.449 15.7815C32.449 15.4311 32.6595 14.9399 33.7133 14.9399C33.9238 15.0103 33.9238 15.0103 33.9944 15.0103Z" fill="white"/>
<path d="M36.7334 17.4641C37.1521 15.1506 37.225 13.2572 38.2089 13.6082C38.2889 13.049 38.4547 12.5054 38.7005 11.9966H38.4194C37.7872 11.9966 37.2956 12.8382 37.2956 12.8382L37.4362 12.067H36.1013L35.188 17.5358H36.7334V17.4641Z" fill="white"/>
<path d="M16.3615 16.4124C16.3399 16.568 16.3535 16.7264 16.4013 16.8761C16.449 17.0258 16.5297 17.1629 16.6375 17.2774C16.7453 17.3919 16.8774 17.4808 17.0241 17.5377C17.1708 17.5946 17.3284 17.618 17.4853 17.6062C17.8472 17.608 18.2057 17.5365 18.5391 17.3961L18.7497 16.2023C18.6341 16.2324 18.5169 16.2557 18.3986 16.2721C17.907 16.2721 17.8364 15.9916 17.907 15.8543L18.3256 13.4005H19.0983L19.3089 12.0682H18.6061L18.7467 11.2266" fill="#DCE5E5"/>
<path d="M19.7334 15.1511C19.7334 17.1143 20.3656 17.605 21.49 17.605C21.991 17.637 22.4933 17.5655 22.9654 17.3949L23.2465 16.0626C22.78 16.2675 22.2801 16.3862 21.771 16.413C20.2256 16.413 20.5067 15.2914 20.5067 15.2914H23.387C23.4868 14.8763 23.5572 14.4546 23.5976 14.0296C23.6175 13.7575 23.5785 13.4843 23.4832 13.2286C23.3879 12.9729 23.2385 12.7407 23.0453 12.5478C22.852 12.3549 22.6193 12.2058 22.3631 12.1107C22.1069 12.0155 21.8332 11.9766 21.5605 11.9966C20.0845 11.8557 19.7334 13.3981 19.7334 15.1511ZM21.49 13.1181C22.2627 13.1181 22.4032 14.0296 22.4032 14.0994H20.5767C20.5767 14.029 20.7166 13.1175 21.49 13.1175V13.1181Z" fill="#DCE5E5"/>
<path d="M30.4117 17.3943L30.6928 15.8519C30.3187 16.0402 29.9133 16.1589 29.4966 16.2023C28.5134 16.2023 28.0917 15.4311 28.0917 14.5907C28.0917 12.908 28.935 11.9966 29.9182 11.9966C30.3713 12.011 30.8105 12.1561 31.1826 12.4144L31.3931 10.9419C30.8784 10.7354 30.3325 10.617 29.7783 10.5915C28.1635 10.5915 27.249 11.9936 27.249 14.6581C27.249 16.4112 27.3896 17.6026 29.0756 17.6026C29.5271 17.5812 29.9751 17.5113 30.4117 17.3943Z" fill="#DCE5E5"/>
<path d="M8.9148 13.3975C9.40737 13.2067 9.9319 13.1115 10.4602 13.1169C10.9518 13.1169 11.3735 13.1868 11.3735 13.6076C11.3735 13.8881 11.3035 13.958 11.3035 13.958H10.6714C9.4752 13.958 8.14209 14.4486 8.14209 16.0614C8.14209 17.3233 8.98538 17.6038 9.477 17.6038C10.033 17.5959 10.5634 17.3694 10.953 16.9735L10.8831 17.5346H12.1492L12.7114 13.6786C12.7114 12.067 11.3065 11.996 10.7443 11.996L8.9148 13.3975ZM11.7981 15.0109C11.7981 15.221 10.9548 16.3432 10.1122 16.3432C10.0378 16.345 9.96386 16.3318 9.89479 16.3043C9.82573 16.2768 9.763 16.2355 9.71041 16.183C9.65783 16.1305 9.61649 16.0679 9.5889 15.999C9.56132 15.9301 9.54807 15.8563 9.54996 15.7821C9.54996 15.4317 9.76048 14.9404 10.8143 14.9404C11.1386 14.9917 11.4668 15.015 11.7951 15.0103L11.7981 15.0109Z" fill="#DCE5E5"/>
<path d="M12.4976 17.3961C13.0269 17.5162 13.5702 17.5634 14.1124 17.5363C14.4634 17.5363 16.22 17.6062 16.22 15.7134C16.22 13.9604 14.534 14.3113 14.534 13.61C14.534 13.2596 14.8151 13.1193 15.3067 13.1193C15.5172 13.1193 16.29 13.1892 16.29 13.1892L16.5005 11.9274C16.0632 11.8247 15.6147 11.7776 15.1656 11.7871C14.1118 11.7871 13.7607 12.2049 13.7607 13.61C13.7607 15.2216 14.8145 15.0825 14.8145 15.7134C14.8145 16.1313 14.3229 16.2041 13.9712 16.2041" fill="#DCE5E5"/>
<path d="M41.7911 12.6263C41.6265 12.4267 41.4237 12.2618 41.1945 12.1414C40.9653 12.021 40.7143 11.9474 40.4562 11.9249C39.1919 11.9249 38.7702 13.4673 38.7702 15.2902C38.7702 16.4118 38.6297 17.6038 39.8241 17.6038C40.0727 17.6033 40.3188 17.5534 40.548 17.4571C40.7771 17.3607 40.9848 17.2199 41.159 17.0427L41.089 17.5334H42.4939L43.5477 10.8028L41.7911 12.6263ZM41.7212 14.4486C41.7212 15.2198 41.089 16.2017 40.3163 16.2017C39.8247 16.2017 39.5436 15.7839 39.5436 15.0801C39.5436 13.9586 40.0352 13.2572 40.6674 13.2572C40.8173 13.2594 40.9652 13.2928 41.1015 13.3554C41.2378 13.4179 41.3595 13.5082 41.4587 13.6205C41.558 13.7327 41.6327 13.8644 41.678 14.0071C41.7233 14.1498 41.7382 14.3004 41.7218 14.4492L41.7212 14.4486Z" fill="#DCE5E5"/>
<path d="M3.15424 17.4641L3.99753 12.4162L4.13808 17.4641H5.12132L6.94784 12.4162L6.17513 17.4641H7.65058L8.77437 10.7335H7.01782L5.04895 14.87L4.97897 10.7335H4.20805L1.81934 17.4641H3.15424Z" fill="#DCE5E5"/>
<path d="M23.4565 17.4641H24.932C25.3507 15.1506 25.4236 13.2572 26.4075 13.6082C26.4875 13.049 26.6533 12.5054 26.8991 11.9966H26.618C25.9858 11.9966 25.4942 12.8382 25.4942 12.8382L25.6347 12.067" fill="#DCE5E5"/>
<path d="M31.7459 13.3975C32.2384 13.2067 32.763 13.1115 33.2913 13.1169C33.7829 13.1169 34.2046 13.1868 34.2046 13.6076C34.2046 13.8881 34.1346 13.9579 34.1346 13.9579H33.5024C32.3063 13.9579 30.9731 14.4486 30.9731 16.0614C30.9731 17.3232 31.8164 17.6038 32.308 17.6038C32.8639 17.5956 33.3941 17.3689 33.7835 16.9729L33.7135 17.5339H34.9803L35.5425 13.678C35.5425 12.0664 34.1376 11.9954 33.5754 11.9954L31.7459 13.3975ZM34.6292 15.0103C34.6292 15.2204 33.7859 16.3425 32.9432 16.3425C32.8689 16.3444 32.7949 16.3312 32.7259 16.3037C32.6568 16.2761 32.5941 16.2349 32.5415 16.1824C32.4889 16.1299 32.4476 16.0673 32.42 15.9984C32.3924 15.9294 32.3791 15.8556 32.381 15.7815C32.381 15.4311 32.5916 14.9398 33.6454 14.9398C33.9699 14.9893 34.2979 15.0128 34.6262 15.0103H34.6292Z" fill="#DCE5E5"/>
<path d="M35.2593 17.4641H36.7347C37.1534 15.1506 37.2263 13.2572 38.2102 13.6082C38.2902 13.049 38.456 12.5054 38.7018 11.9966H38.4207C37.7885 11.9966 37.2969 12.8382 37.2969 12.8382L37.4375 12.067" fill="#DCE5E5"/>
</svg>
