<svg width="30" height="22" viewBox="0 0 30 22" fill="none" xmlns="http://www.w3.org/2000/svg">
<path d="M0 21.71V7.80143C0 3.5001 3.65336 0 8.14304 0H21.525C26.0157 0 29.67 3.5001 29.67 7.80143V10.2004C29.67 14.5018 26.0166 18.0019 21.527 18.0019H8.33182L0 21.71ZM8.14304 1.73927C4.654 1.73927 1.81543 4.45876 1.81543 7.80143V18.9839L7.93176 16.2617H21.527C25.016 16.2617 27.8546 13.5422 27.8546 10.1995V7.80049C27.8546 4.45783 25.015 1.73834 21.525 1.73834H8.14304V1.73927ZM8.74166 7.6693C9.69535 7.6693 10.4681 8.40961 10.4681 9.32329C10.4681 10.237 9.69535 10.9773 8.74166 10.9773C7.78797 10.9773 7.01524 10.237 7.01524 9.32329C7.01524 8.40961 7.78797 7.6693 8.74166 7.6693ZM20.9274 7.6693C21.8811 7.6693 22.6538 8.40961 22.6538 9.32329C22.6538 10.237 21.8811 10.9773 20.9274 10.9773C19.9737 10.9773 19.2009 10.237 19.2009 9.32329C19.2009 8.40961 19.9737 7.6693 20.9274 7.6693ZM14.8335 7.6693C15.7872 7.6693 16.56 8.40961 16.56 9.32329C16.56 10.237 15.7872 10.9773 14.8335 10.9773C13.8798 10.9773 13.1071 10.237 13.1071 9.32329C13.1071 8.40961 13.8798 7.6693 14.8335 7.6693Z" fill="#8A96A3"/>
</svg>
