<svg width="34" height="27" viewBox="0 0 34 27" fill="none" xmlns="http://www.w3.org/2000/svg">
<path d="M0 26.6888V10.2162C0 5.1219 4.14534 0.976562 9.23961 0.976562H24.4237C29.519 0.976562 33.6655 5.1219 33.6655 10.2162V13.0574C33.6655 18.1517 29.5201 22.297 24.4259 22.297H9.45382L0 26.6888ZM9.23961 3.03647C5.28073 3.03647 2.05991 6.25729 2.05991 10.2162V23.4602L8.99988 20.236H24.4259C28.3848 20.236 31.6056 17.0152 31.6056 13.0563V10.2151C31.6056 6.25618 28.3836 3.03536 24.4237 3.03536H9.23961V3.03647ZM9.91885 10.0597C11.001 10.0597 11.8778 10.9365 11.8778 12.0186C11.8778 13.1007 11.001 13.9775 9.91885 13.9775C8.83673 13.9775 7.95994 13.1007 7.95994 12.0186C7.95994 10.9365 8.83673 10.0597 9.91885 10.0597ZM23.7455 10.0597C24.8276 10.0597 25.7044 10.9365 25.7044 12.0186C25.7044 13.1007 24.8276 13.9775 23.7455 13.9775C22.6634 13.9775 21.7866 13.1007 21.7866 12.0186C21.7866 10.9365 22.6634 10.0597 23.7455 10.0597ZM16.8311 10.0597C17.9132 10.0597 18.79 10.9365 18.79 12.0186C18.79 13.1007 17.9132 13.9775 16.8311 13.9775C15.749 13.9775 14.8722 13.1007 14.8722 12.0186C14.8722 10.9365 15.749 10.0597 16.8311 10.0597Z" fill="#2E84BC"/>
<path d="M9.5 21.4999L1 24.9999V9.99991C1 9.59991 2 6.49991 2.5 4.99991L7.5 2.49991H14.5C18.3333 2.33325 26 2.09991 26 2.49991C26 2.89991 29 4.33325 30.5 4.99991L32 8.99991V12.9999L30.5 17.9999L26 20.9999L22 21.4999H9.5Z" fill="#2E84BC"/>
<path d="M11.8778 12.0185C11.8778 10.9364 11.001 10.0596 9.91887 10.0596C8.83675 10.0596 7.95996 10.9364 7.95996 12.0185C7.95996 13.1006 8.83675 13.9774 9.91887 13.9774C11.001 13.9774 11.8778 13.1006 11.8778 12.0185Z" fill="white"/>
<path d="M25.7045 12.0185C25.7045 10.9364 24.8277 10.0596 23.7455 10.0596C22.6634 10.0596 21.7866 10.9364 21.7866 12.0185C21.7866 13.1006 22.6634 13.9774 23.7455 13.9774C24.8277 13.9774 25.7045 13.1006 25.7045 12.0185Z" fill="white"/>
<path d="M18.79 12.0185C18.79 10.9364 17.9132 10.0596 16.8311 10.0596C15.749 10.0596 14.8722 10.9364 14.8722 12.0185C14.8722 13.1006 15.749 13.9774 16.8311 13.9774C17.9132 13.9774 18.79 13.1006 18.79 12.0185Z" fill="white"/>
</svg>
