<svg width="27" height="34" viewBox="0 0 27 34" fill="none" xmlns="http://www.w3.org/2000/svg">
<path d="M26.0172 26.4658C25.9202 26.4048 25.1901 25.9088 24.4591 24.4085C23.1166 21.6534 22.8348 17.7722 22.8348 15.0016C22.8348 14.9895 22.8346 14.9776 22.8341 14.9656C22.8195 11.3038 20.5583 8.14713 17.3225 6.73081V4.56475C17.3225 2.59912 15.6761 1 13.6524 1H13.3482C11.3245 1 9.67814 2.59912 9.67814 4.56475V6.73069C6.43151 8.15156 4.16579 11.3243 4.16579 15.0016C4.16579 17.7722 3.884 21.6533 2.5415 24.4085C1.81054 25.9088 1.08048 26.4047 0.983413 26.4658C0.574651 26.6493 0.373106 27.073 0.467143 27.5024C0.562082 27.9361 0.980125 28.2351 1.43665 28.2351H8.52307C8.56265 30.8689 10.7794 33 13.5003 33C16.2212 33 18.438 30.8689 18.4776 28.2351H25.564C26.0205 28.2351 26.4386 27.9361 26.5335 27.5024C26.6274 27.073 26.426 26.6492 26.0172 26.4658ZM11.6118 4.56475C11.6118 3.63469 12.3908 2.87806 13.3483 2.87806H13.6524C14.61 2.87806 15.3889 3.63469 15.3889 4.56475V6.12206C14.7787 5.99975 14.147 5.93538 13.5001 5.93538C12.8534 5.93538 12.2218 5.99969 11.6119 6.12187V4.56475H11.6118ZM13.5003 31.1219C11.8456 31.1219 10.4959 29.8334 10.4567 28.2352H16.5439C16.5048 29.8333 15.155 31.1219 13.5003 31.1219ZM17.3933 26.357C17.3931 26.357 3.63998 26.357 3.63998 26.357C3.80723 26.1042 3.97745 25.8181 4.14664 25.4946C5.44241 23.0169 6.09944 19.4866 6.09944 15.0016C6.09944 11.038 9.41936 7.81344 13.5 7.81344C17.5807 7.81344 20.9006 11.038 20.9006 15.0047C20.9006 15.0162 20.9008 15.0278 20.9012 15.0393C20.9049 19.5063 21.5619 23.0239 22.854 25.4946C23.0232 25.8181 23.1935 26.1042 23.3607 26.357H17.3933Z" fill="white" stroke="white" stroke-width="0.6"/>
</svg>
