<svg width="49" height="49" viewBox="0 0 49 49" fill="none" xmlns="http://www.w3.org/2000/svg">
<circle cx="24.5" cy="24.5" r="24.5" fill="#C4C4C4"/>
<circle cx="24.5" cy="24.5" r="24.5" fill="url(#paint0_linear)"/>
<path d="M46.8216 20.9681L42.0711 12.7544C41.9089 12.4739 41.6568 12.2715 41.3687 12.166C41.3676 12.1656 41.3668 12.1649 41.3656 12.1646L24.6105 6.08153C24.3134 5.97366 23.9877 5.97286 23.69 6.07895L6.64152 12.162C6.64107 12.1622 6.6408 12.1625 6.64035 12.1627C6.34845 12.2672 6.09284 12.471 5.92888 12.7543L1.1783 20.9681C0.983159 21.3056 0.946233 21.7106 1.07723 22.0772C1.20822 22.4438 1.49401 22.7356 1.85994 22.8763L5.75054 24.3725V34.582C5.75054 35.1449 6.10695 35.6473 6.64152 35.838L23.5604 41.8748C23.733 41.9543 23.9246 42 24.1275 42C24.1305 42 24.1334 41.9996 24.1364 41.9996C24.1399 41.9996 24.1433 42 24.1467 42C24.3012 42 24.4557 41.9737 24.6034 41.9211L41.6518 35.838C42.1864 35.6473 42.5428 35.1449 42.5428 34.582V24.2596L46.14 22.8763C46.5059 22.7356 46.7918 22.4438 46.9227 22.0772C47.0538 21.7106 47.0169 21.3056 46.8216 20.9681ZM24.1427 8.75547L36.9919 13.4204L24.124 18.1099L11.0644 13.4219L24.1427 8.75547ZM7.70428 15.0557L22.1522 20.2421L18.5285 26.4221L4.29579 20.9489L7.70428 15.0557ZM8.44585 25.409L18.6272 29.3243C18.7868 29.3856 18.9516 29.415 19.1145 29.415C19.5829 29.415 20.0329 29.1721 20.2803 28.7503L22.7798 24.4875V38.7583L8.44585 33.6439V25.409ZM39.8475 33.6439L25.4751 38.772V24.7178L27.7049 28.7243C28.0307 29.3099 28.7437 29.5662 29.3727 29.3243L39.8475 25.2962V33.6439ZM29.4962 26.4126L26.0651 20.2476L40.2985 15.0605L43.7041 20.9489L29.4962 26.4126Z" fill="white"/>
<defs>
<linearGradient id="paint0_linear" x1="24.5" y1="0" x2="24.5" y2="49" gradientUnits="userSpaceOnUse">
<stop stop-color="#3B8EC2"/>
<stop offset="1" stop-color="#68AED8"/>
</linearGradient>
</defs>
</svg>
