<svg width="11" height="11" viewBox="0 0 11 11" fill="none" xmlns="http://www.w3.org/2000/svg">
<path fill-rule="evenodd" clip-rule="evenodd" d="M10.0543 3.20654C9.95394 3.30695 9.90373 3.35715 9.85644 3.39426C9.49403 3.67863 8.98424 3.67863 8.62182 3.39426C8.57453 3.35715 8.52432 3.30695 8.42391 3.20654L7.44565 2.22828C7.34524 2.12787 7.29504 2.07766 7.25793 2.03037C6.97356 1.66795 6.97356 1.15816 7.25793 0.795751C7.29504 0.748459 7.34524 0.698253 7.44565 0.597842C7.54606 0.497431 7.59627 0.447226 7.64356 0.410117C8.00598 0.125745 8.51576 0.125745 8.87818 0.410118C8.92547 0.447226 8.97568 0.497431 9.07609 0.597842L10.0543 1.5761C10.1548 1.67651 10.205 1.72672 10.2421 1.77401C10.5264 2.13643 10.5264 2.64622 10.2421 3.00863C10.205 3.05592 10.1548 3.10613 10.0543 3.20654ZM2.27941 10.2174C1.48672 10.2174 1.09038 10.2174 0.81901 10.0053C0.75483 9.95517 0.697019 9.89736 0.646861 9.83318C0.434784 9.56182 0.434784 9.16547 0.434784 8.37278C0.434784 8.02796 0.434784 7.85555 0.489289 7.69729C0.502539 7.65882 0.518124 7.62119 0.535958 7.58462C0.609322 7.43417 0.731235 7.31226 0.975062 7.06843L4.67391 3.36958C5.23443 2.80907 5.51469 2.52881 5.85653 2.48688C5.93738 2.47697 6.01914 2.47697 6.09999 2.48688C6.44183 2.52881 6.72209 2.80907 7.28261 3.36958C7.84313 3.9301 8.12338 4.21036 8.16531 4.5522C8.17522 4.63305 8.17522 4.71481 8.16531 4.79566C8.12338 5.1375 7.84312 5.41776 7.28261 5.97828L3.58376 9.67713C3.33993 9.92096 3.21802 10.0429 3.06757 10.1162C3.031 10.1341 2.99337 10.1497 2.9549 10.1629C2.79664 10.2174 2.62423 10.2174 2.27941 10.2174Z" fill="white"/>
</svg>
