<svg width="32" height="31" viewBox="0 0 32 31" fill="none" xmlns="http://www.w3.org/2000/svg">
<path d="M27.3272 0.0175781H4.39105C2.28278 0.0175781 0.568359 1.732 0.568359 3.84027V26.7764C0.568359 28.8847 2.28278 30.5991 4.39105 30.5991H27.3272C29.4354 30.5991 31.1499 28.8847 31.1499 26.7764V3.84027C31.1499 1.732 29.4354 0.0175781 27.3272 0.0175781ZM4.39105 2.56604H27.3272C28.0299 2.56604 28.6014 3.13751 28.6014 3.84027V12.8694L24.4054 8.67338C23.9077 8.17594 23.1013 8.17594 22.6036 8.67338L13.6292 17.6477L10.3889 14.4074C9.89114 13.91 9.08479 13.91 8.58704 14.4074L3.11682 19.8776V3.84027C3.11682 3.13751 3.68829 2.56604 4.39105 2.56604ZM27.3272 28.0506H4.39105C3.68829 28.0506 3.11682 27.4791 3.11682 26.7764V23.4813L9.48796 17.1102L16.8695 24.4911C17.1187 24.7409 17.4441 24.865 17.7705 24.865C18.0968 24.865 18.4222 24.7409 18.6714 24.4917C19.1688 23.994 19.1688 23.1876 18.6714 22.6899L15.431 19.4496L23.5045 11.3768L28.6014 16.4737V26.7764C28.6014 27.4791 28.0299 28.0506 27.3272 28.0506Z" fill="#8A96A3"/>
<path d="M10.762 7.66296C10.762 9.07034 9.62087 10.2114 8.2135 10.2114C6.80612 10.2114 5.66504 9.07034 5.66504 7.66296C5.66504 6.25558 6.80612 5.1145 8.2135 5.1145C9.62087 5.1145 10.762 6.25558 10.762 7.66296Z" fill="#8A96A3"/>
</svg>
