<svg width="19" height="20" viewBox="0 0 19 20" fill="none" xmlns="http://www.w3.org/2000/svg">
<path d="M16.4235 0.564453H2.34621C1.05224 0.564453 0 1.6167 0 2.91066V16.9879C0 18.2819 1.05224 19.3341 2.34621 19.3341H16.4235C17.7174 19.3341 18.7697 18.2819 18.7697 16.9879V2.91066C18.7697 1.6167 17.7174 0.564453 16.4235 0.564453ZM2.34621 2.12859H16.4235C16.8548 2.12859 17.2055 2.47934 17.2055 2.91066V8.45236L14.6302 5.87703C14.3247 5.57172 13.8298 5.57172 13.5243 5.87703L8.01622 11.3851L6.02744 9.39634C5.72194 9.09104 5.22704 9.09104 4.92154 9.39634L1.56414 12.7537V2.91066C1.56414 2.47934 1.91489 2.12859 2.34621 2.12859ZM16.4235 17.77H2.34621C1.91489 17.77 1.56414 17.4192 1.56414 16.9879V14.9655L5.47449 11.0552L10.005 15.5853C10.1579 15.7386 10.3577 15.8148 10.5579 15.8148C10.7582 15.8148 10.958 15.7386 11.1109 15.5857C11.4162 15.2802 11.4162 14.7853 11.1109 14.4798L9.12211 12.491L14.0773 7.53625L17.2055 10.6645V16.9879C17.2055 17.4192 16.8548 17.77 16.4235 17.77Z" fill="#3A8CC1"/>
<path d="M6.25621 5.25652C6.25621 6.12031 5.55586 6.82066 4.69207 6.82066C3.82828 6.82066 3.12793 6.12031 3.12793 5.25652C3.12793 4.39273 3.82828 3.69238 4.69207 3.69238C5.55586 3.69238 6.25621 4.39273 6.25621 5.25652Z" fill="#3A8CC1"/>
</svg>
