<svg width="19" height="17" viewBox="0 0 19 17" fill="none" xmlns="http://www.w3.org/2000/svg">
<path d="M6.87261 5.07261C6.80213 4.95005 6.80213 4.80076 6.87261 4.67863L9.08666 0.843072C9.22729 0.599184 9.62838 0.599184 9.76898 0.843072L11.9834 4.67863C12.0539 4.80073 12.0539 4.95005 11.9834 5.07261C11.9129 5.19471 11.7829 5.26959 11.6422 5.26959H7.21381C7.07311 5.26959 6.94315 5.19471 6.87261 5.07261ZM4.10899 10.6471H14.7474C14.8885 10.6471 15.0185 10.5722 15.0886 10.4501C15.1591 10.328 15.1591 10.1782 15.0886 10.0561L13.1567 6.7099C13.0862 6.58779 12.9562 6.51291 12.8155 6.51291H6.04177C5.90114 6.51291 5.7707 6.58779 5.70058 6.7099L3.76822 10.0561C3.69771 10.1782 3.69771 10.328 3.76822 10.4501C3.83799 10.5718 3.968 10.6471 4.10899 10.6471ZM18.4755 15.9229L16.2611 12.0877C16.1906 11.9656 16.0606 11.8907 15.9199 11.8907H2.9366C2.79597 11.8907 2.66554 11.9656 2.59541 12.0877L0.381008 15.9229C0.310497 16.045 0.310497 16.1948 0.381008 16.3169C0.451518 16.439 0.581506 16.5139 0.7222 16.5139H18.1343C18.2749 16.5139 18.4053 16.439 18.4755 16.3169C18.5455 16.1948 18.546 16.0447 18.4755 15.9229Z" fill="black"/>
</svg>
