<svg width="22" height="22" viewBox="0 0 22 22" fill="none" xmlns="http://www.w3.org/2000/svg">
<path d="M1.11547 9.73505H9.50201V1.34832C9.50201 0.769764 9.97172 0.300049 10.5505 0.300049C11.129 0.300049 11.5987 0.769764 11.5987 1.34832V9.73505H19.9855C20.564 9.73505 21.0337 10.2048 21.0337 10.7833C21.0337 11.3621 20.564 11.8318 19.9855 11.8318H11.5987V20.2183C11.5987 20.7971 11.129 21.2668 10.5505 21.2668C9.97172 21.2668 9.50201 20.7971 9.50201 20.2183V11.8318H1.11547C0.53672 11.8318 0.0670052 11.3621 0.0670052 10.7833C0.0670052 10.2048 0.53672 9.73505 1.11547 9.73505Z" fill="#C4C4C4"/>
</svg>
