<svg width="49" height="49" viewBox="0 0 49 49" fill="none" xmlns="http://www.w3.org/2000/svg">
<circle cx="24.5" cy="24.5" r="24.5" fill="#C4C4C4"/>
<circle cx="24.5" cy="24.5" r="24.5" fill="url(#paint0_linear)"/>
<path d="M31.7833 22.4688C31.7833 21.6921 31.1537 21.0625 30.377 21.0625H15.8926C15.116 21.0625 14.4864 21.6921 14.4864 22.4688C14.4864 23.2454 15.116 23.875 15.8926 23.875H30.377C31.1537 23.875 31.7833 23.2454 31.7833 22.4688Z" fill="white"/>
<path d="M15.8926 26.6875C15.116 26.6875 14.4864 27.3171 14.4864 28.0938C14.4864 28.8704 15.116 29.5 15.8926 29.5H24.6895C25.4662 29.5 26.0957 28.8704 26.0957 28.0938C26.0957 27.3171 25.4662 26.6875 24.6895 26.6875H15.8926Z" fill="white"/>
<path d="M19.1971 40.1875H14.4939C12.9431 40.1875 11.6814 38.9258 11.6814 37.375V12.625C11.6814 11.0742 12.9431 9.8125 14.4939 9.8125H31.783C33.3338 9.8125 34.5955 11.0742 34.5955 12.625V21.2734C34.5955 22.0501 35.2251 22.6797 36.0017 22.6797C36.7784 22.6797 37.408 22.0501 37.408 21.2734V12.625C37.408 9.52338 34.8846 7 31.783 7H14.4939C11.3923 7 8.86893 9.52338 8.86893 12.625V37.375C8.86893 40.4766 11.3923 43 14.4939 43H19.1971C19.9737 43 20.6033 42.3704 20.6033 41.5938C20.6033 40.8171 19.9737 40.1875 19.1971 40.1875Z" fill="white"/>
<path d="M39.8982 27.3605C38.2533 25.7157 35.5769 25.7156 33.9331 27.3594L26.2126 35.0629C26.0486 35.2265 25.9277 35.428 25.8603 35.6496L24.1789 41.185C24.0298 41.6757 24.1597 42.2086 24.5179 42.5757C24.7862 42.8507 25.1507 43 25.5246 43C25.6496 43 25.7759 42.9833 25.8999 42.9489L31.5759 41.3766C31.8094 41.3119 32.0223 41.188 32.1939 41.0167L39.8983 33.3268C41.5432 31.6819 41.5432 29.0056 39.8982 27.3605ZM30.4687 38.7649L27.6132 39.556L28.4489 36.8047L33.6582 31.6069L35.6474 33.596L30.4687 38.7649ZM37.9105 31.3373L37.6381 31.6092L35.6493 29.6204L35.9208 29.3494C36.4691 28.8011 37.3612 28.8011 37.9095 29.3494C38.4578 29.8977 38.4578 30.7898 37.9105 31.3373Z" fill="white"/>
<path d="M30.377 15.4375H15.8926C15.116 15.4375 14.4864 16.0671 14.4864 16.8438C14.4864 17.6204 15.116 18.25 15.8926 18.25H30.377C31.1537 18.25 31.7833 17.6204 31.7833 16.8438C31.7833 16.0671 31.1537 15.4375 30.377 15.4375Z" fill="white"/>
<defs>
<linearGradient id="paint0_linear" x1="24.5" y1="0" x2="24.5" y2="49" gradientUnits="userSpaceOnUse">
<stop stop-color="#3B8EC2"/>
<stop offset="1" stop-color="#68AED8"/>
</linearGradient>
</defs>
</svg>
