<svg width="30" height="33" viewBox="0 0 30 33" fill="none" xmlns="http://www.w3.org/2000/svg">
<path d="M21.1315 13.8144C21.1315 13.1208 20.5693 12.5586 19.8757 12.5586H6.94042C6.24681 12.5586 5.68457 13.1208 5.68457 13.8144C5.68457 14.5081 6.24681 15.0703 6.94042 15.0703H19.8757C20.5693 15.0703 21.1315 14.5081 21.1315 13.8144Z" fill="#8A96A3"/>
<path d="M6.94042 17.582C6.24681 17.582 5.68457 18.1443 5.68457 18.8379C5.68457 19.5315 6.24681 20.0937 6.94042 20.0937H14.7965C15.4901 20.0937 16.0523 19.5315 16.0523 18.8379C16.0523 18.1443 15.4901 17.582 14.7965 17.582H6.94042Z" fill="#8A96A3"/>
<path d="M9.89199 29.6381H5.69186C4.30691 29.6381 3.18016 28.5113 3.18016 27.1264V5.0234C3.18016 3.63845 4.30691 2.5117 5.69186 2.5117H21.1319C22.5168 2.5117 23.6436 3.63845 23.6436 5.0234V12.7469C23.6436 13.4405 24.2058 14.0027 24.8994 14.0027C25.593 14.0027 26.1553 13.4405 26.1553 12.7469V5.0234C26.1553 2.2535 23.9018 0 21.1319 0H5.69186C2.92196 0 0.668457 2.2535 0.668457 5.0234V27.1264C0.668457 29.8963 2.92196 32.1498 5.69186 32.1498H9.89199C10.5856 32.1498 11.1478 31.5875 11.1478 30.8939C11.1478 30.2003 10.5856 29.6381 9.89199 29.6381Z" fill="#8A96A3"/>
<path d="M28.3794 18.1829C26.9105 16.714 24.5203 16.7139 23.0523 18.1819L16.1575 25.0615C16.0111 25.2076 15.9031 25.3876 15.8429 25.5855L14.3414 30.5288C14.2082 30.9671 14.3242 31.443 14.6441 31.7709C14.8837 32.0164 15.2092 32.1497 15.5431 32.1497C15.6548 32.1497 15.7676 32.1348 15.8783 32.1041L20.9472 30.7C21.1558 30.6422 21.3459 30.5315 21.4991 30.3786L28.3795 23.5111C29.8485 22.0422 29.8485 19.652 28.3794 18.1829ZM19.9585 28.3676L17.4083 29.074L18.1546 26.617L22.8069 21.9751L24.5833 23.7515L19.9585 28.3676ZM26.6044 21.7343L26.361 21.9772L24.585 20.2011L24.8275 19.9591C25.3171 19.4694 26.1138 19.4694 26.6035 19.9591C27.0931 20.4487 27.0931 21.2454 26.6044 21.7343Z" fill="#8A96A3"/>
<path d="M19.8757 7.53516H6.94042C6.24681 7.53516 5.68457 8.0974 5.68457 8.79101C5.68457 9.48461 6.24681 10.0469 6.94042 10.0469H19.8757C20.5693 10.0469 21.1315 9.48461 21.1315 8.79101C21.1315 8.0974 20.5693 7.53516 19.8757 7.53516Z" fill="#8A96A3"/>
</svg>
