<svg width="49" height="49" viewBox="0 0 49 49" fill="none" xmlns="http://www.w3.org/2000/svg">
<circle cx="24.5" cy="24.5" r="24.5" fill="#C4C4C4"/>
<circle cx="24.5" cy="24.5" r="24.5" fill="url(#paint0_linear)"/>
<g clip-path="url(#clip0)">
<path d="M40.822 9.8186H10.0748H9.56232C7.25622 9.8186 7 11.2278 7 11.8684V17.7616C7 18.4022 7.51244 18.9146 8.15308 19.0428V36.5944C8.15308 38.0037 9.56232 40.1815 11.356 40.1815H38.7722C40.5658 40.1815 41.847 38.0036 41.847 36.5944V18.9147C42.4876 18.7866 43.0001 18.2741 43.0001 17.6336V11.7403C42.8719 11.0998 42.6156 9.8186 40.822 9.8186ZM39.2847 36.4663C39.1566 36.7225 38.9003 37.3631 38.6442 37.4912H11.484C11.2278 37.3631 10.7153 36.7226 10.7153 36.4663V19.0428H39.2847V36.4663ZM40.3096 16.4805H9.56225V12.3809H40.3095V16.4805H40.3096Z" fill="white"/>
<path d="M29.9325 19.8113H19.9396C18.2741 19.8113 16.9929 21.0924 16.9929 22.758C16.9929 24.4235 18.2741 25.7046 19.9396 25.7046H29.9325C31.5979 25.7046 32.8791 24.4235 32.8791 22.758C32.879 21.0924 31.598 19.8113 29.9325 19.8113ZM29.9325 23.1422H19.9396C19.6834 23.1422 19.5552 23.0141 19.5552 22.7579C19.5552 22.5017 19.6834 22.3735 19.9396 22.3735H29.9325C30.1887 22.3735 30.3168 22.5017 30.3168 22.7579C30.3169 22.886 30.1888 23.1422 29.9325 23.1422Z" fill="white"/>
</g>
<defs>
<linearGradient id="paint0_linear" x1="24.5" y1="0" x2="24.5" y2="49" gradientUnits="userSpaceOnUse">
<stop stop-color="#3B8EC2"/>
<stop offset="1" stop-color="#68AED8"/>
</linearGradient>
<clipPath id="clip0">
<rect x="7" y="7" width="36" height="36" fill="white"/>
</clipPath>
</defs>
</svg>
