<svg width="26" height="27" viewBox="0 0 26 27" fill="none" xmlns="http://www.w3.org/2000/svg">
<g opacity="0.5">
<path d="M12.8331 2.42325C9.97145 2.42325 7.64328 4.73081 7.64328 7.5672C7.64328 10.4021 9.97145 12.7084 12.8331 12.7084C15.6964 12.7084 18.0258 10.4021 18.0258 7.5672C18.0258 4.73081 15.6964 2.42325 12.8331 2.42325ZM12.8331 0C17.0494 0 20.4682 3.38648 20.4682 7.5672C20.4682 11.7452 17.0494 15.1317 12.8331 15.1317C8.61954 15.1317 5.20093 11.7452 5.20093 7.5672C5.20093 3.38648 8.61954 0 12.8331 0Z" fill="white"/>
<path d="M23.2536 24.576C23.1516 21.8296 20.8679 19.6264 18.0754 19.6264H7.62413C4.83161 19.6264 2.5479 21.8296 2.4459 24.576H23.2536ZM25.6995 26.9992H24.172H1.52483H0V24.7677C0 20.5977 3.41873 17.2031 7.62413 17.2031H18.0754C22.2809 17.2031 25.6995 20.5977 25.6995 24.7677V26.9992Z" fill="white"/>
</g>
</svg>
