<svg width="22" height="22" viewBox="0 0 22 22" fill="none" xmlns="http://www.w3.org/2000/svg">
<path d="M16.3397 6.47133C15.8862 6.15226 15.2553 6.25487 14.9307 6.70062L9.95278 13.5338C9.81685 13.6887 9.64647 13.7222 9.55521 13.7282C9.46127 13.7345 9.27885 13.7225 9.12243 13.5762L5.89981 10.5352C5.49743 10.1555 4.85804 10.1684 4.4719 10.5637C4.08556 10.959 4.09856 11.5873 4.50084 11.967L7.7267 15.0109C8.20982 15.4629 8.85471 15.7143 9.51823 15.7143C9.57524 15.7143 9.63241 15.7125 9.68957 15.7087C10.4124 15.6614 11.0872 15.316 11.541 14.7611C11.5528 14.7467 11.5641 14.732 11.575 14.7171L16.5731 7.85605C16.8977 7.41036 16.7933 6.79041 16.3397 6.47133Z" fill="#8A96A3"/>
<rect x="1" y="1" width="20" height="20" rx="4" stroke="#8A96A3" stroke-width="2"/>
</svg>
