<svg width="26" height="26" viewBox="0 0 26 26" fill="none" xmlns="http://www.w3.org/2000/svg">
<path d="M7.17883 5.91695C6.80386 5.54168 6.1955 5.54168 5.82053 5.91695C4.42831 7.30917 3.74404 9.24861 3.9429 11.2383C3.99251 11.734 4.41008 12.1035 4.89774 12.1035C4.92978 12.1035 4.96208 12.1019 4.99412 12.0987C5.52214 12.0458 5.90732 11.5748 5.85451 11.0471C5.71298 9.63313 6.19586 8.25822 7.17883 7.2752C7.5541 6.90028 7.5541 6.29187 7.17883 5.91695Z" fill="#C4C4C4"/>
<path d="M10.9828 0C4.92685 0 0 4.92685 0 10.9828C0 17.0387 4.92685 21.9655 10.9828 21.9655C17.0387 21.9655 21.9655 17.0387 21.9655 10.9828C21.9655 4.92685 17.0386 0 10.9828 0ZM10.9828 20.0443C5.98609 20.0443 1.92121 15.9794 1.92121 10.9828C1.92121 5.98609 5.98609 1.92121 10.9828 1.92121C15.9791 1.92121 20.0443 5.98609 20.0443 10.9828C20.0443 15.9794 15.9794 20.0443 10.9828 20.0443Z" fill="#C4C4C4"/>
<path d="M25.7185 24.3602L18.7381 17.38C18.3629 17.0047 17.7551 17.0047 17.3798 17.38C17.0046 17.7549 17.0046 18.3633 17.3798 18.7383L24.3602 25.7185C24.5478 25.9062 24.7934 26 25.0393 26C25.2853 26 25.5308 25.9062 25.7185 25.7185C26.0937 25.3436 26.0937 24.7352 25.7185 24.3602Z" fill="#C4C4C4"/>
</svg>
