<svg width="31" height="31" viewBox="0 0 31 31" fill="none" xmlns="http://www.w3.org/2000/svg">
<g opacity="0.5">
<path d="M15.5 10.65L15.5004 10.65C18.1775 10.6531 20.3469 12.8225 20.35 15.4996V15.5C20.35 18.1786 18.1786 20.35 15.5 20.35C12.8214 20.35 10.65 18.1786 10.65 15.5C10.65 12.8214 12.8214 10.65 15.5 10.65ZM15.5 12.0423C13.5904 12.0423 12.0423 13.5904 12.0423 15.5C12.0423 17.4096 13.5903 18.9576 15.4998 18.9577C17.4086 18.9553 18.9555 17.4084 18.9577 15.4996C18.9575 13.5901 17.4095 12.0423 15.5 12.0423Z" fill="white" stroke="white" stroke-width="0.7"/>
<path d="M26.3949 25.067C26.0393 25.4736 25.6605 25.8593 25.2604 26.2222M26.3949 25.067C26.8743 24.5265 26.8791 23.7146 26.406 23.1686C25.1697 21.7683 25.3026 19.6309 26.7028 18.3946C27.2518 17.9099 27.9431 17.6165 28.6731 17.5584L25.2604 26.2222M26.3949 25.067L26.6584 25.2974C26.6581 25.2977 26.6578 25.298 26.6576 25.2983M26.3949 25.067L26.6567 25.2992C26.657 25.2989 26.6573 25.2986 26.6576 25.2983M25.2604 26.2222C24.7188 26.7081 23.9024 26.7218 23.3446 26.2546L25.2604 26.2222ZM26.6576 25.2983C26.2933 25.7147 25.9054 26.1098 25.4956 26.4815L25.4941 26.4828C24.8228 27.0849 23.8111 27.1019 23.1199 26.5229L23.1196 26.5227C22.6281 26.1101 22.0185 25.8638 21.3784 25.8191C19.7052 25.7024 18.2541 26.9641 18.1373 28.6374L18.1372 28.6379C18.0729 29.5378 17.3574 30.2539 16.4575 30.3188L16.4575 30.3188L16.4551 30.319C15.9044 30.355 15.3519 30.3597 14.8006 30.3329M26.6576 25.2983C27.2527 24.6265 27.2583 23.6178 26.6706 22.9394L26.6684 22.9369C25.56 21.6816 25.6791 19.7654 26.9345 18.657C27.4266 18.2225 28.0464 17.9594 28.7009 17.9073L28.7047 17.907L28.7047 17.907C29.5983 17.826 30.2942 17.0966 30.3331 16.2003C30.3331 16.2007 30.333 16.2011 30.333 16.2015L14.8006 30.3329M14.8006 30.3329C13.9039 30.2942 13.1741 29.5979 13.0934 28.7039L13.0933 28.7039L13.0931 28.7003C13.0409 28.0463 12.7779 27.4269 12.3438 26.935C11.2356 25.6795 9.31946 25.56 8.0639 26.6683L8.06141 26.6704C7.3827 27.2582 6.37368 27.2521 5.70211 26.6565C5.28579 26.2927 4.89095 25.905 4.51971 25.4952L4.51971 25.4952L4.51827 25.4936C3.9175 24.8222 3.90013 23.8118 4.47757 23.1201L4.4783 23.1193C4.89176 22.6273 5.13844 22.0167 5.18284 21.3756C5.29862 19.7028 4.03644 18.2529 2.3637 18.1371L2.36302 18.137C1.46287 18.073 0.746558 17.3574 0.681529 16.4574L0.681393 16.4553C0.644827 15.9043 0.640229 15.3517 0.66747 14.8002L14.8006 30.3329ZM25.2995 4.34417L25.0671 4.60594L14.5687 1.03044C14.876 1.01015 15.1852 1 15.4935 1C15.7249 1 15.9559 1.00483 16.184 1.01691L16.1988 0.667229C16.1994 0.667255 16.2 0.667278 16.2007 0.667305C17.0969 0.706301 17.8262 1.40215 17.9072 2.29568L17.9075 2.29951C17.9596 2.95393 18.2226 3.57375 18.6572 4.0659C19.7655 5.32124 21.6818 5.44036 22.9371 4.33197L22.9396 4.32976C23.6182 3.74218 24.6269 3.74805 25.2985 4.34331C25.2988 4.3436 25.2992 4.34388 25.2995 4.34417ZM25.4685 9.6036C25.3401 11.4693 26.7485 13.0858 28.6141 13.2142L26.2219 5.73995C26.7084 6.28207 26.7223 7.09943 26.2543 7.65767C25.7929 8.20674 25.5178 8.88808 25.4685 9.6036ZM28.5266 14.5271L28.5266 14.5271L28.5217 14.5268C27.5293 14.4578 26.5844 14.0758 25.8227 13.4359C23.8338 11.765 23.5762 8.79813 25.2471 6.80924L25.2478 6.80833C25.2935 6.75431 25.2926 6.67508 25.2459 6.62218C24.9183 6.26059 24.5698 5.91833 24.2024 5.5971L24.2023 5.59718L24.1959 5.59128C24.1516 5.55055 24.0843 5.54799 24.037 5.58488C23.2746 6.25631 22.3151 6.66264 21.3021 6.74278L21.2745 6.39387L21.3021 6.74278C18.7177 6.94717 16.4566 5.01985 16.2483 2.43665C16.2399 2.37738 16.1898 2.33259 16.1297 2.33124L16.1297 2.33138L16.12 2.33088C15.6325 2.30633 15.1439 2.31038 14.6569 2.34311L14.6558 2.34318C14.5863 2.34763 14.5312 2.40325 14.5273 2.47262L14.5273 2.47263L14.527 2.47753C14.3536 4.93524 12.3168 6.84287 9.85613 6.85811C9.84709 6.85881 9.83797 6.85917 9.82876 6.85917H9.82835C8.72288 6.85787 7.65347 6.46572 6.80912 5.75216L6.80701 5.75035C6.75392 5.70475 6.67508 5.70577 6.62313 5.75286L6.623 5.75297C6.26105 6.08072 5.91865 6.42948 5.59742 6.79735L5.59751 6.79743L5.59137 6.80411C5.55046 6.84858 5.54797 6.91591 5.58494 6.96319C6.25656 7.72544 6.66304 8.68491 6.74338 9.69781C6.94835 12.2821 5.02162 14.5435 2.43862 14.7525C2.37848 14.7611 2.333 14.8119 2.33139 14.8729L2.33148 14.8729L2.33109 14.8809C2.30721 15.3675 2.31127 15.8552 2.34316 16.3414C2.34932 16.4125 2.40644 16.4686 2.47775 16.4733L2.47886 16.4734C3.47092 16.5425 4.41545 16.9243 5.17693 17.5638L5.17694 17.5638C7.16603 19.2345 7.42417 22.2013 5.75351 24.1904L5.75353 24.1904L5.75068 24.1938C5.70501 24.2468 5.70607 24.3255 5.75314 24.3773L5.75348 24.3777C6.08132 24.7393 6.42995 25.0815 6.79754 25.4025L6.79764 25.4024L6.80499 25.4092C6.84911 25.45 6.91618 25.4525 6.96317 25.4156C7.72545 24.7439 8.68499 24.3373 9.69793 24.257C12.2814 24.0521 14.5422 25.9775 14.7525 28.5593C14.7624 28.6201 14.8141 28.6659 14.8761 28.6681L14.8761 28.6681L14.8816 28.6683C15.3682 28.6929 15.8557 28.6888 16.3418 28.6562C16.4129 28.6504 16.4692 28.5935 16.474 28.5222L16.474 28.5216C16.543 27.5287 16.9252 26.5834 17.5655 25.8215C19.2367 23.8333 22.2033 23.5762 24.1917 25.2474L24.1919 25.2476C24.246 25.2932 24.3254 25.2925 24.3788 25.2461C24.7403 24.9181 25.0824 24.5694 25.4037 24.2018L25.4037 24.2017L25.4073 24.1977C25.4484 24.1522 25.4511 24.0841 25.4143 24.0355C24.7435 23.2735 24.3375 22.3146 24.2572 21.3024C24.0522 18.7182 25.9789 16.4567 28.5619 16.2477C28.6215 16.2392 28.6666 16.1887 28.6682 16.1281L28.6681 16.1281L28.6685 16.1198C28.6924 15.6318 28.6883 15.143 28.6563 14.6554C28.6517 14.586 28.5961 14.531 28.5266 14.5271ZM25.515 7.03438C25.6736 6.84697 25.6699 6.57143 25.5064 6.38837L28.546 14.1776C27.6275 14.1137 26.7529 13.7602 26.0479 13.1679C24.207 11.6213 23.9685 8.87528 25.515 7.03438ZM10.1792 6.50868C10.1792 6.55817 10.169 6.60516 10.1506 6.64773C10.169 6.60533 10.1792 6.55838 10.1792 6.50868Z" fill="white" stroke="white" stroke-width="0.7" stroke-linejoin="round"/>
</g>
</svg>
