<svg width="20" height="24" viewBox="0 0 20 24" fill="none" xmlns="http://www.w3.org/2000/svg">
<circle cx="16" cy="4" r="3" fill="#E5E5E5"/>
<circle cx="16" cy="4" r="3" fill="#E5E5E5"/>
<circle cx="16" cy="4" r="3" fill="#E5E5E5"/>
<circle cx="16" cy="4" r="3" fill="#E5E5E5"/>
<circle cx="16" cy="20" r="3" fill="#E5E5E5"/>
<circle cx="16" cy="20" r="3" fill="#E5E5E5"/>
<circle cx="16" cy="20" r="3" fill="#E5E5E5"/>
<circle cx="16" cy="20" r="3" fill="#E5E5E5"/>
<circle cx="4" cy="12" r="3" fill="#E5E5E5"/>
<circle cx="4" cy="12" r="3" fill="#E5E5E5"/>
<circle cx="4" cy="12" r="3" fill="#E5E5E5"/>
<circle cx="4" cy="12" r="3" fill="#E5E5E5"/>
<path d="M4.00006 8.19507C1.82131 8.19507 0.0488281 9.96756 0.0488281 12.1463C0.0488281 14.3251 1.82131 16.0976 4.00006 16.0976C6.17881 16.0976 7.9513 14.3251 7.9513 12.1463C7.9513 9.96756 6.17881 8.19507 4.00006 8.19507ZM4.00006 14.3414C2.78952 14.3414 1.80495 13.3568 1.80495 12.1463C1.80495 10.9358 2.78956 9.9512 4.00006 9.9512C5.21056 9.9512 6.19517 10.9358 6.19517 12.1463C6.19517 13.3568 5.21061 14.3414 4.00006 14.3414Z" fill="#8A96A3"/>
<path d="M16.0001 0C13.8213 0 12.0488 1.77248 12.0488 3.95123C12.0488 6.12998 13.8213 7.90247 16.0001 7.90247C18.1788 7.90247 19.9513 6.12998 19.9513 3.95123C19.9513 1.77248 18.1788 0 16.0001 0ZM16.0001 6.14634C14.7895 6.14634 13.805 5.16178 13.805 3.95123C13.805 2.74069 14.7896 1.75612 16.0001 1.75612C17.2106 1.75612 18.1952 2.74069 18.1952 3.95123C18.1952 5.16173 17.2106 6.14634 16.0001 6.14634Z" fill="#8A96A3"/>
<path d="M16.0001 16.0977C13.8213 16.0977 12.0488 17.8701 12.0488 20.0489C12.0488 22.2277 13.8213 24.0001 16.0001 24.0001C18.1788 24.0001 19.9513 22.2276 19.9513 20.0489C19.9513 17.8701 18.1788 16.0977 16.0001 16.0977ZM16.0001 22.244C14.7895 22.244 13.805 21.2595 13.805 20.0489C13.805 18.8384 14.7896 17.8538 16.0001 17.8538C17.2106 17.8538 18.1952 18.8384 18.1952 20.0489C18.1952 21.2594 17.2106 22.244 16.0001 22.244Z" fill="#8A96A3"/>
<path d="M13.3581 5.08897L5.98242 9.85938L6.93617 11.334L14.3118 6.56358L13.3581 5.08897Z" fill="#8A96A3"/>
<path d="M6.93648 13.0495L5.98047 14.5225L13.1514 19.1766L14.1074 17.7036L6.93648 13.0495Z" fill="#8A96A3"/>
</svg>
