<svg width="25" height="25" viewBox="0 0 25 25" fill="none" xmlns="http://www.w3.org/2000/svg">
<path d="M12.4437 1.0564C6.1235 1.0564 1 6.17989 1 12.5001C1 18.8202 6.1235 23.9437 12.4437 23.9437C18.7638 23.9437 23.8873 18.8202 23.8873 12.5001C23.8873 6.17989 18.7638 1.0564 12.4437 1.0564ZM12.4437 22.5133C6.91351 22.5133 2.43046 18.0302 2.43046 12.5001C2.43046 6.96991 6.91351 2.48685 12.4437 2.48685C17.9738 2.48685 22.4569 6.96991 22.4569 12.5001C22.4569 18.0302 17.9738 22.5133 12.4437 22.5133Z" fill="#D6DDE4" stroke="#D6DDE4" stroke-width="0.5"/>
<path d="M8.86796 10.3543C9.65798 10.3543 10.2984 9.71389 10.2984 8.92387C10.2984 8.13385 9.65798 7.49341 8.86796 7.49341C8.07794 7.49341 7.4375 8.13385 7.4375 8.92387C7.4375 9.71389 8.07794 10.3543 8.86796 10.3543Z" fill="#D6DDE4" stroke="#D6DDE4" stroke-width="0.5"/>
<path d="M16.0193 10.3543C16.8093 10.3543 17.4498 9.71389 17.4498 8.92387C17.4498 8.13385 16.8093 7.49341 16.0193 7.49341C15.2293 7.49341 14.5889 8.13385 14.5889 8.92387C14.5889 9.71389 15.2293 10.3543 16.0193 10.3543Z" fill="#D6DDE4" stroke="#D6DDE4" stroke-width="0.5"/>
<path d="M18.1657 12.5C17.7707 12.5 17.4559 12.8221 17.4001 13.2131C17.054 15.6404 14.9669 17.5066 12.4439 17.5066C9.92092 17.5066 7.83383 15.6404 7.48769 13.2131C7.43193 12.8221 7.11707 12.5 6.72206 12.5C6.32705 12.5 6.00266 12.8215 6.046 13.2141C6.40126 16.4331 9.13017 18.9371 12.4439 18.9371C15.7576 18.9371 18.4865 16.4331 18.8418 13.2141C18.8851 12.8215 18.5607 12.5 18.1657 12.5Z" fill="#D6DDE4" stroke="#D6DDE4" stroke-width="0.5"/>
</svg>
