<svg width="22" height="29" viewBox="0 0 22 29" fill="none" xmlns="http://www.w3.org/2000/svg">
<path d="M11.0448 2.851C8.60826 2.851 6.62593 4.75498 6.62593 7.09529C6.62593 9.43436 8.60826 11.3373 11.0448 11.3373C13.4827 11.3373 15.4661 9.43436 15.4661 7.09529C15.4661 4.75498 13.4827 2.851 11.0448 2.851ZM11.0448 0.851562C14.6348 0.851562 17.5457 3.64576 17.5457 7.09529C17.5457 10.5426 14.6348 13.3368 11.0448 13.3368C7.45717 13.3368 4.54639 10.5426 4.54639 7.09529C4.54639 3.64576 7.45717 0.851562 11.0448 0.851562Z" fill="white"/>
<path d="M15.5085 17.0456C17.8862 17.0456 19.8306 18.8634 19.9174 21.1295L19.9041 22.066C19.8958 22.6506 20.3674 23.129 20.952 23.129C21.5308 23.129 22 22.6597 22 22.081V21.2877C22 17.8471 19.0893 15.0461 15.5085 15.0461H6.60974C3.02904 15.0461 0.118164 17.8471 0.118164 21.2877V22.0815C0.118164 22.66 0.587134 23.129 1.16564 23.129C1.74951 23.129 2.22067 22.6516 2.21302 22.0678L2.20073 21.1295C2.28758 18.8634 4.23204 17.0456 6.60974 17.0456H15.5085Z" fill="white"/>
<path d="M15.1903 21.2563C14.8394 21.0095 14.3514 21.0889 14.1002 21.4337L10.2493 26.7199C10.1441 26.8398 10.0123 26.8657 9.94174 26.8703C9.86906 26.8752 9.72794 26.8659 9.60693 26.7527L7.11389 24.4002C6.80261 24.1064 6.30797 24.1164 6.00925 24.4222C5.71038 24.7281 5.72043 25.2141 6.03164 25.5078L8.52719 27.8626C8.90093 28.2123 9.39983 28.4068 9.91313 28.4068C9.95724 28.4068 10.0015 28.4054 10.0457 28.4025C10.6048 28.3658 11.1269 28.0986 11.478 27.6693C11.4871 27.6582 11.4958 27.6469 11.5043 27.6353L15.3708 22.3276C15.6219 21.9828 15.5412 21.5032 15.1903 21.2563Z" fill="white"/>
</svg>
