<svg width="38" height="38" viewBox="0 0 38 38" fill="none" xmlns="http://www.w3.org/2000/svg">
<path d="M30.4835 2.86876H25.8431L26.9864 1.72546C27.3815 1.33035 27.3815 0.691444 26.9864 0.296333C26.5913 -0.0987777 25.9524 -0.0987777 25.5573 0.296333L22.699 3.16299C22.5057 3.35634 22.4048 3.60854 22.4048 3.87755C22.4048 4.14656 22.5141 4.39876 22.699 4.59211L25.5657 7.45877C25.759 7.65212 26.0196 7.753 26.2802 7.753C26.5408 7.753 26.793 7.65212 26.9948 7.45877C27.3899 7.06366 27.3899 6.42476 26.9948 6.02964L25.8515 4.88634H30.4919C33.5099 4.88634 35.9562 7.34108 35.9562 10.3506V13.7385C35.9562 14.2933 36.4102 14.7473 36.965 14.7473C37.5199 14.7473 37.9738 14.2933 37.9738 13.7385V10.3506C37.9738 6.223 34.6112 2.86876 30.4835 2.86876Z" fill="#8B8B9A"/>
<path d="M36.5782 19.413H20.0088C19.454 19.413 19 19.8669 19 20.4218V36.9912C19 37.546 19.454 38 20.0088 38H36.5782C37.1331 38 37.587 37.546 37.587 36.9912V20.4218C37.587 19.8585 37.1331 19.413 36.5782 19.413ZM35.5694 35.9824H21.0176V21.4306H35.5694V35.9824Z" fill="#8B8B9A"/>
<path d="M12.4345 30.5433C12.0394 30.1482 11.4005 30.1482 11.0054 30.5433C10.6103 30.9384 10.6103 31.5773 11.0054 31.9724L12.1487 33.1157H7.50826C4.49028 33.1157 2.04395 30.661 2.04395 27.6514V24.2636C2.04395 23.7087 1.59 23.2548 1.03516 23.2548C0.480324 23.2548 0.0263672 23.7087 0.0263672 24.2636V27.6514C0.0263672 31.7791 3.38061 35.1333 7.50826 35.1333H12.1487L11.0054 36.2766C10.6103 36.6717 10.6103 37.3106 11.0054 37.7057C11.1988 37.8991 11.4594 38 11.72 38C11.9806 38 12.2328 37.8991 12.4345 37.7057L15.3012 34.8391C15.6963 34.444 15.6963 33.8051 15.3012 33.41L12.4345 30.5433Z" fill="#8B8B9A"/>
<path d="M1.11084 2.01966C1.37986 2.01966 1.64046 1.91038 1.82541 1.72543C2.01035 1.54049 2.11964 1.27988 2.11964 1.01087C2.11964 0.750264 2.01035 0.481252 1.82541 0.296307C1.64046 0.111361 1.37986 0.0020752 1.11084 0.0020752C0.841833 0.0020752 0.581228 0.111361 0.396282 0.296307C0.211337 0.481252 0.102051 0.741857 0.102051 1.01087C0.102051 1.27988 0.211337 1.54049 0.396282 1.72543C0.589634 1.91038 0.841833 2.01966 1.11084 2.01966Z" fill="#8B8B9A"/>
<path d="M9.3999 2.01966C9.95474 2.01966 10.4087 1.56571 10.4087 1.01087C10.4087 0.456032 9.95474 0.0020752 9.3999 0.0020752C8.84507 0.0020752 8.39111 0.456032 8.39111 1.01087C8.39111 1.56571 8.83666 2.01966 9.3999 2.01966Z" fill="#8B8B9A"/>
<path d="M5.25489 2.01966C5.80972 2.01966 6.26368 1.56571 6.26368 1.01087C6.26368 0.456032 5.80972 0.0020752 5.25489 0.0020752C4.70005 0.0020752 4.24609 0.456032 4.24609 1.01087C4.24609 1.56571 4.70005 2.01966 5.25489 2.01966Z" fill="#8B8B9A"/>
<path d="M13.5356 2.01966C14.0905 2.01966 14.5444 1.56571 14.5444 1.01087C14.5444 0.456032 14.0905 0.0020752 13.5356 0.0020752C12.9808 0.0020752 12.5269 0.456032 12.5269 1.01087C12.5269 1.56571 12.9808 2.01966 13.5356 2.01966Z" fill="#8B8B9A"/>
<path d="M17.6802 0.0020752C17.4196 0.0020752 17.1506 0.111361 16.9656 0.296307C16.7807 0.481252 16.6714 0.741857 16.6714 1.01087C16.6714 1.27988 16.7807 1.54049 16.9656 1.72543C17.1506 1.91038 17.4112 2.01966 17.6802 2.01966C17.9492 2.01966 18.2098 1.91038 18.3947 1.72543C18.5797 1.54049 18.689 1.27988 18.689 1.01087C18.689 0.741857 18.5797 0.481252 18.3947 0.296307C18.2098 0.111361 17.9492 0.0020752 17.6802 0.0020752Z" fill="#8B8B9A"/>
<path d="M17.6802 12.4355C17.1253 12.4355 16.6714 12.8895 16.6714 13.4443C16.6714 13.9992 17.1253 14.4531 17.6802 14.4531C18.235 14.4531 18.689 13.9992 18.689 13.4443C18.689 12.8811 18.2434 12.4355 17.6802 12.4355Z" fill="#8B8B9A"/>
<path d="M17.6802 8.29102C17.1253 8.29102 16.6714 8.74497 16.6714 9.29981C16.6714 9.85465 17.1253 10.3086 17.6802 10.3086C18.235 10.3086 18.689 9.85465 18.689 9.29981C18.689 8.73657 18.2434 8.29102 17.6802 8.29102Z" fill="#8B8B9A"/>
<path d="M17.6802 4.14661C17.1253 4.14661 16.6714 4.60056 16.6714 5.1554C16.6714 5.71023 17.1253 6.16419 17.6802 6.16419C18.235 6.16419 18.689 5.71023 18.689 5.1554C18.689 4.60056 18.2434 4.14661 17.6802 4.14661Z" fill="#8B8B9A"/>
<path d="M17.6802 16.5715C17.4112 16.5715 17.1506 16.6808 16.9656 16.8658C16.7807 17.0507 16.6714 17.3113 16.6714 17.5803C16.6714 17.8409 16.7807 18.1099 16.9656 18.2949C17.1506 18.4798 17.4112 18.5891 17.6802 18.5891C17.9492 18.5891 18.2098 18.4798 18.3947 18.2949C18.5797 18.1099 18.689 17.8493 18.689 17.5803C18.689 17.3113 18.5797 17.0507 18.3947 16.8658C18.2099 16.6808 17.9492 16.5715 17.6802 16.5715Z" fill="#8B8B9A"/>
<path d="M13.5356 18.5891C14.0905 18.5891 14.5444 18.1352 14.5444 17.5803C14.5444 17.0255 14.0905 16.5715 13.5356 16.5715C12.9808 16.5715 12.5269 17.0255 12.5269 17.5803C12.5269 18.1436 12.9808 18.5891 13.5356 18.5891Z" fill="#8B8B9A"/>
<path d="M9.3999 18.5891C9.95474 18.5891 10.4087 18.1352 10.4087 17.5803C10.4087 17.0255 9.95474 16.5715 9.3999 16.5715C8.84507 16.5715 8.39111 17.0255 8.39111 17.5803C8.39111 18.1436 8.83666 18.5891 9.3999 18.5891Z" fill="#8B8B9A"/>
<path d="M5.25489 18.5891C5.80972 18.5891 6.26368 18.1352 6.26368 17.5803C6.26368 17.0255 5.80972 16.5715 5.25489 16.5715C4.70005 16.5715 4.24609 17.0255 4.24609 17.5803C4.24609 18.1436 4.70005 18.5891 5.25489 18.5891Z" fill="#8B8B9A"/>
<path d="M1.11084 18.5891C1.37986 18.5891 1.64046 18.4798 1.82541 18.2949C2.01035 18.1099 2.11964 17.8493 2.11964 17.5803C2.11964 17.3113 2.01035 17.0507 1.82541 16.8658C1.64046 16.6808 1.37986 16.5715 1.11084 16.5715C0.841833 16.5715 0.581228 16.6808 0.396282 16.8658C0.211337 17.0507 0.102051 17.3113 0.102051 17.5803C0.102051 17.8409 0.211337 18.1099 0.396282 18.2949C0.589634 18.4798 0.841833 18.5891 1.11084 18.5891Z" fill="#8B8B9A"/>
<path d="M1.11084 14.4531C1.66568 14.4531 2.11964 13.9992 2.11964 13.4443C2.11964 12.8895 1.66568 12.4355 1.11084 12.4355C0.556008 12.4355 0.102051 12.8895 0.102051 13.4443C0.102051 13.9992 0.556008 14.4531 1.11084 14.4531Z" fill="#8B8B9A"/>
<path d="M1.11084 10.3086C1.66568 10.3086 2.11964 9.85465 2.11964 9.29981C2.11964 8.74497 1.66568 8.29102 1.11084 8.29102C0.556008 8.29102 0.102051 8.74497 0.102051 9.29981C0.102051 9.85465 0.556008 10.3086 1.11084 10.3086Z" fill="#8B8B9A"/>
<circle cx="29" cy="26" r="3" stroke="#8B8B9A" stroke-width="1.5"/>
<path d="M25 33C25 33 26.3333 32 29 32C31.6667 32 33 33 33 33" stroke="#8B8B9A" stroke-width="1.5" stroke-linecap="round"/>
<path d="M1.11084 6.16419C1.66568 6.16419 2.11964 5.71023 2.11964 5.1554C2.11964 4.60056 1.66568 4.14661 1.11084 4.14661C0.556008 4.14661 0.102051 4.60056 0.102051 5.1554C0.102051 5.71023 0.556008 6.16419 1.11084 6.16419Z" fill="#8B8B9A"/>
</svg>
