<svg width="27" height="35" viewBox="0 0 27 35" fill="none" xmlns="http://www.w3.org/2000/svg">
<path d="M8.56885 10.9375V11.4375H9.06885H22.1938C24.3327 11.4375 26.0688 13.1736 26.0688 15.3125C26.0688 17.4514 24.3327 19.1875 22.1938 19.1875H9.06885H8.56885V19.6875V21.875C8.56885 24.5632 10.7556 26.75 13.4438 26.75H22.1938C24.3327 26.75 26.0688 28.4861 26.0688 30.625C26.0688 32.7639 24.3327 34.5 22.1938 34.5H13.4438C6.48225 34.5 0.818848 28.838 0.818848 21.875V4.375C0.818848 2.23614 2.55499 0.5 4.69385 0.5C6.83271 0.5 8.56885 2.23614 8.56885 4.375V10.9375Z" fill="#171736" stroke="white"/>
</svg>
