<?xml version="1.0" encoding="utf-8"?>
<!-- Generator: Adobe Illustrator 21.0.2, SVG Export Plug-In . SVG Version: 6.00 Build 0)  -->
<svg version="1.1" id="Layer_1" fill="#fff" xmlns="http://www.w3.org/2000/svg" xmlns:xlink="http://www.w3.org/1999/xlink" x="0px" y="0px"
	 viewBox="0 0 336 320" style="enable-background:new 0 0 336 320;" xml:space="preserve">
<g>
	<path d="M255.6,159.7c-7.9,0-15.8,1.2-23.4,3.5c-9.4-6-19.6-10.6-30.3-13.6c27.1-17.6,34.8-53.8,17.2-80.8
		c-10.1-15.5-26.8-25.3-45.3-26.5c-10.4-30.6-43.6-47-74.2-36.6S52.6,49.4,63,80c4.2,12.4,12.5,23.1,23.5,30.2
		c-50,14.3-84.5,60-84.5,111.9c0,3.9,3.1,7,7,7h49.2c-3.1,10.5-4.6,21.5-4.6,32.5c0,3.9,3.1,7,7,7h122.2
		c16.6,40.2,62.7,59.4,102.9,42.7c40.2-16.6,59.4-62.7,42.7-102.9C316.2,179,287.5,159.8,255.6,159.7L255.6,159.7z M214.5,100.7
		c0,24.6-19.9,44.5-44.5,44.5c-24.6,0-44.5-19.9-44.5-44.5c0-24.6,19.9-44.5,44.5-44.5C194.6,56.2,214.5,76.1,214.5,100.7z
		 M73.9,61.2c0-24.6,19.9-44.5,44.5-44.5c17.6,0,33.6,10.4,40.7,26.5c-27.6,5.2-47.7,29.4-47.7,57.5c0,1.5,0.1,3,0.2,4.5
		C90,101.8,73.9,83.2,73.9,61.2L73.9,61.2z M16.2,215.2c3.7-52.3,46.1-93.4,98.5-95.3c4.3,12.3,12.5,22.8,23.4,29.9
		c-33.4,9.6-60.9,33.6-74.8,65.5H16.2z M67.8,254.6c3.8-56.4,52.6-99,109-95.2c13.8,0.9,27.2,4.6,39.5,10.9
		c-29.5,16.9-44.8,51-37.9,84.3H67.8z M255.6,303.4c-35.8,0-64.8-29-64.8-64.8s29-64.8,64.8-64.8s64.8,29,64.8,64.8c0,0,0,0,0,0
		C320.4,274.4,291.4,303.4,255.6,303.4z"/>
	<path d="M290.2,204c-2.7-2.7-7.2-2.7-9.9,0l-24.7,24.7L230.9,204c-2.7-2.8-7.1-2.9-9.9-0.2c-2.8,2.7-2.9,7.1-0.2,9.9
		c0.1,0.1,0.1,0.1,0.2,0.2l24.7,24.7L221,263.2c-2.8,2.7-2.9,7.1-0.2,9.9c2.7,2.8,7.1,2.9,9.9,0.2c0.1-0.1,0.1-0.1,0.2-0.2
		l24.7-24.7l24.7,24.7c2.7,2.7,7.2,2.7,9.9,0c2.7-2.7,2.7-7.2,0-9.9l-24.7-24.7l24.7-24.7C292.9,211.2,292.9,206.7,290.2,204z"/>
</g>
</svg>
