<svg width="27" height="29" viewBox="0 0 27 29" fill="none" xmlns="http://www.w3.org/2000/svg">
<path d="M13.4827 3.31523C10.4762 3.31523 8.03028 5.66452 8.03028 8.55221C8.03028 11.4384 10.4762 13.7864 13.4827 13.7864C16.4908 13.7864 18.9381 11.4384 18.9381 8.55221C18.9381 5.66452 16.4908 3.31523 13.4827 3.31523ZM13.4827 0.848145C17.9123 0.848145 21.504 4.29587 21.504 8.55221C21.504 12.8058 17.9123 16.2535 13.4827 16.2535C9.05594 16.2535 5.46436 12.8058 5.46436 8.55221C5.46436 4.29587 9.05594 0.848145 13.4827 0.848145Z" fill="white"/>
<path d="M24.4301 25.8688C24.3229 23.0727 21.9237 20.8296 18.9899 20.8296H8.00988C5.07607 20.8296 2.67681 23.0727 2.56965 25.8688H24.4301ZM26.9997 28.3358H25.3949H1.60198H0V26.0639C0 21.8186 3.5917 18.3625 8.00988 18.3625H18.9899C23.4082 18.3625 26.9997 21.8186 26.9997 26.0639V28.3358Z" fill="white"/>
</svg>
