<svg width="21" height="25" viewBox="0 0 21 25" fill="none" xmlns="http://www.w3.org/2000/svg">
<path d="M10.4289 0.850001L10.4288 0.850001C9.29316 0.851388 8.18286 1.17347 7.23821 1.77629C6.29349 2.37916 5.55642 3.23607 5.12128 4.23959C4.6861 5.2432 4.57283 6.34766 4.79611 7.41304C5.01938 8.47836 5.5689 9.45568 6.37399 10.2219C7.17901 10.988 8.20346 11.5088 9.31754 11.7196C10.4316 11.9303 11.5863 11.8217 12.636 11.4072C13.6857 10.9927 14.5841 10.2905 15.2167 9.38839C15.8494 8.48615 16.1877 7.42463 16.1879 6.33804V6.33794C16.1875 5.6158 16.0378 4.901 15.7476 4.2344C15.4574 3.56782 15.0324 2.96271 14.4973 2.45344C13.9622 1.9442 13.3275 1.54072 12.6295 1.26573C11.9315 0.990744 11.1838 0.849541 10.4289 0.850001Z" stroke="#8A96A3" stroke-width="0.3"/>
<path d="M6.76604 6.33844C6.76604 4.42719 8.4022 2.85954 10.4288 2.85954C12.4565 2.85954 14.0935 4.42726 14.0935 6.33844C14.0935 8.24847 12.4566 9.81541 10.4288 9.81541C8.40212 9.81541 6.76604 8.24854 6.76604 6.33844ZM16.1878 6.33844C16.1878 3.29929 13.602 0.85 10.4288 0.85C7.25747 0.85 4.67178 3.29933 4.67178 6.33844C4.67178 9.37565 7.2575 11.8249 10.4288 11.8249C13.6019 11.8249 16.1878 9.37569 16.1878 6.33844Z" fill="#8A96A3" stroke="#8A96A3" stroke-width="0.3"/>
<path d="M14.279 14.996C16.2547 14.996 17.8594 16.4905 17.9331 18.3397L17.9218 19.128C17.9133 19.7161 18.3877 20.1973 18.9758 20.1973C19.558 20.1973 20.03 19.7254 20.03 19.1432V18.473C20.03 15.4417 17.4445 12.9865 14.279 12.9865H6.60104C3.4356 12.9865 0.85 15.4417 0.85 18.473V19.1436C0.85 19.7256 1.32177 20.1973 1.90372 20.1973C2.49113 20.1973 2.96512 19.717 2.95735 19.1297L2.94691 18.3398C3.02057 16.4906 4.62529 14.996 6.60104 14.996H14.279Z" fill="#8A96A3" stroke="#8A96A3" stroke-width="0.3"/>
<path d="M6.10221 22.0813C5.8337 21.8302 5.82502 21.4146 6.0829 21.1531C6.34064 20.8916 6.76742 20.8831 7.036 21.1342M6.10221 22.0813L10.9447 23.9895L10.945 23.9891L14.2811 19.451L14.2811 19.451C14.5484 19.0872 14.4611 18.5817 14.0902 18.3232V18.3232C13.7217 18.0663 13.2086 18.1477 12.9431 18.509C12.9431 18.509 12.9431 18.5091 12.9431 18.5091L9.62495 23.0226M6.10221 22.0813L8.25541 24.0947L6.10221 22.0813ZM7.036 21.1342L9.18703 23.1457M7.036 21.1342L7.13845 21.0247L9.289 23.0357L9.18703 23.1457M7.036 21.1342L7.13845 21.0247C6.8106 20.7181 6.29102 20.7283 5.9761 21.0478L9.28921 23.0358M9.18703 23.1457C9.29144 23.2424 9.4132 23.2504 9.47591 23.2462C9.53682 23.2422 9.65055 23.2201 9.74128 23.1176L9.62898 23.0182C9.62764 23.0197 9.6263 23.0212 9.62495 23.0226M9.18703 23.1457L9.28949 23.0361L9.28921 23.0358M9.62495 23.0226C9.57114 23.0804 9.50484 23.094 9.46621 23.0965L9.46594 23.0965C9.42489 23.0993 9.35143 23.0934 9.28921 23.0358M9.62495 23.0226L9.28921 23.0358M9.57531 24.7059C10.0983 24.672 10.5873 24.4244 10.917 24.0249L5.97607 21.0478C5.65884 21.3695 5.66973 21.8822 5.99976 22.1908L5.99976 22.1908L8.15296 24.2042L8.15343 24.2047C8.50416 24.5298 8.97124 24.7099 9.45123 24.7099C9.49244 24.7099 9.53384 24.7086 9.57531 24.7059ZM9.57531 24.7059L9.56559 24.5562L9.5754 24.7059C9.57537 24.7059 9.57534 24.7059 9.57531 24.7059Z" fill="#8A96A3" stroke="#8A96A3" stroke-width="0.3"/>
</svg>
