<svg width="15" height="18" viewBox="0 0 15 18" fill="none" xmlns="http://www.w3.org/2000/svg">
<path d="M7.2476 8.49296C8.35938 8.49296 9.32209 8.09422 10.1087 7.30749C10.8953 6.5209 11.294 5.55845 11.294 4.44655C11.294 3.33504 10.8953 2.37246 10.1086 1.5856C9.32183 0.799136 8.35925 0.400391 7.2476 0.400391C6.1357 0.400391 5.17325 0.799136 4.38665 1.58573C3.60005 2.37233 3.20117 3.33491 3.20117 4.44655C3.20117 5.55845 3.60005 6.52103 4.38678 7.30762C5.1735 8.09409 6.13608 8.49296 7.2476 8.49296Z" fill="black"/>
<path d="M14.3276 13.3189C14.3049 12.9915 14.2591 12.6345 14.1915 12.2574C14.1233 11.8775 14.0355 11.5183 13.9304 11.1901C13.8219 10.8508 13.6742 10.5158 13.4917 10.1947C13.3022 9.86144 13.0797 9.57126 12.8301 9.33247C12.569 9.08266 12.2493 8.88181 11.8797 8.73531C11.5113 8.58958 11.1031 8.51575 10.6664 8.51575C10.4949 8.51575 10.329 8.58612 10.0087 8.79466C9.81158 8.92321 9.58099 9.0719 9.32362 9.23634C9.10355 9.37656 8.80542 9.50794 8.43717 9.62688C8.0779 9.74314 7.71312 9.8021 7.35308 9.8021C6.99305 9.8021 6.62839 9.74314 6.26874 9.62688C5.90088 9.50807 5.60275 9.37669 5.38293 9.23647C5.128 9.07356 4.89728 8.92488 4.69721 8.79453C4.37729 8.58599 4.2113 8.51562 4.0398 8.51562C3.60299 8.51562 3.19489 8.58958 2.82664 8.73544C2.45725 8.88169 2.13746 9.08253 1.87611 9.3326C1.62656 9.57151 1.40392 9.86157 1.21474 10.1947C1.03235 10.5158 0.88469 10.8507 0.775999 11.1902C0.671025 11.5185 0.583227 11.8775 0.515038 12.2574C0.447491 12.6339 0.401605 12.9912 0.378918 13.3193C0.356616 13.6407 0.345337 13.9744 0.345337 14.3113C0.345337 15.1883 0.624114 15.8983 1.17385 16.4218C1.71679 16.9385 2.4352 17.2006 3.30883 17.2006H11.3981C12.2717 17.2006 12.9899 16.9386 13.533 16.4218C14.0828 15.8986 14.3616 15.1886 14.3616 14.3112C14.3615 13.9727 14.3501 13.6388 14.3276 13.3189Z" fill="black"/>
</svg>
