<svg width="31" height="34" viewBox="0 0 31 34" fill="none" xmlns="http://www.w3.org/2000/svg">
<path d="M15.4797 3.69109C12.0278 3.69109 9.2195 6.47456 9.2195 9.89592C9.2195 13.3154 12.0278 16.0974 15.4797 16.0974C18.9334 16.0974 21.7433 13.3154 21.7433 9.89592C21.7433 6.47456 18.9334 3.69109 15.4797 3.69109ZM15.4797 0.768066C20.5656 0.768066 24.6894 4.85297 24.6894 9.89592C24.6894 14.9356 20.5656 19.0205 15.4797 19.0205C10.3971 19.0205 6.27344 14.9356 6.27344 9.89592C6.27344 4.85297 10.3971 0.768066 15.4797 0.768066Z" fill="#171736"/>
<path d="M28.0494 30.4133C27.9263 27.1004 25.1717 24.4429 21.8033 24.4429H9.19653C5.82808 24.4429 3.07338 27.1004 2.95034 30.4133H28.0494ZM30.9997 33.3363H29.1572H1.83931H0V30.6445C0 25.6145 4.1238 21.5198 9.19653 21.5198H21.8033C26.8761 21.5198 30.9997 25.6145 30.9997 30.6445V33.3363Z" fill="#171736"/>
<path d="M29.5 32.5H2V28.5L7 23H22.5L26 24.5L29.5 28.5V32.5Z" fill="#171736"/>
</svg>
