<svg width="35" height="28" viewBox="0 0 35 28" fill="none" xmlns="http://www.w3.org/2000/svg">
<path d="M24.5935 26.994V24.1058C24.5935 22.5738 23.9849 21.1045 22.9016 20.0212C21.8183 18.9379 20.3491 18.3293 18.8171 18.3293H7.26422C5.73221 18.3293 4.26296 18.9379 3.17967 20.0212C2.09638 21.1045 1.48779 22.5738 1.48779 24.1058V26.994" stroke="#171736" stroke-width="2" stroke-linecap="round" stroke-linejoin="round"/>
<path d="M13.0411 12.5528C16.2313 12.5528 18.8175 9.96665 18.8175 6.77642C18.8175 3.58619 16.2313 1 13.0411 1C9.85084 1 7.26465 3.58619 7.26465 6.77642C7.26465 9.96665 9.85084 12.5528 13.0411 12.5528Z" stroke="#171736" stroke-width="2" stroke-linecap="round" stroke-linejoin="round"/>
<path d="M33.2581 26.994V24.1058C33.2571 22.8259 32.8312 21.5826 32.047 20.5711C31.2629 19.5595 30.165 18.8371 28.9258 18.5171" stroke="#939598" stroke-width="2" stroke-linecap="round" stroke-linejoin="round"/>
<path d="M23.1494 1.18774C24.3919 1.50588 25.4933 2.22851 26.2797 3.24171C27.0662 4.25491 27.4931 5.50104 27.4931 6.78365C27.4931 8.06627 27.0662 9.3124 26.2797 10.3256C25.4933 11.3388 24.3919 12.0614 23.1494 12.3796" stroke="#939598" stroke-width="2" stroke-linecap="round" stroke-linejoin="round"/>
</svg>
