<svg width="24" height="25" viewBox="0 0 24 25" fill="none" xmlns="http://www.w3.org/2000/svg">
<path d="M11.5673 2.18421C8.98789 2.18421 6.88939 4.26414 6.88939 6.82073C6.88939 9.37595 8.98789 11.4548 11.5673 11.4548C14.1481 11.4548 16.2477 9.37595 16.2477 6.82073C16.2477 4.26414 14.1481 2.18421 11.5673 2.18421ZM11.5673 0C15.3677 0 18.4491 3.05242 18.4491 6.82073C18.4491 10.5866 15.3677 13.639 11.5673 13.639C7.76934 13.639 4.68796 10.5866 4.68796 6.82073C4.68796 3.05242 7.76934 0 11.5673 0Z" fill="#171736"/>
<path d="M20.9597 22.1521C20.8678 19.6766 18.8094 17.6907 16.2924 17.6907H6.87205C4.35499 17.6907 2.29656 19.6766 2.20462 22.1521H20.9597ZM23.1643 24.3363H21.7875H1.37442H0V22.3249C0 18.5663 3.08149 15.5065 6.87205 15.5065H16.2924C20.083 15.5065 23.1643 18.5663 23.1643 22.3249V24.3363Z" fill="#171736"/>
</svg>
