<?xml version="1.0" encoding="utf-8"?>
<!-- Generator: Adobe Illustrator 21.0.2, SVG Export Plug-In . SVG Version: 6.00 Build 0)  -->
<svg version="1.1" id="Layer_1" xmlns="http://www.w3.org/2000/svg" xmlns:xlink="http://www.w3.org/1999/xlink" x="0px" y="0px"
	 viewBox="0 0 26 27" style="enable-background:new 0 0 26 27;" xml:space="preserve">
<style type="text/css">
	.st0{opacity:0.5;}
	.st1{fill:#8A96A3;}
</style>
<g class="st0">
	<path class="st1" d="M12.8,2.4c-2.9,0-5.2,2.3-5.2,5.1c0,2.8,2.3,5.1,5.2,5.1c2.9,0,5.2-2.3,5.2-5.1C18,4.7,15.7,2.4,12.8,2.4z
		 M12.8,0c4.2,0,7.6,3.4,7.6,7.6c0,4.2-3.4,7.6-7.6,7.6c-4.2,0-7.6-3.4-7.6-7.6C5.2,3.4,8.6,0,12.8,0z"/>
	<path class="st1" d="M23.3,24.6c-0.1-2.7-2.4-4.9-5.2-4.9H7.6c-2.8,0-5.1,2.2-5.2,4.9H23.3z M25.7,27h-1.5H1.5H0v-2.2
		c0-4.2,3.4-7.6,7.6-7.6h10.5c4.2,0,7.6,3.4,7.6,7.6V27z"/>
</g>
</svg>
