<svg width="22" height="22" viewBox="0 0 22 22" fill="none" xmlns="http://www.w3.org/2000/svg">
<path d="M2.57259 2.73891C1.11078 3.214 0.244527 4.71708 0.566329 6.22009L2.26651 14.1609C2.41142 14.8378 2.78591 15.4436 3.32649 15.8759L9.03647 20.4417C10.1659 21.3448 11.7789 21.3136 12.8726 20.3676L18.4662 15.5293C18.9345 15.1243 19.2659 14.5843 19.4152 13.9834L21.3264 6.2866C21.7059 4.75846 20.8394 3.19698 19.3419 2.71042L11.9272 0.301251C11.3246 0.105456 10.6754 0.10548 10.0729 0.30132L2.57259 2.73891Z" fill="url(#paint0_linear)"/>
<path d="M15.6306 7.15745C15.2338 6.88672 14.6818 6.97379 14.3977 7.352L10.0421 13.1499C9.92312 13.2813 9.77404 13.3097 9.69418 13.3148C9.61198 13.3201 9.45236 13.31 9.3155 13.1858L6.4957 10.6056C6.14362 10.2834 5.58416 10.2943 5.24629 10.6298C4.90824 10.9652 4.91962 11.4983 5.27161 11.8204L8.09423 14.4032C8.51696 14.7866 9.08125 15 9.66182 15C9.71171 15 9.76173 14.9984 9.81175 14.9952C10.4442 14.9551 11.0347 14.662 11.4318 14.1911C11.4421 14.179 11.4519 14.1665 11.4615 14.1538L15.8348 8.33236C16.1188 7.9542 16.0275 7.42818 15.6306 7.15745Z" fill="white"/>
<defs>
<linearGradient id="paint0_linear" x1="11" y1="-25.4375" x2="11" y2="26.462" gradientUnits="userSpaceOnUse">
<stop stop-color="#FFD52E"/>
<stop offset="1" stop-color="#FFA757"/>
</linearGradient>
</defs>
</svg>
