<svg width="59" height="19" viewBox="0 0 59 19" fill="none" xmlns="http://www.w3.org/2000/svg">
<path d="M21.6055 17.5663L24.5815 0.859863H29.2315L26.3488 17.5663H21.6055Z" fill="#3C58BF"/>
<path d="M21.6055 17.5663L25.4182 0.859863H29.2309L26.3482 17.5663H21.6055Z" fill="#293688"/>
<path d="M43.1804 1.04551C41.8127 0.535915 40.3621 0.284144 38.9023 0.302986C34.2523 0.302986 30.9049 2.62311 30.9049 5.96452C30.9049 8.47147 33.2296 9.76972 35.0914 10.6054C36.9532 11.441 37.5094 11.9973 37.5094 12.7399C37.5094 13.8537 36.0214 14.4112 34.7194 14.4112C33.18 14.4452 31.6531 14.1277 30.2554 13.483L29.6047 13.2048L28.9521 17.0094C30.649 17.6336 32.4445 17.9479 34.2529 17.9376C39.1816 17.9376 42.4364 15.6175 42.4364 12.088C42.4364 10.1392 41.2276 8.65412 38.4376 7.4472C36.763 6.61155 35.7409 6.14776 35.7409 5.31271C35.7409 4.57017 36.5782 3.82764 38.4376 3.82764C39.6485 3.79118 40.8532 4.01257 41.9717 4.47706L42.4364 4.6627L43.1804 1.04313V1.04551Z" fill="#3C58BF"/>
<path d="M43.1804 1.04551C41.8127 0.535915 40.3621 0.284144 38.9023 0.302986C34.2523 0.302986 31.7416 2.62311 31.7416 5.96452C31.7416 8.47147 33.2296 9.76972 35.0908 10.6054C36.952 11.441 37.5088 11.9973 37.5088 12.7399C37.5088 13.8537 36.0208 14.4112 34.7188 14.4112C33.1794 14.4452 31.6525 14.1277 30.2548 13.483L29.604 13.2048L28.9521 17.0094C30.649 17.6336 32.4445 17.9479 34.2529 17.9376C39.1816 17.9376 42.4364 15.6175 42.4364 12.088C42.4364 10.1392 41.2276 8.65412 38.4376 7.4472C36.763 6.61155 35.7409 6.14776 35.7409 5.31271C35.7409 4.57017 36.5782 3.82764 38.4376 3.82764C39.6485 3.79118 40.8532 4.01257 41.9717 4.47706L42.4364 4.6627L43.1804 1.04313V1.04551Z" fill="#293688"/>
<path d="M51.1754 0.859863C50.0594 0.859863 49.2227 0.952389 48.7574 2.06619L41.7856 17.5663H46.8095L47.7395 14.7818H53.6873L54.2454 17.5663H58.7112L54.8052 0.859863H51.1754ZM49.0367 11.9973C49.3154 11.1617 50.8967 7.0783 50.8967 7.0783C50.8967 7.0783 51.2687 6.05762 51.5474 5.40701L51.8261 6.98459C51.8261 6.98459 52.7561 11.1628 52.9421 12.0892H49.0361L49.0367 11.9973Z" fill="#3C58BF"/>
<path d="M52.2944 0.859863C51.1784 0.859863 50.3417 0.952389 49.8764 2.06619L41.7856 17.5663H46.8095L47.7395 14.7818H53.6873L54.2454 17.5663H58.7112L54.8052 0.859863H52.2944ZM49.0397 11.9973C49.4117 11.0691 50.8997 7.0783 50.8997 7.0783C50.8997 7.0783 51.2717 6.05762 51.5504 5.40701L51.8291 6.98459C51.8291 6.98459 52.7591 11.1628 52.9451 12.0892H49.0391L49.0397 11.9973Z" fill="#293688"/>
<path d="M13.0495 12.5542L12.5848 10.141C11.7475 7.35646 9.05073 4.29142 6.07471 2.80873L10.2612 17.6588H15.2851L22.8143 0.952393H17.7904L13.0495 12.5542Z" fill="#3C58BF"/>
<path d="M13.0495 12.5542L12.5848 10.141C11.7475 7.35646 9.05073 4.29142 6.07471 2.80873L10.2612 17.6588H15.2851L22.8143 0.952393H18.7222L13.0495 12.5542Z" fill="#293688"/>
<path d="M0.123047 0.859863L0.960354 1.0455C6.91241 2.43746 11.0038 5.9645 12.5852 10.141L10.9105 2.25182C10.6318 1.13802 9.79454 0.859863 8.77183 0.859863H0.123047Z" fill="#FFBC00"/>
<path d="M0.123047 0.859863C6.0751 2.25182 11.0038 5.87378 12.5846 10.0484L11.0038 3.45874C10.8886 2.95509 10.6046 2.50579 10.1987 2.18517C9.79283 1.86454 9.28945 1.6918 8.77183 1.69552L0.123047 0.859863Z" fill="#F7981D"/>
<path d="M0.123047 0.859863C6.0751 2.25182 11.0038 5.87378 12.5846 10.0484L11.4686 6.42888C11.1875 5.31508 10.8178 4.20247 9.51285 3.73689L0.123047 0.859863Z" fill="#ED7C00"/>
<path d="M17.6991 11.9974L14.5371 8.84157L13.0491 12.3686L12.6771 10.0485C11.8397 7.26399 9.14302 4.19893 6.16699 2.71625L10.3535 17.5664H15.3774L17.6991 11.9974Z" fill="#051244"/>
<path d="M26.3472 17.5664L22.3485 13.4824L21.6045 17.5664H26.3472Z" fill="#051244"/>
<path d="M37.0424 11.8117C37.4145 12.183 37.6004 12.4611 37.5071 12.8324C37.5071 13.9462 36.0191 14.5037 34.7171 14.5037C33.1777 14.5377 31.6508 14.2203 30.2531 13.5755L29.6024 13.2974L28.9517 17.102C30.6485 17.7261 32.444 18.0405 34.2524 18.0302C37.2284 18.0302 39.6465 17.1945 41.0412 15.71L37.0424 11.8117Z" fill="#051244"/>
<path d="M42.4355 17.5664H46.8063L47.7363 14.7819H53.6884L54.2464 17.5664H58.7104L57.1297 10.791L51.5496 5.40764L51.8283 6.89271C51.8283 6.89271 52.7584 11.071 52.9444 11.9973H49.0383C49.4103 11.0692 50.8983 7.07835 50.8983 7.07835C50.8983 7.07835 51.2703 6.05766 51.549 5.40704" fill="#051244"/>
</svg>
