<svg width="36" height="36" viewBox="0 0 36 36" fill="none" xmlns="http://www.w3.org/2000/svg">
<g clip-path="url(#clip0)">
<path d="M34.4348 31.6956C34.4348 33.4245 33.0332 34.8261 31.3043 34.8261H3.13045C1.40154 34.826 0 33.4245 0 31.6956V9.75793H34.4348V31.6956Z" fill="#B28D5B"/>
<path d="M0 9.75793H5.47826V34.8261H3.13045C1.40154 34.826 0 33.4232 0 31.6926V9.75793ZM34.4348 20.7253H22.6957C20.9668 20.7253 19.5652 22.1269 19.5652 23.8557V23.8619C19.5652 25.5908 20.9668 26.9924 22.6957 26.9924H34.4348C35.2993 26.9924 36.0001 26.2916 36.0001 25.4271V22.2905C36 21.426 35.2993 20.7253 34.4348 20.7253Z" fill="#99774F"/>
<path d="M24.2614 23.8588C24.2614 24.5077 23.7359 25.0338 23.0875 25.0338C22.4392 25.0338 21.9136 24.5078 21.9136 23.8588C21.9136 23.2099 22.4392 22.6837 23.0875 22.6837C23.7359 22.6837 24.2614 23.2098 24.2614 23.8588Z" fill="#FFE77C"/>
<path d="M32.087 13.6748H3.91303C1.75198 13.6748 0 11.9228 0 9.76171V9.75397C0 7.59285 1.75198 5.84094 3.91303 5.84094H32.087C33.3837 5.84094 34.4348 6.89204 34.4348 8.18875V11.3269C34.4348 12.6236 33.3837 13.6748 32.087 13.6748Z" fill="#CEA05D"/>
<path d="M21.5676 2.34466L24.2607 9.75799H6.26074L19.0253 1.49043C19.9502 0.891435 21.1912 1.30846 21.5676 2.34466Z" fill="#84D88B"/>
<path d="M27.9004 2.30954L30.6063 9.75796H12.521L25.346 1.45124C26.2752 0.849362 27.5222 1.26836 27.9004 2.30954Z" fill="#91F18B"/>
<path d="M34.4345 9.17041V10.3455H4.69537C4.37123 10.3455 4.1084 10.0824 4.1084 9.75794C4.1084 9.43345 4.37123 9.17041 4.69537 9.17041H34.4345Z" fill="#99774F"/>
</g>
<defs>
<clipPath id="clip0">
<rect width="36" height="36" fill="white"/>
</clipPath>
</defs>
</svg>
